<svg xmlns="http://www.w3.org/2000/svg" stroke-miterlimit="1.414" stroke-linejoin="round" clip-rule="evenodd" fill-rule="evenodd" viewBox="0 0 16 16"><path d="M3.892 3.882c-2.338 0-3.036.043-3.085.19-.04.116.176.287.543.43.892.35.93.595.874 5.61-.05 4.697-.05 4.693-.917 4.917-.254.065-.462.215-.462.332 0 .173.397.22 2.135.254 1.373.026 2.19-.015 2.292-.117.196-.197-.133-.438-.6-.44-.173-.002-.472-.13-.664-.285-.322-.26-.352-.41-.402-2-.075-2.34-.037-2.455.79-2.455.526 0 .702.068.865.333 1.936 3.157 2.966 4.452 3.874 4.87.755.35 2.046.32 2.116-.045.03-.168-.118-.3-.47-.416-.312-.103-.877-.554-1.42-1.134-.984-1.053-2.52-3.25-2.52-3.607 0-.12.316-.388.703-.592 2.28-1.2 2.326-4.39.078-5.498-.672-.33-.855-.348-3.728-.348zm.06 1.036L5 4.936c1.736.03 2.434.63 2.433 2.083 0 .934-.417 1.608-1.223 1.973-.732.333-2.15.394-2.263.1-.04-.107-.055-1.09-.032-2.185z"/><path d="M3.838 9.407c-.235-.178-.26-.436-.222-2.418l.04-2.22 1.267-.043c1.115-.037 1.325-.002 1.776.3C8.114 5.97 8.03 8.28 6.55 9.113c-.733.41-2.33.584-2.714.293z" fill="none"/><path d="M14.082 6.213c.732-.374 1.09-.947 1.203-1.925.143-1.242.022-1.392-1.09-1.338-.757.036-.923.09-.967.322-.064.338.208.53.753.533.338.002.408.068.408.38 0 .483-.363 1.188-.673 1.307-.13.05-.428.092-.66.092-1.07 0-1.33-.49-1.33-2.5 0-1.348.03-1.517.353-1.892.463-.538 1.377-.577 1.904-.082.434.408.998.44.998.06 0-.572-1.015-1.21-1.922-1.21-1.554 0-2.363 1.114-2.363 3.256 0 2.078.853 3.255 2.36 3.255.286 0 .747-.115 1.027-.257z"/></svg>