<?xml version="1.0" encoding="UTF-8" standalone="no"?>
<svg
   xmlns:dc="http://purl.org/dc/elements/1.1/"
   xmlns:cc="http://creativecommons.org/ns#"
   xmlns:rdf="http://www.w3.org/1999/02/22-rdf-syntax-ns#"
   xmlns:svg="http://www.w3.org/2000/svg"
   xmlns="http://www.w3.org/2000/svg"
   id="svg11399"
   version="1.1"
   viewBox="0 0 16 16"
   fill-rule="evenodd"
   clip-rule="evenodd"
   stroke-linejoin="round"
   stroke-miterlimit="1.414">
  <metadata
     id="metadata11405">
    <rdf:RDF>
      <cc:Work
         rdf:about="">
        <dc:format>image/svg+xml</dc:format>
        <dc:type
           rdf:resource="http://purl.org/dc/dcmitype/StillImage" />
        <dc:title></dc:title>
      </cc:Work>
    </rdf:RDF>
  </metadata>
  <defs
     id="defs11403" />
  <path
     id="path11981"
     d="M 7.7775565,15.888595 C 7.0815745,15.807753 6.6746175,15.720397 6.1757135,15.544749 5.839374,15.426336 5.3205857,15.176597 5.110082,15.031766 4.9721626,14.93688 4.9612081,14.934632 4.8543892,14.979555 4.647933,15.06636 4.4016709,15.070903 4.1679545,14.992202 3.3432985,14.714529 2.493053,14.060933 2.0316198,13.349971 1.6917364,12.826288 1.5494939,12.455821 1.4891632,11.937154 1.4623656,11.706797 1.4336041,11.591232 1.3916153,11.54516 1.1371742,11.26604 1.0880843,10.683206 1.3142394,10.626446 c 0.09336,-0.02344 0.169711,0.03274 0.2257895,0.166109 l 0.040676,0.09674 0.048295,-0.113059 c 0.090556,-0.211981 0.3071915,-0.358903 0.5953313,-0.403744 0.1694649,-0.02637 0.2448365,0.0176 0.1878292,0.10958 -0.055512,0.08956 -0.05227,0.09944 0.032666,0.09943 0.072773,-9e-6 0.073519,-0.0047 0.076216,-0.481825 C 2.5243524,9.518699 2.5667344,9.232638 2.7135766,8.80121 2.8807461,8.310069 3.038323,8.024742 3.3734444,7.6063767 3.5583276,7.3755692 3.6516826,7.3149035 3.821978,7.3149035 c 0.097938,0 0.1067763,-0.00781 0.092614,-0.081853 C 3.905952,7.1880315 3.917192,7.1292321 3.939461,7.1023862 3.9726,7.0624492 3.97021,7.0535742 3.926269,7.0535742 3.833714,7.0535742 3.7994235,6.9221778 3.837807,6.7145528 3.871242,6.5336597 4.0759329,6.0587573 4.176977,5.9276258 4.223024,5.8678738 4.216422,5.8520908 4.083724,5.7044958 4.0051777,5.6171396 3.9280752,5.4990776 3.9123729,5.4421356 3.8628713,5.2626342 3.9610818,4.6272915 4.0862307,4.3174028 4.214393,4.0000537 4.5299526,3.4781239 4.7963195,3.142928 4.9003155,3.0120576 4.9815565,2.9046152 4.9768489,2.9041668 4.9721164,2.9037196 4.8727465,2.8978963 4.7559587,2.8911762 4.5330382,2.8783867 4.4292978,2.8510922 4.4292978,2.8052346 c 0,-0.024455 0.1485356,-0.1283883 0.4409925,-0.3085805 C 5.1742306,2.3093869 5.4328149,1.9918976 5.7065159,1.4699373 5.7671029,1.354406 5.8647199,1.2132046 5.9234486,1.1561677 L 6.0302249,1.0524675 5.7605832,1.0558985 C 5.5085829,1.0590925 5.4902895,1.0547615 5.4809642,0.98936 5.4668612,0.890416 5.6306793,0.7833333 5.8327817,0.7593977 5.9232427,0.7486312 5.9967356,0.7309437 5.9960849,0.7199644 5.9954354,0.7089614 5.9188039,0.6485633 5.8258001,0.5856842 5.5013316,0.3663084 5.4889006,0.1855353 5.7970385,0.1674644 c 0.1325493,-0.00781 0.2022846,0.0084 0.3253855,0.075388 0.1490865,0.081138 0.3321655,0.3007139 0.3321655,0.3983754 0,0.070502 0.05691,0.047656 0.07729,-0.031045 0.02264,-0.087385 0.229927,-0.2363665 0.283129,-0.2034866 0.02049,0.012671 0.03002,0.050768 0.02114,0.084676 -0.021,0.08031 0.0064,0.077944 0.241156,-0.020894 0.387169,-0.1629565 0.968585,-0.261768 1.165748,-0.1981187 0.114348,0.036913 0.09151,0.1415445 -0.04899,0.2245898 l -0.122498,0.072395 0.26133,0.019462 c 0.143729,0.010648 0.301964,0.036144 0.351631,0.056541 0.230662,0.094697 0.377545,0.2727356 0.431628,0.5231848 0.02768,0.1282156 0.164157,0.2011346 0.376423,0.2011346 0.209225,0 0.411508,0.128923 0.8028475,0.5116884 0.392735,0.3841296 0.486696,0.5073039 0.700183,0.9178571 0.07719,0.1484445 0.187467,0.3244094 0.245059,0.3910331 l 0.104706,0.1211334 0.04953,-0.097039 c 0.201397,-0.3946004 0.294432,-0.9479393 0.279865,-1.6645423 -0.0092,-0.4535975 -0.0056,-0.4895263 0.05046,-0.5007435 0.120335,-0.024076 0.357483,0.2776455 0.457395,0.5819396 0.146805,0.4471092 0.203629,1.0794471 0.14384,1.6006384 l -0.02436,0.2123292 0.09685,-0.1796634 c 0.197329,-0.366055 0.28417,-0.7150579 0.390148,-1.5679713 0.06853,-0.5514862 0.104482,-0.6859888 0.18337,-0.6859888 0.07185,0 0.198132,0.290183 0.294153,0.6759607 0.240384,0.9657875 -0.03423,2.0638206 -0.75411,3.0153082 l -0.135932,0.1796635 0.05961,0.2449958 c 0.122679,0.5042251 0.188813,0.8781152 0.228246,1.2904055 0.03869,0.4044538 0.04589,0.4315267 0.15218,0.5715613 0.270133,0.3559016 0.480057,0.9386872 0.51769,1.4371991 0.02244,0.297232 -0.0047,0.374447 -0.102932,0.292916 -0.04033,-0.03347 -0.04757,-0.01916 -0.04757,0.09396 0,0.177314 0.110066,0.46322 0.247763,0.64362 0.06136,0.08039 0.111568,0.160729 0.111568,0.17854 0,0.0497 -0.107439,0.03847 -0.190841,-0.01995 -0.04109,-0.02878 -0.07996,-0.04709 -0.08635,-0.04069 -0.0064,0.0064 0.02489,0.136526 0.06954,0.289161 0.211311,0.7223113 0.185159,2.0851573 -0.05813,3.0290343 -0.07807,0.302915 -0.07939,0.505157 -0.0037,0.571164 0.110598,0.09647 0.211079,0.128577 0.410812,0.131255 0.264096,0.0035 0.348674,-0.0252 0.348674,-0.118502 0,-0.104008 -0.13068,-0.214377 -0.331214,-0.279752 -0.199133,-0.06492 -0.259069,-0.132248 -0.190868,-0.214425 0.03586,-0.04321 0.08561,-0.05229 0.229517,-0.04188 l 0.183732,0.01329 -0.07439,-0.212907 c -0.07731,-0.221237 -0.06482,-0.297613 0.0484,-0.296085 0.185815,0.0025 0.564325,0.30796 0.692183,0.558583 0.03681,0.07213 0.07544,0.203105 0.08585,0.291042 0.01636,0.138176 0.02652,0.155824 0.07486,0.12996 0.07305,-0.03909 0.131262,0.01892 0.131262,0.130766 0,0.163353 -0.243508,0.32624 -0.487713,0.32624 -0.07623,0 -0.157439,0.02619 -0.210436,0.06789 -0.144999,0.114052 -0.441048,0.198543 -0.755315,0.215554 -0.246948,0.01337 -0.313178,0.0059 -0.412559,-0.04647 l -0.118387,-0.0624 -0.06663,0.157714 c -0.03664,0.08675 -0.06003,0.157713 -0.05196,0.157713 0.008,0 0.05098,-0.02379 0.09535,-0.05286 0.103428,-0.06777 0.164215,-0.02294 0.212613,0.156793 0.04781,0.177576 -0.0062,0.324225 -0.171271,0.465579 l -0.132289,0.113236 0.09382,0.02086 c 0.301802,0.06708 0.567475,0.196096 0.567475,0.27556 0,0.01491 -0.06849,0.0065 -0.15219,-0.01871 -0.221398,-0.06663 -0.496326,-0.05531 -0.958457,0.03947 -0.224579,0.04606 -0.540624,0.10977 -0.702321,0.14157 -0.161697,0.0318 -0.448342,0.102671 -0.636988,0.157494 -0.660278,0.191867 -1.3333965,0.271105 -2.2492565,0.264778 -0.334965,-0.0024 -0.770726,-0.02299 -0.968355,-0.04594 z m 2.221293,-0.128354 c 0.3986015,-0.05193 0.4672585,-0.06598 1.2739795,-0.260818 0.251529,-0.06075 0.545524,-0.127879 0.653321,-0.149177 0.504127,-0.09959 0.716024,-0.154925 0.72772,-0.190013 0.007,-0.02098 -0.01053,-0.03813 -0.03901,-0.03813 -0.09734,0 -0.05168,-0.06292 0.140181,-0.193216 0.192972,-0.131044 0.232756,-0.182513 0.232756,-0.301109 0,-0.06061 -0.0062,-0.05966 -0.106161,0.01646 -0.05839,0.04443 -0.146588,0.08928 -0.195996,0.09967 -0.276393,0.05808 -0.259979,0.05914 -0.236314,-0.01542 0.01214,-0.03823 0.07177,-0.152944 0.132512,-0.254923 0.110527,-0.185542 0.409224,-0.937449 0.453984,-1.142807 0.02215,-0.101595 0.01932,-0.10667 -0.04125,-0.07424 -0.03577,0.01914 -0.101961,0.09761 -0.147117,0.174374 -0.101772,0.173018 -0.246778,0.313128 -0.277865,0.268476 -0.01253,-0.01799 -0.07965,-0.120509 -0.149152,-0.227807 -0.207657,-0.32057 -0.336041,-0.460432 -0.673483,-0.733703 -0.176561,-0.142984 -0.351405,-0.2986 -0.388544,-0.345816 -0.08776,-0.11158 -0.11552,-0.267641 -0.07257,-0.407998 0.03379,-0.110408 0.03411,-0.109852 0.01951,0.03478 -0.0133,0.131801 -0.01148,0.136866 0.01768,0.04899 0.01788,-0.0539 0.0261,-0.124464 0.01828,-0.156811 -0.0079,-0.03285 0.04229,-0.143883 0.113816,-0.251575 0.07042,-0.106019 0.129197,-0.211851 0.130614,-0.235183 0.0021,-0.03463 0.0057,-0.03461 0.01963,1.31e-4 0.01277,0.03185 0.0283,0.02774 0.06171,-0.01633 0.02456,-0.03239 0.04512,-0.07273 0.0457,-0.08965 5.73e-4,-0.01691 -0.02054,-0.0023 -0.04692,0.03267 -0.02637,0.03488 -0.04842,0.04561 -0.04899,0.02385 -5.71e-4,-0.02176 0.03113,-0.06953 0.07046,-0.10616 0.03933,-0.03663 0.06085,-0.06661 0.04785,-0.06661 -0.013,0 -0.0075,-0.03308 0.01236,-0.07349 0.03229,-0.0659 0.02922,-0.06506 -0.02965,0.0082 -0.03611,0.04491 -0.12618,0.20103 -0.200157,0.346928 -0.231333,0.456237 -0.718522,0.874734 -1.191715,1.023686 -0.108077,0.03401 -0.296918,0.09881 -0.4196565,0.143997 -0.265792,0.09783 -0.568937,0.146492 -1.034484,0.166039 -0.188647,0.0079 -0.412079,0.02438 -0.496516,0.03659 -0.147246,0.02129 -0.154431,0.01858 -0.175752,-0.06638 -0.02826,-0.112598 0.05195,-0.224904 0.256773,-0.359545 0.08283,-0.05445 0.151407,-0.108137 0.152387,-0.119291 9.79e-4,-0.01112 -0.07101,-0.02994 -0.159977,-0.04175 -0.176176,-0.02341 -0.554847,-0.203641 -0.723357,-0.34432 -0.128285,-0.107095 -0.105759,-0.178661 0.04705,-0.149498 0.06976,0.01331 0.08722,0.0099 0.05406,-0.01041 -0.07617,-0.04682 -1.012113,-0.323775 -1.169687,-0.346129 -0.124043,-0.01759 -0.6875861,0.03116 -0.7185979,0.06217 -0.00651,0.0065 0.06293,0.08381 0.154263,0.171836 0.1829429,0.176333 0.2114159,0.284209 0.1013099,0.38385 -0.1142295,0.103369 -0.4152416,0.0287 -0.6784176,-0.168309 -0.1567381,-0.117329 -0.1291171,-0.160152 0.032666,-0.05065 0.1650412,0.11171 0.3877748,0.203163 0.4948184,0.203163 0.1885082,0 0.1751922,-0.175375 -0.026786,-0.35271 -0.2148741,-0.188662 -0.2762211,-0.177614 -0.7456995,0.134306 -0.2516359,0.167185 -0.2991853,0.218404 -0.2027637,0.218404 0.073531,0 0.370209,0.288654 0.4426856,0.43072 0.244478,0.479218 -0.2088674,0.600944 -0.7785783,0.209052 -0.093644,-0.0644 -0.1765636,-0.117105 -0.1842728,-0.117105 -0.016043,0 -0.1835546,0.280144 -0.1835546,0.306975 0,0.0097 0.080014,0.06886 0.1778023,0.131419 0.2731249,0.174715 0.4456185,0.345883 0.5293252,0.525256 0.086557,0.185493 0.092508,0.240243 0.038865,0.357965 -0.075684,0.166112 -0.3187281,0.171592 -0.6949213,0.01566 -0.099512,-0.04124 -0.1880706,-0.06786 -0.1967878,-0.05914 -0.029258,0.02926 0.053051,0.27193 0.1504546,0.443661 0.1594013,0.281021 0.7698173,0.725366 1.3902685,1.012033 0.607636,0.280745 1.42222,0.466128 2.394254,0.544883 0.319164,0.02586 1.475151,-0.01171 1.845635,-0.05995 z m -5.866159,-1.142552 c 0.059452,-0.04386 0.1301345,-0.111213 0.1570753,-0.149681 0.044745,-0.06389 0.04161,-0.08348 -0.036334,-0.226678 -0.046922,-0.08621 -0.1093437,-0.272426 -0.1387169,-0.41381 -0.045798,-0.220473 -0.047656,-0.294259 -0.01305,-0.518391 0.051028,-0.330395 0.2226969,-0.698272 0.4830665,-1.035156 0.2062042,-0.2668 0.3267248,-0.380092 0.6516169,-0.612529 0.1293773,-0.09256 0.1354443,-0.103973 0.103712,-0.195011 -0.018539,-0.05318 -0.068644,-0.134402 -0.1113543,-0.180482 -0.066349,-0.07159 -0.1055458,-0.08379 -0.2692761,-0.08379 -0.6507461,0 -1.3168171,0.505133 -1.6629224,1.261126 -0.3201608,0.699324 -0.1936419,1.488382 0.3253026,2.028809 0.2266627,0.236045 0.3275482,0.260846 0.5108816,0.125587 z M 3.4010488,14.408825 C 3.2371292,14.18066 3.0987188,13.864881 3.0508546,13.60987 3.0114687,13.400025 3.0017789,13.383602 2.8726678,13.30794 2.5384374,13.112068 2.3248422,12.652787 2.4959611,12.497927 c 0.130648,-0.11824 0.2711348,-0.10215 0.6014882,0.06887 0.021497,0.01112 0.2011558,-0.354278 0.1807767,-0.367675 -0.1969629,-0.129494 -0.3233304,-0.240348 -0.367224,-0.322144 -0.071093,-0.132482 -0.055086,-0.313273 0.03198,-0.361194 0.035931,-0.01978 0.070833,-0.03902 0.077565,-0.04275 0.00674,-0.0038 -0.026348,-0.05264 -0.073495,-0.108669 -0.047147,-0.05603 -0.085729,-0.122805 -0.085729,-0.148377 0,-0.05952 -0.031104,-0.05856 -0.1583164,0.0049 -0.1399887,0.06984 -0.219506,0.04993 -0.2093052,-0.05241 0.00438,-0.04435 0.01764,-0.174749 0.029365,-0.289763 l 0.021332,-0.209112 -0.1376438,0.01846 c -0.1541494,0.02068 -0.1961867,-0.02195 -0.1347913,-0.136665 0.033624,-0.06282 0.027661,-0.06789 -0.079801,-0.06789 -0.1291667,0 -0.3318322,0.113011 -0.4327462,0.241297 -0.0356,0.04525 -0.083433,0.149126 -0.1063148,0.230821 -0.061262,0.218781 -0.084344,0.203012 -0.2249448,-0.153624 -0.076086,-0.19299 -0.1848572,-0.03897 -0.1577769,0.223403 0.024668,0.238989 0.1146677,0.423419 0.3116625,0.638661 0.1840007,0.201043 0.2179845,0.267651 0.081978,0.160665 -0.047656,-0.03749 -0.092673,-0.06215 -0.1000207,-0.05479 -0.00733,0.0073 0.00911,0.121484 0.036617,0.25362 0.1600958,0.769472 0.4994078,1.363347 1.1174489,1.955796 0.2540696,0.243549 0.7016248,0.583491 0.7720321,0.586399 0.01344,5.56e-4 -0.02662,-0.07006 -0.08903,-0.156938 z M 13.690119,13.917044 c 0.07186,-0.03317 0.166875,-0.09961 0.211133,-0.147639 l 0.08046,-0.08734 -0.227466,0.005 c -0.125107,0.0027 -0.26789,-0.0057 -0.317298,-0.01852 -0.08804,-0.02296 -0.08983,-0.02052 -0.08983,0.121667 0,0.0798 0.0098,0.154894 0.02178,0.166871 0.03972,0.03972 0.188757,0.02117 0.321217,-0.03997 z m -8.6810136,-0.04464 c 0.054885,-0.04338 0.051761,-0.235439 -0.00556,-0.3444 -0.086143,-0.16364 -0.5518091,-0.561868 -0.6570142,-0.561868 -0.056955,0 -0.1434008,0.294272 -0.1531449,0.521359 l -0.00911,0.21103 0.1633304,0.08026 c 0.3016308,0.148229 0.5482597,0.183133 0.6614876,0.09362 z m 9.3708386,-0.632752 c 0.103878,-0.248623 -0.0255,-0.502256 -0.329889,-0.646698 -0.167391,-0.07943 -0.187908,-0.0329 -0.04029,0.09136 0.19595,0.164945 0.251543,0.272245 0.251788,0.48598 2.62e-4,0.216503 0.04576,0.243165 0.118384,0.06935 z M 3.0168093,13.087504 c 0.00639,-0.0937 0.025437,-0.221817 0.042249,-0.284699 0.046177,-0.172792 0.041184,-0.184795 -0.1004111,-0.24145 -0.1902949,-0.07615 -0.3799153,-0.06958 -0.4250228,0.01471 -0.079505,0.148559 0.066787,0.449656 0.3008665,0.619219 0.074383,0.05389 0.1432103,0.09001 0.1529403,0.08029 0.0097,-0.0097 0.022953,-0.09435 0.029377,-0.188057 z m 10.9673047,0.107297 c -0.01112,-0.01797 -0.03769,-0.03244 -0.0591,-0.03217 -0.02338,2.94e-4 -0.01934,0.01314 0.01006,0.03217 0.06275,0.04056 0.07406,0.04056 0.04901,0 z M 5.4557319,12.651525 c -0.00308,-0.163836 -0.173381,-0.414979 -0.3693584,-0.54467 L 4.957906,12.021835 4.8050616,12.191822 c -0.2351492,0.261521 -0.2352498,0.262211 -0.057038,0.391537 0.1924114,0.139634 0.4086662,0.217792 0.5795792,0.209471 l 0.1306646,-0.0064 -0.00248,-0.134946 z m 3.4831066,0.08375 c 0.656782,-0.05212 1.1932655,-0.227176 1.6467635,-0.537367 0.07949,-0.05438 0.134165,-0.07431 0.141708,-0.05168 0.0168,0.05039 0.23942,-0.130169 0.370442,-0.300443 l 0.105652,-0.137299 -0.109166,0.098 c -0.167737,0.150577 -0.017,-0.07368 0.373257,-0.555321 0.101902,-0.125764 0.24541,-0.33156 0.318906,-0.457325 0.217136,-0.371568 0.230823,-0.385712 0.205474,-0.21233 -0.01183,0.08084 -0.02847,0.176397 -0.03698,0.21233 -0.02992,0.126187 0.246117,-0.215751 0.363367,-0.450119 0.101795,-0.203473 0.112999,-0.250274 0.09649,-0.403075 -0.01029,-0.09508 -0.03252,-0.221205 -0.04948,-0.280279 -0.06437,-0.224466 -0.03775,-0.443904 0.08385,-0.691272 0.06306,-0.12827 0.122305,-0.299367 0.13166,-0.380216 0.0093,-0.08085 0.02305,-0.198446 0.03042,-0.261328 0.01053,-0.08935 0.003,-0.07864 -0.03461,0.049 -0.114177,0.388382 -0.38135,1.03658 -0.511314,1.240535 -0.373078,0.585482 -0.442659,0.642106 -1.086451,0.884134 -0.389192,0.146314 -0.75625,0.178449 -1.3171235,0.115307 -0.655184,-0.07375 -1.645274,-0.277942 -1.921188,-0.396213 -0.199016,-0.08531 -0.385665,-0.268292 -0.46735,-0.458173 -0.132058,-0.306978 -0.08011,-0.992705 0.12304,-1.62393 0.03238,-0.100615 0.02888,-0.109926 -0.05333,-0.1419823 -0.115295,-0.044954 -0.366537,-0.049033 -0.44135,-0.00717 -0.05264,0.029457 -0.04446,0.042757 0.07473,0.121637 0.26227,0.173562 0.290329,0.440312 0.0532,0.505785 -0.139588,0.03854 -0.33048,1.64e-4 -0.551692,-0.110959 -0.08757,-0.04399 -0.163417,-0.07998 -0.168537,-0.07998 -0.0051,0 -0.0476,0.05786 -0.09439,0.12857 l -0.08509,0.12857 0.1052384,0.06514 c 0.126342,0.0782 0.248257,0.204539 0.363244,0.376434 0.112207,0.167738 0.118075,0.38506 0.01239,0.459081 -0.11916,0.08346 -0.379744,0.0652 -0.5911469,-0.04144 -0.2008021,-0.101286 -0.2182365,-0.09295 -0.2182365,0.10432 0,0.08735 0.026596,0.124542 0.1605916,0.22458 0.1734046,0.1294603 0.3080918,0.2899243 0.3448908,0.4109013 0.03314,0.108965 -0.0051,0.226753 -0.08137,0.25098 -0.03616,0.01148 -0.058127,0.03317 -0.04883,0.04821 0.02768,0.04479 1.035589,0.703956 1.34615,0.880372 0.158143,0.08983 0.463932,0.239106 0.6795266,0.331714 0.398603,0.171217 0.611708,0.289363 0.440993,0.244488 -0.137177,-0.03606 -0.6661536,-0.114703 -0.6797906,-0.101074 -0.0071,0.007 0.08055,0.06036 0.194661,0.118479 0.1748066,0.08903 0.2511796,0.107628 0.4851296,0.118075 0.324995,0.01452 0.433772,0.03335 0.410458,0.07108 -0.0092,0.01501 -0.07478,0.03507 -0.145555,0.04456 -0.197604,0.0265 -0.591564,0.30748 -0.591564,0.421909 0,0.07161 0.02127,0.07246 0.622292,0.02477 z M 12.138481,9.764859 c 0,-0.113788 0.0076,-0.199322 0.01681,-0.190076 0.02467,0.02467 0.02799,0.352158 0.0038,0.376334 -0.01136,0.01135 -0.02062,-0.07247 -0.02062,-0.186258 z m 0.183699,0.04774 c -0.01124,-0.02919 -0.01944,-0.07025 -0.0183,-0.09124 0.0011,-0.02099 0.01615,-0.003 0.03336,0.04008 0.01721,0.04303 0.02545,0.08409 0.0183,0.09124 -0.0071,0.0071 -0.02216,-0.01089 -0.03336,-0.04008 z M 3.3513023,12.11868 c 0,-0.01694 0.07999,-0.125103 0.1777716,-0.240354 0.1332579,-0.157078 0.1684296,-0.218889 0.1404631,-0.246855 -0.058434,-0.05843 -0.1222384,-0.0438 -0.1222384,0.02803 0,0.08903 -0.05918,0.08226 -0.2754094,-0.03148 -0.156014,-0.08207 -0.1963193,-0.09122 -0.2646454,-0.06009 -0.044331,0.0202 -0.080606,0.05688 -0.080606,0.08153 0,0.105274 0.099406,0.267191 0.2325427,0.378792 0.1468164,0.123062 0.1921168,0.144386 0.1921168,0.09044 z m 0.1144192,-0.54902 c -0.056707,-0.139535 -0.080014,-0.256213 -0.062315,-0.311964 0.017309,-0.05453 0.024431,-0.05551 0.074536,-0.01017 0.087314,0.07901 0.284846,0.150628 0.4154798,0.150628 0.074276,0 0.1876813,-0.03897 0.2993628,-0.102872 0.2056523,-0.11766 0.5753254,-0.223793 0.7795064,-0.223793 0.2005134,0 0.1995326,-0.04587 -0.00237,-0.109509 C 4.5916013,10.842719 4.012151,10.356446 3.745628,9.934549 L 3.636166,9.76127 3.4637564,9.78281 C 3.3589441,9.7959 3.2452371,9.78911 3.1737426,9.76554 2.8974979,9.67437 2.8894858,9.275239 3.1586576,9.014018 3.2654694,8.910361 3.2847353,8.873092 3.2673387,8.803774 3.2439837,8.710734 3.2202037,8.700332 3.1625856,8.757954 c -0.021142,0.02114 -0.1123369,0.03951 -0.2026667,0.04083 -0.1892206,0.0028 -0.1832861,-0.0072 -0.2846508,0.47606 -0.059759,0.284881 -0.080523,1.221874 -0.033766,1.524046 0.011595,0.07465 0.00722,0.183931 -0.0097,0.242833 -0.016895,0.0589 -0.023639,0.11417 -0.015002,0.122806 0.00864,0.0086 0.074536,-0.04613 0.1464391,-0.12171 0.1233541,-0.129673 0.1458428,-0.129267 0.1327339,0.0024 -0.012884,0.129426 0.2248655,0.415134 0.4389847,0.527534 0.1282001,0.0673 0.1590688,0.06656 0.1307569,-0.0031 z m 0.2707503,-0.09141 c -0.077104,-0.02091 -0.1679552,-0.04983 -0.2019023,-0.06429 -0.1112367,-0.04737 -0.012032,0.07799 0.1125972,0.142292 0.1004466,0.05182 0.1187009,0.05278 0.170965,0.009 0.054376,-0.04554 0.048614,-0.05169 -0.081659,-0.08701 z m 2.4459847,-0.148877 c 0.238488,-0.03374 0.558671,-0.02544 0.827442,0.02149 0.0885,0.01545 -0.0185,-0.06815 -0.473658,-0.37004 C 6.2128465,10.766319 5.9176738,10.55565 5.8803016,10.512665 5.8429269,10.469682 5.795058,10.37369 5.7739275,10.299356 c -0.033174,-0.116684 -0.052909,-0.13736 -0.1443804,-0.151292 -0.05828,-0.0089 -0.1088112,-0.01379 -0.1123133,-0.01093 -0.00355,0.0029 0.00663,0.06301 0.022609,0.133655 0.065663,0.291124 -0.033163,0.63154 -0.2192883,0.755432 l -0.1050489,0.06992 0.1377112,0.05344 c 0.075743,0.0294 0.2038605,0.09675 0.2847087,0.149681 0.089846,0.05881 0.1745535,0.09041 0.2178733,0.08127 0.038984,-0.0083 0.1859777,-0.03126 0.3266607,-0.05116 z m 5.6663975,-0.266037 c -0.01065,-0.06629 -0.02178,-0.08398 -0.02977,-0.04709 -0.01216,0.05614 0.01006,0.153256 0.03504,0.153256 0.0064,0 0.004,-0.04777 -0.0053,-0.106161 z M 5.0362567,10.695264 c 0.073401,-0.09624 0.2053938,-0.46879 0.2087219,-0.589125 5.229e-4,-0.01891 -0.076216,-0.06146 -0.1705451,-0.09456 C 4.8672189,9.938869 4.7886056,9.875883 4.7886056,9.78258 4.7886056,9.744 4.7363356,9.500054 4.672459,9.240486 4.531551,8.667953 4.4292824,8.159901 4.4292824,8.032427 c 0,-0.052955 0.029306,-0.1216245 0.066811,-0.1565703 0.06681,-0.062244 0.06681,-0.062251 -0.1044577,-0.2162342 C 4.0322096,7.3364674 3.7583536,7.2842543 3.5597994,7.5010251 3.3833305,7.6936851 3.3138697,7.9253458 3.3120442,8.327334 c -0.00201,0.443217 0.086036,0.790867 0.3080693,1.216354 0.2788286,0.534326 0.6194929,0.90968 1.0674019,1.176097 0.1961264,0.116655 0.2436108,0.113319 0.3487449,-0.02453 z m 5.8024923,-0.248597 c 0.323039,-0.110536 0.663623,-0.311982 0.817167,-0.483329 0.178872,-0.199614 0.396814,-0.582577 0.554413,-0.974206 0.06828,-0.16967 0.124143,-0.311751 0.124143,-0.315737 0,-0.004 -0.09923,0.041 -0.220496,0.09996 -0.121273,0.05897 -0.279295,0.116038 -0.351161,0.126826 -0.105274,0.01581 -0.07863,-0.0023 0.137193,-0.09346 0.461313,-0.194734 0.487103,-0.230846 0.598842,-0.838506 0.03339,-0.1815414 0.07515,-1.0253542 0.04412,-0.8912067 -0.01755,0.075843 -0.0091,0.0768 -0.20849,-0.02372 -0.04805,-0.024226 -0.06602,-0.022065 -0.06791,0.00816 -0.002,0.032699 -0.0059,0.032756 -0.01906,2.614e-4 -0.0091,-0.022458 -0.03082,-0.040833 -0.04835,-0.040833 -0.01753,0 -0.02237,0.018375 -0.01077,0.040833 0.01159,0.022458 -0.0086,0.00418 -0.04504,-0.040619 -0.05161,-0.063552 -0.0696,-0.070731 -0.08191,-0.032666 -0.04426,0.1368983 -0.05117,0.1322551 -0.03405,-0.022866 0.01029,-0.093308 0.01931,-0.388847 0.02001,-0.6567554 0.0012,-0.46634 -0.03685,-0.7252187 -0.106693,-0.7252187 -0.053,0 -0.465559,0.1636691 -0.516244,0.2048036 -0.0414,0.033592 -0.04598,0.030739 -0.02794,-0.017378 0.01829,-0.048789 0.008,-0.054425 -0.06738,-0.036946 -0.04893,0.011346 -0.125711,0.042881 -0.170627,0.070085 -0.06756,0.040913 -0.06281,0.029574 0.02741,-0.065612 0.123369,-0.1301512 0.346704,-0.2595924 0.55292,-0.3204625 0.151319,-0.044666 0.15122,-0.044113 0.05119,-0.2834992 -0.03782,-0.090523 -0.05541,-0.1044692 -0.09267,-0.073532 -0.02531,0.020998 -0.06362,0.027291 -0.08515,0.013986 -0.02389,-0.014762 -0.03059,-0.010364 -0.01721,0.011287 0.0343,0.05549 -0.932981,0.5996611 -0.980841,0.5518011 -0.0064,-0.0064 0.04614,-0.037701 0.116762,-0.069548 0.08102,-0.036533 0.135535,-0.086295 0.147717,-0.1348329 0.01065,-0.042311 0.04895,-0.092791 0.08517,-0.1121772 0.03623,-0.019387 0.05733,-0.049041 0.04691,-0.065901 -0.01041,-0.016859 0.0039,-0.021898 0.03176,-0.011204 0.03259,0.012509 0.0507,0.00108 0.0507,-0.032015 0,-0.034584 0.01783,-0.044626 0.05435,-0.03061 0.0363,0.01393 0.04659,0.00829 0.03097,-0.016984 -0.01529,-0.024725 -0.0058,-0.031099 0.02731,-0.018389 0.02796,0.010731 0.0507,0.00237 0.0507,-0.018635 0,-0.020948 0.01304,-0.030033 0.02896,-0.020188 0.01594,0.00984 0.04794,-0.00496 0.07112,-0.032892 0.08451,-0.1018296 0.225102,-0.1476212 0.423801,-0.1380361 0.107119,0.00517 0.194769,0.019687 0.194769,0.032265 0,0.012578 0.02979,0.017132 0.06621,0.010116 0.04224,-0.00813 0.05813,3.266e-4 0.04389,0.023355 -0.01475,0.023868 0.0015,0.029864 0.04809,0.017692 0.03872,-0.010128 0.08005,-0.00283 0.09182,0.016235 0.01384,0.022396 0.0052,0.02487 -0.02447,0.00699 -0.0376,-0.02266 -0.03856,-0.018607 -0.0053,0.022458 0.0223,0.027559 0.0299,0.063455 0.01687,0.079769 -0.01301,0.016313 -0.0033,0.012 0.02156,-0.00958 0.03824,-0.033176 0.0337,-0.073589 -0.02938,-0.2613287 -0.138845,-0.4132311 -0.108867,-0.3884499 -0.27483,-0.2271493 -0.155477,0.1511067 -0.557884,0.3807234 -0.667225,0.3807234 -0.03642,0 -0.10777,0.034658 -0.158553,0.077017 -0.2294,0.1913451 -0.9732,0.5640809 -1.2445415,0.6236772 -0.058,0.012737 -0.105439,0.033569 -0.105439,0.046292 0,0.012722 0.07144,0.093497 0.158754,0.1794985 0.3194055,0.3146025 0.5023995,0.8347344 0.5150915,1.4640704 0.0093,0.4611544 0.03362,0.5095463 0.326347,0.6492501 0.22321,0.106529 0.26331,0.143212 0.118623,0.10852 -0.134561,-0.03227 -0.275098,-0.107788 -0.375662,-0.2018754 -0.08592,-0.080385 -0.08983,-0.081081 -0.08983,-0.015987 0,0.09269 0.199046,0.2603964 0.446483,0.3761874 0.165373,0.07739 0.264915,0.09933 0.519379,0.114516 0.222776,0.01329 0.298656,0.02781 0.259579,0.04968 -0.03037,0.01699 -0.175195,0.02471 -0.321834,0.01714 -0.3314,-0.01711 -0.581214,-0.110372 -0.791522,-0.295492 -0.09228,-0.08123 -0.161253,-0.121392 -0.168928,-0.09837 -0.04135,0.124056 -0.298139,0.384649 -0.4476235,0.454257 -0.229451,0.106844 -0.805122,0.112214 -1.078163,0.01006 -0.219462,-0.08211 -0.25587,-0.06427 -0.45008,0.220586 -0.121377,0.178027 -0.147051,0.162712 -0.06885,-0.04107 0.01504,-0.0392 0.0099,-0.04991 -0.0162,-0.03377 -0.02102,0.01299 -0.03821,0.0062 -0.03821,-0.01497 0,-0.07288 -0.09167,0.03377 -0.17808,0.207167 -0.05848,0.11735 -0.08354,0.221041 -0.08424,0.348475 -8.07e-4,0.147546 -0.0077,0.169907 -0.03679,0.11977 -0.0896,-0.154264 0.03739,-0.604769 0.241416,-0.856514 0.122797,-0.151515 0.162174,-0.266354 0.118993,-0.347038 -0.05619,-0.104986 -0.01171,-0.4628563 0.07753,-0.6239275 0.06928,-0.1250474 0.08605,-0.1360131 0.205143,-0.1342253 0.07133,0.00107 0.170117,0.01369 0.219524,0.028041 0.06876,0.019973 0.08983,0.014958 0.08983,-0.021384 0,-0.1083487 -0.317823,-0.2536 -0.554899,-0.2536 -0.06522,0 -0.144982,-0.019289 -0.177223,-0.042864 -0.05518,-0.04035 -0.05555,-0.051929 -0.0061,-0.1974282 0.04761,-0.1402261 0.04776,-0.1636758 0.0017,-0.2527924 -0.04081,-0.078912 -0.06492,-0.093904 -0.122596,-0.076235 -0.03949,0.012096 -0.09018,0.036694 -0.112632,0.054661 -0.05646,0.045168 -0.05112,0.2295325 0.01041,0.3584825 0.05006,0.1049638 0.04822,0.1133982 -0.08178,0.3766564 -0.347069,0.7028485 -0.517144,1.2547135 -0.548019,1.7782445 -0.01636,0.277522 -0.0098,0.338263 0.05345,0.494105 0.147035,0.362268 0.419218,0.517414 1.151522,0.656376 0.258859,0.04912 0.299987,0.04304 0.274014,-0.04051 -0.0093,-0.02993 -0.0027,-0.07647 0.01451,-0.103416 0.02409,-0.03756 0.03166,-0.02612 0.03242,0.049 0.0012,0.112546 0.02835,0.160041 0.098,0.171135 0.04088,0.0065 0.04722,-0.03581 0.03829,-0.255191 -0.0078,-0.192634 0.005,-0.306666 0.04798,-0.426229 0.08765,-0.243728 0.148457,-0.266168 0.07412,-0.02736 -0.06208,0.199467 -0.0892,0.71454 -0.03789,0.71983 0.01348,0.0014 0.222947,0.03013 0.465493,0.06388 0.5517905,0.07676 1.0177375,0.06331 1.3135605,-0.03791 z m -4.6175115,0.0078 c 0.0836,-0.05296 0.0065,-0.235174 -0.1840251,-0.434917 C 5.9379014,9.915428 5.8441786,9.830239 5.8289472,9.830239 c -0.075601,0 0.037599,0.543439 0.127579,0.612489 0.061049,0.04685 0.199606,0.053 0.2647113,0.01171 z M 3.5776231,9.679044 C 3.5853131,9.671944 3.5531441,9.581794 3.5061151,9.478697 3.4590981,9.375599 3.3949617,9.219533 3.3635843,9.131882 L 3.3065463,8.972516 3.1819239,9.106117 C 3.061653,9.235054 3.0345514,9.321594 3.0528802,9.518171 c 0.00899,0.09651 0.09756,0.17627 0.2120062,0.190962 0.100979,0.01296 0.2852624,-0.0048 0.312732,-0.03009 z M 6.5665775,9.517577 C 6.6768205,9.407329 6.5949135,9.190676 6.3598455,8.970801 6.0921954,8.720445 6.0824086,8.720086 5.9668891,8.956381 5.8141263,9.268854 5.8071151,9.349377 5.9253381,9.43356 6.1032114,9.560216 6.4751995,9.608957 6.5665775,9.51758 Z M 13.18302,9.215404 c -0.03551,-0.09344 -0.06456,-0.199142 -0.06456,-0.234882 0,-0.03574 -0.01469,-0.06498 -0.03267,-0.06498 -0.0444,0 -0.04143,0.215999 0.0043,0.304309 0.04349,0.08418 0.132557,0.190481 0.147269,0.175769 0.0057,-0.0057 -0.01874,-0.08677 -0.05425,-0.180214 z M 3.1369051,8.693605 c 0.093868,-0.05701 0.096057,-0.06457 0.1015942,-0.35167 0.00308,-0.161375 0.016055,-0.326177 0.028761,-0.3662264 0.044367,-0.1397762 -0.032607,-0.071148 -0.1656316,0.1476784 -0.157681,0.259389 -0.2560678,0.507998 -0.228978,0.578592 0.025745,0.0671 0.1462628,0.06329 0.2642539,-0.0084 z M 13.21646,8.379957 c 0,-0.232601 -0.06799,-0.5215399 -0.176645,-0.7506852 -0.06822,-0.1438759 -0.0774,-0.1517778 -0.09483,-0.081666 -0.01065,0.042693 -0.02933,0.2116614 -0.04161,0.3754861 -0.02049,0.2735351 -0.01573,0.3122211 0.05822,0.4736581 0.06652,0.145183 0.09571,0.176616 0.167693,0.180506 0.08554,0.0046 0.08716,9.74e-4 0.08716,-0.197299 z M 6.3075825,8.242222 c 0.138945,-0.144444 0.424616,-0.3317038 0.565884,-0.3709403 0.170079,-0.047238 0.370537,-0.039886 0.444842,0.016315 0.120559,0.091186 0.160431,0.051936 0.371394,-0.3655858 0.166135,-0.3288044 0.198544,-0.4171316 0.167001,-0.4551393 -0.0621,-0.074823 -0.0934,-0.3088019 -0.05312,-0.3971816 0.04112,-0.090262 0.180315,-0.1714409 0.293953,-0.1714409 0.0867,0 0.154538,0.064539 0.223205,0.2123296 0.08342,0.1795342 0.440863,0.2196876 0.828795,0.093102 0.272591,-0.088949 0.342993,-0.1554506 0.342993,-0.3239888 0,-0.1229956 -0.0098,-0.1447731 -0.06533,-0.1447731 -0.05046,0 -0.06533,0.021778 -0.06533,0.095628 0,0.1538239 -0.138985,0.242476 -0.342777,0.2186403 -0.179893,-0.021041 -0.649298,-0.2359973 -0.926321,-0.4241936 -0.139976,-0.095093 -0.20549,-0.1187369 -0.329009,-0.1187369 -0.472927,0 -0.910056,-0.4098523 -1.062871,-0.9965477 -0.05389,-0.206903 -0.04355,-0.2778162 0.01843,-0.1264873 0.142816,0.3486272 0.270685,0.5830286 0.386719,0.7089109 0.23544,0.2554225 0.648566,0.3773539 0.900674,0.2658286 L 8.1368825,5.90038 7.9647665,5.8728335 c -0.237314,-0.03798 -0.384386,-0.1050726 -0.450065,-0.2053117 -0.08088,-0.1234284 -0.09806,-0.3465104 -0.03594,-0.4666213 0.04885,-0.094477 0.05937,-0.09864 0.207052,-0.081994 0.138191,0.015576 0.150114,0.012067 0.106658,-0.031388 -0.08569,-0.085694 -0.186533,-0.1245749 -0.32309,-0.1245749 -0.159277,0 -0.176354,-0.049718 -0.02548,-0.0742 0.168496,-0.027343 0.279275,0.00814 0.409312,0.1311223 l 0.120351,0.113817 0.293994,-0.019033 c 0.938584,-0.060763 1.8174075,-0.3814703 2.4064975,-0.8781987 0.171098,-0.1442718 0.321122,-0.351219 0.321122,-0.4429662 0,-0.033115 0.02313,-0.1281094 0.05141,-0.2110932 0.03627,-0.1064568 0.07234,-0.1551255 0.122498,-0.1653027 0.0391,-0.00793 -0.0078,-0.0097 -0.104221,-0.0039 -0.219106,0.013144 -0.49083,0.1461456 -0.643233,0.3148395 -0.132458,0.1466141 -0.1464,0.1240781 -0.02959,-0.047822 0.04557,-0.067059 0.159494,-0.165886 0.253163,-0.2196066 0.09367,-0.053714 0.155606,-0.097288 0.13764,-0.096826 -0.01797,4.673e-4 -0.06941,0.021864 -0.114336,0.047538 -0.04491,0.025674 -0.102316,0.047206 -0.127562,0.047845 -0.07023,0.00177 0.04599,-0.1148569 0.162589,-0.1631506 0.103405,-0.042829 0.110728,-0.075755 0.07496,-0.3367043 -0.01349,-0.098435 -0.03334,-0.1432162 -0.05717,-0.1289526 -0.02008,0.01202 -0.01646,-0.00284 0.0081,-0.033056 0.02449,-0.030205 0.0574,-0.046958 0.07313,-0.037245 0.04949,0.030584 -0.0081,-0.09194 -0.154437,-0.3287171 -0.13409,-0.2168385 -0.644461,-0.733231 -0.8698095,-0.8800179 -0.04943,-0.032204 -0.189081,-0.071295 -0.310328,-0.086876 -0.366494,-0.047112 -0.400327,-0.054707 -0.482242,-0.1083853 -0.0434,-0.02843 -0.08472,-0.051702 -0.09183,-0.051702 -0.0071,0 -0.02182,0.07501 -0.03268,0.1666775 -0.03385,0.2858206 -0.265543,0.5841115 -0.454012,0.5845209 -0.06775,1.467e-4 -0.156004,-0.1585613 -0.156004,-0.2805217 0,-0.074122 -0.01414,-0.060315 -0.09026,0.088213 -0.04964,0.096862 -0.117483,0.2165246 -0.150754,0.2659327 -0.05988,0.088923 -0.05978,0.089834 0.0099,0.089834 0.09941,0 0.320522,0.1188996 0.36069,0.1939554 0.01856,0.034689 0.03375,0.095619 0.03375,0.1353888 0,0.063462 -0.0091,0.058789 -0.07448,-0.038203 -0.0937,-0.1390469 -0.1974,-0.1920435 -0.376981,-0.1926551 -0.118122,-4.035e-4 -0.167187,0.021485 -0.300842,0.1341831 -0.167915,0.1415883 -0.251837,0.1499068 -0.283686,0.028123 -0.01439,-0.055003 -0.02757,-0.044461 -0.08194,0.065426 -0.07972,0.161131 -0.220814,0.2746841 -0.5807,0.467357 -0.414394,0.2218533 -0.6696404,0.2736478 -0.5869287,0.1190997 0.035221,-0.065805 -0.011358,-0.093395 -0.050507,-0.029957 -0.011358,0.018374 -0.1050016,0.07598 -0.208109,0.128031 C 5.5607584,3.3860452 5.3272159,3.3998037 5.305178,3.2630485 5.297248,3.2137595 5.277398,3.2305605 5.21661,3.3380935 5.141683,3.470625 5.14134,3.4739366 5.20868,3.4142385 5.3225887,3.3132367 5.3181402,3.3703102 5.1975924,3.5574888 5.0551357,3.7786053 5.0070006,3.9939799 5.0219245,4.3434975 5.0310345,4.5555621 5.0489465,4.640649 5.0990635,4.708768 5.1800475,4.8188405 5.1916775,4.8195692 5.246061,4.717958 5.342035,4.5386268 5.3851671,4.621579 5.4294937,5.0707483 L 5.4514167,5.292874 5.5397957,5.208197 C 5.5884101,5.1616278 5.6623916,5.05048 5.7042065,4.9612049 L 5.7802336,4.7988865 5.6947652,4.7094251 C 5.64776,4.6602205 5.5635008,4.5219558 5.5075287,4.4021686 5.4217528,4.218595 5.4057689,4.1455087 5.4057689,3.9370187 c 0,-0.1360454 0.015073,-0.2732328 0.033482,-0.3048635 0.030927,-0.05311 0.033612,-0.052507 0.035186,0.00781 0.010766,0.413515 0.030028,0.5429103 0.1050252,0.7051467 0.083611,0.1808718 0.2057452,0.3531064 0.229637,0.3238352 0.00734,-0.00898 0.052696,-0.085099 0.1008134,-0.1691472 0.098731,-0.1724636 0.1104321,-0.3232496 0.038475,-0.4954699 -0.061072,-0.1461646 -0.06364,-0.220501 -0.00461,-0.1348043 0.085811,0.1246697 0.1176254,0.2976189 0.1410133,0.7667553 0.027732,0.5561778 0.021,0.827161 -0.024017,0.967111 -0.021154,0.065742 -0.021568,0.1305735 -0.00118,0.1841622 0.017297,0.045487 0.047561,0.2272292 0.06726,0.4038721 0.056376,0.505639 0.1711117,0.5892609 0.3334927,0.2430679 0.04185,-0.089227 0.08656,-0.1628335 0.09933,-0.1635698 0.01278,-7.35e-4 0.03958,0.059303 0.05952,0.1334207 0.0883,0.3279215 0.273606,0.6161788 0.523183,0.8138472 l 0.131621,0.1042489 -0.01981,-0.2242673 c -0.02126,-0.2407134 -0.0046,-0.2426784 0.121861,-0.014384 0.03061,0.055244 0.07012,0.1004442 0.08784,0.1004442 0.03967,0 0.08212,-0.2644339 0.06055,-0.3772452 -0.0099,-0.052115 -0.0023,-0.078229 0.02075,-0.070655 0.05912,0.019436 0.06239,0.3021091 0.0047,0.4135298 -0.05681,0.1098737 -0.08093,0.1196157 -0.145665,0.05887 -0.03586,-0.033651 -0.04013,-0.022663 -0.02425,0.062483 0.01229,0.065902 0.0039,0.1160732 -0.02318,0.1385432 -0.05531,0.045905 -0.28793,-0.1053856 -0.476382,-0.3098304 -0.127766,-0.13861 -0.294013,-0.4365426 -0.294729,-0.5281851 -4.68e-4,-0.059786 -0.05554,-0.049816 -0.104635,0.018944 -0.02347,0.032876 -0.08311,0.086016 -0.132517,0.118088 -0.08264,0.053645 -0.09614,0.054178 -0.168659,0.00666 C 6.0884473,6.6555043 6.0725462,6.5958901 6.0318044,6.160127 6.0152526,5.9831458 5.994832,5.8314556 5.98642,5.8230379 5.97802,5.8146279 5.945011,5.8519339 5.91309,5.9059579 5.7908579,6.1128808 5.4758023,6.3225876 5.2382443,6.3551488 5.117499,6.3716982 5.0637535,6.3559328 4.8410283,6.2386319 4.6993607,6.164021 4.5181865,6.0580733 4.4384196,6.0031923 l -0.1450299,-0.099784 -0.05427,0.076922 c -0.144765,0.2052096 -0.3571616,0.830774 -0.3173213,0.934597 0.010056,0.026298 0.045148,0.034986 0.092851,0.023012 0.048011,-0.012051 0.091774,-9.996e-4 0.1171522,0.029585 0.033257,0.040067 0.02856,0.055221 -0.026171,0.084514 -0.083256,0.044558 -0.1390647,0.1450741 -0.1151527,0.207399 0.00994,0.026 0.074643,0.072749 0.1436907,0.1038871 0.069058,0.031138 0.180824,0.1132207 0.2483799,0.1824042 0.067556,0.069184 0.1374107,0.116776 0.1552344,0.1057611 0.017818,-0.011015 0.024088,-0.00657 0.013925,0.00988 -0.036085,0.058391 0.060386,0.1354271 0.1886148,0.1506145 0.3093755,0.036642 0.8646713,0.1718821 1.0529193,0.2564328 l 0.2041633,0.0917 v 0.146375 c 0,0.242522 0.027874,0.274705 0.1272572,0.146954 0.046792,-0.06014 0.129173,-0.155197 0.183071,-0.211229 z M 5.9227376,8.004501 C 5.8596065,7.9346209 5.7977839,7.8454085 5.7853565,7.8062497 5.7643443,7.7400614 5.7598366,7.7390451 5.7212552,7.7918038 5.682307,7.8450618 5.6721795,7.843874 5.556692,7.7724965 5.3259215,7.6298728 5.2560443,7.3182756 5.3946996,7.0501448 c 0.079269,-0.1533012 0.1148333,-0.108015 0.042888,0.054625 -0.04917,0.1111526 -0.060315,0.1827991 -0.043728,0.280989 0.022799,0.1349519 0.186206,0.3572158 0.2302452,0.3131774 0.013334,-0.013336 0.028111,-0.1069987 0.032831,-0.2081389 0.010648,-0.2280968 0.061995,-0.2946562 0.093466,-0.121169 0.040735,0.2244994 0.2741991,0.6474627 0.3277978,0.593864 0.011003,-0.01105 0.038226,-0.1284271 0.060398,-0.2608407 0.022172,-0.1324133 0.054565,-0.2365302 0.071981,-0.2313706 0.0473,0.014012 0.02479,0.4110903 -0.03087,0.544277 -0.026656,0.0638 -0.069555,0.115997 -0.095336,0.115997 -0.02578,0 -0.098518,-0.05717 -0.1616493,-0.127054 z M 8.1680125,3.882944 c -0.07102,-0.072975 -0.195276,-0.1772746 -0.276125,-0.2317764 -0.138437,-0.093324 -0.160314,-0.098021 -0.37566,-0.080606 -0.125764,0.010175 -0.278405,0.028501 -0.339202,0.040735 -0.183007,0.036842 -0.107439,-0.060043 0.0968,-0.1241184 0.315906,-0.099098 0.523789,-0.06823 0.765877,0.1137449 0.147916,0.1111893 0.309507,0.3048646 0.309507,0.3709689 0,0.072714 -0.0457,0.050283 -0.1812,-0.088948 z M 8.1042225,3.089018 C 7.9024115,2.9313441 7.5974775,2.9044234 7.3626915,3.023556 c -0.04852,0.024621 -0.104505,0.044757 -0.124426,0.044757 -0.06379,0 8.76e-4,-0.064291 0.131886,-0.1311308 0.271839,-0.1386825 0.749558,-0.056435 0.841265,0.1448443 0.04747,0.1041852 0.01953,0.1060072 -0.10719,0.00698 z M 10.586847,2.9376453 c 0.03252,-0.035931 0.06648,-0.065332 0.07546,-0.065332 0.009,0 -0.01029,0.0294 -0.04279,0.065332 -0.03252,0.035931 -0.06648,0.065332 -0.07546,0.065332 -0.009,0 0.01029,-0.0294 0.04279,-0.065332 z M 7.0687045,8.517014 c 0.106977,-0.106978 -0.02442,-0.32371 -0.245873,-0.405541 -0.09046,-0.03343 -0.113567,-0.0254 -0.281915,0.098 -0.100861,0.07393 -0.183589,0.143324 -0.183853,0.154217 -2.62e-4,0.0109 0.08405,0.05839 0.18735,0.105539 0.201078,0.09178 0.456972,0.115104 0.524291,0.04779 z m 2.754125,-0.0804 c 0.160577,-0.06425 0.3066165,-0.247153 0.3893555,-0.4876374 0.07238,-0.2103948 0.08843,-0.7647337 0.0297,-1.0260677 -0.04384,-0.1950371 -0.191401,-0.5825078 -0.231215,-0.6071145 -0.0174,-0.010755 -0.1190495,-0.00941 -0.2258895,0.00299 l -0.194254,0.022544 v 0.1432748 c 0,0.1918437 -0.115791,0.3184398 -0.375659,0.4107123 -0.20663,0.073369 -0.599816,0.098758 -0.786312,0.050775 -0.08702,-0.022388 -0.105096,-0.015327 -0.136336,0.053229 -0.03551,0.077925 -0.03316,0.07936 0.165655,0.1016451 0.361089,0.040473 0.639859,0.2211635 0.598073,0.3876527 -0.02495,0.099398 -0.15952,0.15738 -0.424027,0.1826975 l -0.20104,0.019242 v 0.2181225 c 0,0.1682294 0.01533,0.2392134 0.06702,0.3103284 0.08592,0.118183 0.327146,0.238973 0.545744,0.273268 0.227469,0.03569 0.621157,0.0076 0.779175,-0.05567 z m -0.161408,-0.06823 c -0.01617,-0.03144 -0.02203,-0.07922 -0.01301,-0.106165 0.009,-0.02695 0.0047,-0.0381 -0.0096,-0.02478 -0.04806,0.04482 -0.113638,-0.04763 -0.113638,-0.160181 0,-0.0614 0.03082,-0.1720395 0.06848,-0.2458694 0.08218,-0.1610922 0.4885795,-0.581763 0.5090455,-0.5269249 0.0079,0.021206 -0.08204,0.1649424 -0.1999045,0.3194136 -0.223152,0.2924683 -0.273494,0.4109987 -0.145454,0.3424732 0.121712,-0.065139 0.150838,0.012595 0.06834,0.1823985 -0.03952,0.08134 -0.07185,0.176893 -0.07185,0.212345 0,0.07983 -0.05298,0.08401 -0.09244,0.0073 z M 9.1658675,6.5317841 c 0,-0.045501 -0.330862,-0.2621966 -0.400337,-0.2621966 -0.07661,0 -0.519161,-0.1551117 -0.560497,-0.1964467 -0.04087,-0.040866 -0.149814,-0.042133 -0.149814,-0.00174 0,0.045102 0.530633,0.3574866 0.727781,0.4284454 0.184669,0.066467 0.382867,0.083003 0.382867,0.031941 z M 5.4092662,6.20175 C 5.5768511,6.1260483 5.7823821,5.9401884 5.85804,5.7959287 5.9193373,5.6790581 6.0015473,5.3810054 5.9787735,5.3582323 5.9465809,5.3260326 5.8514773,5.3268146 5.8119683,5.3596047 5.7534395,5.4081823 5.7032635,5.364491 5.7032635,5.2649364 V 5.1787914 L 5.5955408,5.2831979 C 5.4098636,5.4631637 5.3439345,5.4177651 5.3439345,5.1099425 c 0,-0.095876 -0.00887,-0.1973591 -0.019652,-0.2255179 -0.016717,-0.043581 -0.027957,-0.040928 -0.075542,0.017835 -0.055879,0.069005 -0.05595,0.068977 -0.1758679,-0.071121 C 5.0068906,4.7540546 4.9429905,4.6382531 4.9308718,4.5738028 L 4.9088422,4.456621 4.7741787,4.7342828 C 4.6956907,4.8961123 4.6219068,5.0082 4.5973051,5.0029685 c -0.023213,-0.00493 -0.032938,0.00602 -0.021604,0.02436 0.011358,0.018335 -0.017522,0.050706 -0.064113,0.071935 -0.071934,0.032775 -0.093159,0.029368 -0.1406726,-0.022572 -0.052956,-0.057892 -0.052897,-0.058864 0.00118,-0.018127 0.1140287,0.085859 0.2003619,-0.113074 0.1169865,-0.2695693 -0.035399,-0.066452 -0.033932,-0.067878 0.022763,-0.022047 0.038771,0.031342 0.051466,0.03377 0.035198,0.00673 -0.013984,-0.023245 -0.00923,-0.061832 0.010648,-0.085749 0.028418,-0.034243 0.018622,-0.043485 -0.046082,-0.043485 -0.1072496,0 -0.1889591,-0.069812 -0.1693715,-0.1447154 0.00852,-0.032697 0.0097,-0.059448 0.0026,-0.059448 -0.038924,0 -0.1591304,0.1312413 -0.2243982,0.2449957 -0.082049,0.1430027 -0.1683007,0.5866248 -0.1377325,0.708418 0.030974,0.123418 0.310897,0.4001455 0.6069045,0.599979 0.4425578,0.2987712 0.5553691,0.3274119 0.8195591,0.2080713 z M 4.4252007,5.0500531 c -0.00225,-0.011978 -0.00615,-0.032802 -0.00864,-0.046278 -0.00248,-0.013475 -0.018208,-0.04655 -0.034855,-0.073499 -0.026135,-0.042298 -0.022704,-0.042867 0.024999,-0.00416 0.060469,0.049049 0.077033,0.00633 0.019758,-0.050945 -0.025579,-0.025573 -0.024159,-0.042528 0.00509,-0.060579 0.026147,-0.016159 0.032275,-0.011666 0.01725,0.012646 -0.012825,0.020742 -0.00722,0.037713 0.012399,0.037713 0.01964,0 0.030867,0.036194 0.02494,0.080431 -0.010411,0.07732 -0.052436,0.1496841 -0.060883,0.1046774 z m 4.9693288,1.128337 c 0,-0.014226 -0.06247,-0.084943 -0.138832,-0.157151 l -0.13883,-0.1312859 -0.449159,0.013358 c -0.523537,0.015571 -0.571686,0.052624 -0.216877,0.1668986 0.311291,0.1002573 0.943698,0.1727532 0.943698,0.1081803 z m 0.195996,-0.00177 c 0,-0.039776 -0.291042,-0.2990191 -0.335697,-0.2990191 -0.02063,0 0.03489,0.073499 0.123368,0.1633305 0.155171,0.1575407 0.212329,0.1940672 0.212329,0.1356886 z m 0.049,-0.1683594 C 9.5031675,5.8698159 9.3945345,5.8038399 9.3945345,5.8594666 c 0,0.008 0.06983,0.081153 0.155164,0.1625732 0.211804,0.2020754 0.290544,0.1899974 0.08983,-0.013778 z M 9.2322745,5.7611189 C 10.112063,5.5942258 10.866629,5.1930984 11.498333,4.5564817 11.906595,4.1450457 11.981158,4.0377087 12.103013,3.6860281 12.265325,3.2175873 12.298539,2.7601719 12.217835,2.1046627 12.173425,1.7438594 12.032,1.3829474 11.869048,1.2145118 11.812558,1.1561248 11.758143,1.1083507 11.748126,1.1083507 c -0.01006,0 -0.01287,0.179183 -0.0064,0.3981838 0.01575,0.5284509 -0.06876,1.2245884 -0.195089,1.6069681 -0.261618,0.7919384 -0.797339,1.3661684 -1.5968265,1.7116201 -0.623659,0.2694789 -1.323448,0.3877524 -2.360124,0.3988921 -0.04105,4.411e-4 -0.02728,0.2785141 0.01633,0.3296237 0.09298,0.1089663 0.19641,0.1730395 0.342975,0.21247 0.222208,0.059782 0.956853,0.056927 1.283233,-0.00498 z M 5.9959831,5.1943305 5.9946817,5.0772777 5.9469666,5.1871928 c -0.057996,0.1335946 -0.058103,0.124192 0.0013,0.124192 0.034677,0 0.048626,-0.034216 0.047715,-0.1170543 z m 6.2813349,0.1048892 c -0.04043,-0.00778 -0.106575,-0.00778 -0.146997,0 -0.04043,0.00778 -0.0073,0.014156 0.07349,0.014156 0.08084,0 0.113922,-0.00637 0.07349,-0.014156 z m 0.01415,-0.1137353 c -0.01041,-0.026058 -0.01817,-0.018318 -0.01973,0.019735 -0.0014,0.034436 0.0063,0.053729 0.01715,0.042874 0.01089,-0.010849 0.01201,-0.03903 0.0026,-0.062609 z M 5.9215793,4.7281592 c -0.010411,-0.026058 -0.018173,-0.018318 -0.019734,0.019735 -0.00142,0.034436 0.00627,0.053729 0.017155,0.042874 0.010885,-0.010849 0.012009,-0.03903 0.0026,-0.062609 z M 12.484158,4.5627872 C 12.628074,4.376482 12.914275,3.8876564 13.021937,3.6442688 13.194913,3.2532275 13.232933,3.0233752 13.23067,2.3823259 13.22897,1.9118336 13.2158,1.7314154 13.171,1.567633 13.10355,1.3210207 12.996966,1.0988314 12.957741,1.1230734 c -0.01516,0.00935 -0.03748,0.116466 -0.04962,0.2379828 -0.07425,0.7438052 -0.21888,1.5280506 -0.314568,1.7056778 -0.01499,0.027815 -0.05272,0.1093791 -0.08386,0.1812428 -0.03113,0.071862 -0.117921,0.2262131 -0.192869,0.3429938 -0.07494,0.1167854 -0.166193,0.2804357 -0.202778,0.3636762 -0.06644,0.1511774 -0.06644,0.1515052 -0.0019,0.2939949 0.03554,0.078457 0.09381,0.2198221 0.129486,0.3141455 0.03568,0.094323 0.07503,0.1714969 0.08746,0.1714969 0.01242,0 0.0822,-0.077174 0.155062,-0.1714969 z M 4.4630226,4.1704934 C 4.68688,3.9534305 4.8238909,3.7859178 4.9504145,3.5745974 5.0472171,3.4129222 5.170673,3.2179257 5.2247698,3.1412715 5.2870136,3.0530702 5.3308007,2.9421317 5.3440102,2.8391107 c 0.011476,-0.089538 0.015582,-0.1627898 0.00911,-0.1627898 -0.061155,0 -0.5115276,0.5532869 -0.7843945,0.9636497 C 4.3178754,4.017223 4.0769054,4.473284 4.1287377,4.4726951 4.1413377,4.4725644 4.2917676,4.3365611 4.4630332,4.1704934 Z M 4.9662919,3.8196343 c 0.020078,-0.063888 0.016954,-0.073401 -0.014363,-0.043669 -0.022018,0.020894 -0.045183,0.1090952 -0.051489,0.1959963 -0.010056,0.1385844 -0.00828,0.1439522 0.014363,0.043669 0.014209,-0.062883 0.037375,-0.1510804 0.051489,-0.1959963 z m 6.1268831,-0.097998 c 0.01923,-0.035931 0.02761,-0.065332 0.01863,-0.065332 -0.009,0 -0.03206,0.0294 -0.0513,0.065332 -0.01923,0.035931 -0.02761,0.065332 -0.01863,0.065332 0.009,0 0.03206,-0.0294 0.0513,-0.065332 z M 5.817542,3.1336866 C 5.9905124,3.0146792 6.107693,2.8774129 6.2119525,2.6716654 c 0.0923,-0.182142 0.156179,-0.2009406 0.205179,-0.060386 0.02986,0.08567 0.01982,0.1255381 -0.07822,0.3103279 -0.06186,0.1166198 -0.102257,0.2120346 -0.08974,0.2120346 0.07705,0 0.639669,-0.3104214 0.768909,-0.4242336 0.134431,-0.1183839 0.155165,-0.1533982 0.155165,-0.2620391 0,-0.1495909 0.06699,-0.4570403 0.09958,-0.4570403 0.02637,0 0.145371,0.2660723 0.178977,0.4001585 0.01239,0.049407 0.03254,0.089834 0.04478,0.089834 0.0307,0 0.256848,-0.2150444 0.409232,-0.3891377 l 0.126167,-0.1441406 -0.01969,-0.3673766 c -0.01672,-0.3119476 -0.01214,-0.3702705 0.03032,-0.3865656 0.07321,-0.028087 0.161779,0.030442 0.203507,0.134492 0.04858,0.1211346 0.135764,0.4659823 0.135764,0.5370071 0,0.067698 0.04312,0.099583 0.103215,0.076323 0.0709,-0.027448 0.186842,-0.2194789 0.239427,-0.3965524 0.04476,-0.1506876 0.0438,-0.1839687 -0.01134,-0.3941612 C 8.6389055,0.8673037 8.5083485,0.682314 8.3862245,0.6869412 l -0.08595,0.00331 0.08166,0.026159 c 0.06131,0.01964 0.06642,0.026963 0.0205,0.029412 -0.04931,0.0026 -0.05363,0.012328 -0.02231,0.050069 0.03042,0.036653 0.02772,0.063805 -0.01245,0.1251063 -0.02822,0.043065 -0.04023,0.089373 -0.02669,0.1029075 0.01354,0.013535 0.0026,0.019711 -0.02438,0.013724 -0.02695,-0.00603 -0.04563,0.00651 -0.04153,0.027874 0.0052,0.026869 -0.03993,0.034949 -0.146998,0.026312 -0.38069,-0.030698 -0.477053,-0.055957 -0.570732,-0.1496399 l -0.09299,-0.092993 -0.170037,0.06674 c -0.09352,0.0367117 -0.264617,0.1168206 -0.380217,0.1780374 -0.115602,0.061214 -0.217602,0.1038776 -0.226673,0.094803 -0.02777,-0.027768 0.392641,-0.4167812 0.593244,-0.5489283 0.103984,-0.0685024 0.287728,-0.1590428 0.408326,-0.2012138 0.300048,-0.1049188 0.139778,-0.1038185 -0.254388,0.001775 -0.314401,0.0842024 -0.695033,0.2440722 -0.734977,0.3087023 -0.01201,0.0194386 -0.04793,0.0270579 -0.07981,0.0169422 -0.03196,-0.0101748 -0.07638,0.003786 -0.099,0.031045 C 6.4853675,0.8397955 6.4591495,0.8247344 6.3283715,0.6865346 6.2135615,0.5652096 6.1341722,0.5139865 5.9999145,0.4746065 5.9025325,0.4460461 5.8163504,0.4291867 5.8083915,0.437149 c -0.015984,0.015984 0.476333,0.3446348 0.516268,0.3446348 0.03778,0 0.06505,0.091561 0.04379,0.1469975 -0.01029,0.026951 -0.04091,0.048993 -0.06795,0.048993 -0.02702,0 -0.118157,0.057783 -0.2025149,0.1284154 C 5.9817077,1.203536 5.8917103,1.333079 5.7259581,1.6416559 5.5062226,2.0507291 5.4766695,2.1427141 5.5435002,2.2095448 c 0.025934,0.025934 0.026443,0.067142 0.00177,0.1453636 -0.033241,0.1055576 -0.1359886,0.7595691 -0.1359886,0.8656568 0,0.080428 0.2391114,0.02959 0.4082686,-0.086793 z m 5.051023,-0.3027454 c -0.03226,-0.032015 -0.03601,-0.028265 -0.01829,0.018291 0.01227,0.032216 0.03054,0.050342 0.04059,0.040285 0.01006,-0.010056 2.1e-5,-0.036416 -0.0223,-0.058576 z M 5.0580793,2.7211125 c 0.067485,-0.034902 0.08987,-0.070668 0.08987,-0.1436303 0,-0.053441 -0.0097,-0.097158 -0.021627,-0.097158 -0.032796,0 -0.5336956,0.2977077 -0.5336956,0.317196 0,0.031838 0.3752609,-0.029767 0.4654581,-0.076406 z M 5.9791107,0.9575282 c 0.047455,-0.018208 0.046911,-0.024656 -0.00544,-0.064338 -0.1078056,-0.081789 -0.3579153,-0.030252 -0.3947658,0.081339 -0.012316,0.037292 0.01867,0.04187 0.166138,0.024538 0.099701,-0.011713 0.2050092,-0.030418 0.2340157,-0.041539 z M 8.2103905,0.6611705 c -0.03144,-0.00816 -0.08289,-0.00816 -0.114336,0 -0.03144,0.00816 -0.0057,0.014943 0.05717,0.014943 0.06288,0 0.0886,-0.00674 0.05717,-0.014943 z"
     style="fill:#000000;stroke-width:0.03266608" />
</svg>
