<svg xmlns="http://www.w3.org/2000/svg" stroke-miterlimit="1.414" stroke-linejoin="round" clip-rule="evenodd" fill-rule="evenodd" viewBox="0 0 16 16"><path d="M8.024.006A7.987 7.987 0 0 0 .037 7.992a7.987 7.987 0 0 0 7.987 7.987A7.987 7.987 0 0 0 16.01 7.99 7.987 7.987 0 0 0 8.024.006zM4.974 2.68c.195.015.39.124.545.322.335.427.324.613-.05.988-.375.374-.563.385-.99.05-.397-.313-.43-.77-.08-1.118.174-.174.376-.255.573-.24zm-.635 2.056h1.123l.035 3.47.033 3.474h-.568c-.343 0-.593-.064-.63-.16-.033-.087-.047-1.648-.028-3.47zm2.375 0h1.878c1.803 0 1.902.014 2.59.352 2.564 1.26 2.63 4.71.12 6.185-.56.328-.67.346-2.555.386-1.57.033-1.983.007-2.035-.128-.036-.093-.05-1.66-.03-3.483zm1.188 1.19v4.627h.908c.5 0 1.123-.062 1.388-.135 1.93-.536 2.21-3.438.407-4.256-.373-.17-.812-.233-1.608-.235z"/></svg>