<svg xmlns="http://www.w3.org/2000/svg" viewBox="0 0 16 16" fill-rule="evenodd" clip-rule="evenodd" stroke-linejoin="round" stroke-miterlimit="1.414"><path d="M5.006 15.26c-.724-.316-.722-.29-.722-7.258 0-7.008-.006-6.946.747-7.26.59-.247 5.35-.247 5.94 0 .752.314.746.252.746 7.26 0 7.01.006 6.947-.747 7.262-.58.242-5.406.238-5.964-.005zm3.536-.71c.178-.273.18-.336.027-.61-.134-.237-.26-.306-.57-.306-.31 0-.436.07-.57.306-.153.274-.15.337.028.61.14.214.3.303.542.303.242 0 .402-.09.542-.303zm2.477-6.896V2.197H4.98v10.915h6.04zm-2.004-6.24c.036-.11-.214-.146-1.006-.146-.973 0-1.188.06-.973.275.145.145 1.927.028 1.98-.13z"/></svg>