<svg xmlns="http://www.w3.org/2000/svg" viewBox="0 0 158.75 211.66666" height="800" width="600"><path d="M72.83 23.09l.96-2.138V18.15l-.075-1.622.96-2.507 1.4-1.99v2.36l-.392 5.344 1.092.96.107.954-.195 1.162-1.718 1.828z" fill="#9e6975" fill-rule="evenodd"/><path d="M76.075 12.03l2.69-1.033 2.95-.516.887-.027.99 4.17-.26 1.982v1.512l3.694.84 1.407.783.73 2.398-.104 1.408-2.665.283-3.487-1.692-2.428-.042-1.304.06-1.363.26-1.296.526V20.73l-.958-1.032z" fill="#b6726f" fill-rule="evenodd"/><path d="M73.697 25.45L76 25.356l.997-.074.036.48-.792.11s-.24.11-.35.148c-.11.038-.442.462-.442.462l-.184.405v.48h-.22l-.333-.148-.183.294-.37-.35-.386-.203-.147-.09z" fill="none"/><path d="M89.7 21.43l-.527 3.632-.706.886-.764-.044-1.344-.79-.14-.278-.725-.227.88-.592.033-.635 2.45.157.104-1.408z" fill="#bd8482" fill-rule="evenodd"/><path d="M91.385 24.522l1.558-.98 1.053.162 1.862-.187 1.382-.528 1.694.602-1.266.88-.683.3-1.755-.15-1.382.277-1.156-.102z" fill="#6a2353" fill-rule="evenodd"/><path d="M77.365 23.422l-1.106.626-.777.373.186.255.21.207.6.105.627.123.738-.066-.596-1.032z" fill="#5e2743" fill-rule="evenodd"/><path d="M76.748 25.265l.432-.116.462.065-.032.385-.45.015-.572-.41" fill="#310b19" fill-rule="evenodd"/><path d="M77.642 25.215l.235.006.202.21.298.156-.645.052-.726.06-.27.025.01-.458.458.302.365-.007z" fill="#240c15" fill-rule="evenodd"/><path d="M77.2 25.215l1.27-.278.717.154-.23.288-.168.143-.066.04-.346.026-.415-.067-.05-.206z" fill="#3a0b21" fill-rule="evenodd"/><path d="M76.517 22.942l.848.48 7.224 1.25-3.37-1.054-.47-.313-.286-.704v-.78l-1.408-.053-1.538.72z" fill="#bc7d71" fill-rule="evenodd"/><path d="M80.464 21.82l2.45-.053 3.494 1.616.312.704-1.225.522-.964.077-.824-.307-3.346-.58.793-.19-.402-.305-.326-.668z" fill="#bc7d71" fill-rule="evenodd"/><path d="M86.032 25.518l-2.326-1.138-3.54-.59-2.285-.368h-.515l-.258.59.738 1.032 1.4-.08 1.07-.215 1.644.105 1.862.34z" fill="#472139" fill-rule="evenodd"/><path d="M82.602 10.453l1.934.526 1.18.257 1.05.13.885-.02 1.126-.313 1.622-.35.09.43.595.435 1.71.46.338.302-1.202 2.114-.977 2.544.167 1.75 2.25.075.92 1.05-2.25.775-1.824.332-1.25 1.18-.73-2.398-1.408-.782-3.494-.835v-1.512l.262-1.98z" fill="#d5908c" fill-rule="evenodd"/><path d="M90.398 10.684l1.458.12 2.138-.247 1.187.034 1.616.085v.508l-2.098.508-1.017-.207-.73.69-.038.08-.118-.242-1.862-.404-.645-.46z" fill="#d899a4" fill-rule="evenodd"/><path d="M96.796 10.675l.836.696-.315.36-.364.51-1.565.82-.43 1.44-.612 1.714.162.92.072.462-1.214 1.2-2.25-.075-.165-1.75.978-2.544 1.087-1.954-.064-.298.73-.69 1.018.207 1.985-.57z" fill="#eeafac" fill-rule="evenodd"/><path d="M97.582 11.327l1.39 1.238.99 1.225.627.965.468 1.068.47 1.226-.183.702.052.835.287.704v1.017l-.886-.573-.47-2.477-.365-2.033-1.12-2.112-.287-.443-.6-.262-.652-.417.013-.26z" fill="#c8a1aa" fill-rule="evenodd"/><path d="M97.317 11.73l-.364.51-1.565.82-1.042 3.154.234 1.382-1.214 1.2.92 1.05.58.044.86-2.007.066-2.477 1.304-2.398 1.46-.34-1.252-.677z" fill="#fbc9cc" fill-rule="evenodd"/><path d="M98.556 12.67l.287.442 1.12 2.112.835 4.51-.21.704.262.834.56.912 1.004 1.017.26.796-.338.313-.99.077-.9.026-.913-.313-.6-.508.535-.64-.313-.638-.326-.573-.56-.846-1.057-.874-1.186-.26-1.16.13.86-2.007.065-2.477.652-1.2.652-1.198.73-.17z" fill="#fbd4d4" fill-rule="evenodd"/><path d="M78.673 25.56l1.054-.02v-.136l.213-.212-.17-.12-.583.02-.287.32z" fill="#29022d" fill-rule="evenodd"/><path d="M79.77 25.07h.603l-.004.26-.22.142-.126.056-.296.013v-.136l.052-.212z" fill="#662117" fill-rule="evenodd"/><path d="M80.248 24.947l1.1.134.12.226-.04.19-.17.106-1.234-.075.177-.26z" fill="#240531" fill-rule="evenodd"/><path d="M75.264 26.887l-.092.61v1.027l-.276.74-.2-.244-.117-1.16-.053-.346z" fill="#2e0308" fill-rule="evenodd"/><path d="M74.696 29.02l.434 1.457.397-.34-.033-.176-.175-.792-.148-.643-.365.554z" fill="#3e0d1f" fill-rule="evenodd"/><path d="M75.527 30.136l.22.66-.177.356-.177-.094-.354-.64z" fill="#6c1a23" fill-rule="evenodd"/><path d="M75.393 31.058l.124.327.18-.033.17-.3-.12-.257-.21.263z" fill="#753c5a" fill-rule="evenodd"/><path d="M75.517 31.385l.203.452.175-.116.25-.215-.277-.452-.2.25z" fill="#682c38" fill-rule="evenodd"/><path d="M75.72 31.837l.323.424.28.272.254-.225.162-.074-.38-.35-.216-.378z" fill="#5f122e" fill-rule="evenodd"/><path d="M76.74 32.233l.27.18.058.115-.16.058-.07.155.127.22-.355-.175-.286-.253.253-.225z" fill="#91532b" fill-rule="evenodd"/><path d="M77.01 32.412l.377.15.542.18.288.07.47.085-.017.213-.246.445-.575-.06-.467-.167-.418-.37-.13-.217.073-.154.16-.058z" fill="#420532" fill-rule="evenodd"/><path d="M78.607 32.827l.82.176.83.027 1.222-.018.364.05.216.02.035.207-.247.19-.974.026-1.112.1-.628-.106-.396.182-.61-.17.543-.402z" fill="#49243c" fill-rule="evenodd"/><path d="M81.48 33.012l1.003-.046.326-.088.533-.25.566-.435.112-.075.264.452-.578.352-.082.17-.496.15-.465.132-.418.138-.525-.03.294-.243-.022-.117-.213-.022z" fill="#52232b" fill-rule="evenodd"/><path d="M84.022 32.118l.597-.61.29-.628.356-.515v.458l.207.02.295-.283-.546.967-.368.578-.725.515z" fill="#401933" fill-rule="evenodd"/><path d="M85.266 30.365l.322-.658.205-.583.126-.63-.04-.46.04-.484.294 1.075.132.094.076.338.05.214.1.238-.565.893-.314.615-.47.51.27-.54.156-.243-.205.148-.224.015z" fill="#441740" fill-rule="evenodd"/><path d="M85.92 27.55l-.52-.665-.47-.634-.675-.196-.64-.194-.137-.286 1.695.48.86.51.852.22.693.07.368.054-.154.427-.054.16-.213.266-.853.16-.178-.035-.148.834h-.163z" fill="#432c4b" fill-rule="evenodd"/><path d="M86.572 29.51l.33-.86.16-.303.268-.328.39-.152h.267l.276.106.284.24.186.125.678-.62-.765-.154-.286-.217-.24-.202h-.293l-.09.346-.21.232-1.033.16-.18.817.098.456z" fill="#300a30" fill-rule="evenodd"/><path d="M83.66 25.875l-.907-.122-.892-.075-.6-.076.168-.107v-.19l-.33-.393 1.07.194-.2.17-.133.113-.03.106.273-.063.97.11.514.103z" fill="#542441" fill-rule="evenodd"/><path d="M80.164 26.884l-.314.195-.245.395v.44l.063.257.2.258.183.182.144.274.44.024.496.02.354-.255.025-.27v-.12l-.26-.27-.37.176-.15-.1-.057-.075-.075-.03.17-.127.558.075.233-.175.137-.158.063-.34v-.187l-.113-.22-.333-.12-.628-.034-.446.16z" fill="#281525" fill-rule="evenodd"/><path d="M79.85 27.08l-.622.23-.27.17-.258.246-.088.113-.037.13.207.234.226.125.24.093.29.126.513.062-.382-.44-.063-.257v-.44z" fill="#aea7ab" fill-rule="evenodd"/><path d="M81.647 26.853l.3.125.083.308v.27l-.056.252-.283.408-.037.082v.42l-.282-.043.14-.27v-.12l-.26-.182-.37.088h-.188l-.157-.175-.063-.157h.767l.25-.15.2-.195.07-.252v-.187z" fill="#4f4566" fill-rule="evenodd"/><path d="M81.948 26.978l.497.183.308.19.163.213.025.27-.124.38-.462.126-.33.203-.37.176v-.422l.037-.082.284-.408.056-.252v-.27z" fill="#cbbac5" fill-rule="evenodd"/><path d="M82.445 27.16l-.685-.502h-1.206l-.456.066-.725.16-.993.19c-.075.01-.64.263-.64.263s-.378.427-.44.477a2.18 2.18 0 0 0-.264.314c-.05.076-.352.566-.352.566l.794-.01.668-.055.93-.05s.397-.037.447-.037c.05 0-.276-.12-.276-.12l-.672-.452.037-.13.346-.36.27-.17.622-.23.478-.233.358-.107.628-.007.634.245z" fill="#362925" fill-rule="evenodd"/><path d="M81.76 26.658l.98.05 1.104.172.24.57.522.365.006.3-.374.336-.706.068-1.2.16-.68.04.702-.38.462-.124.125-.38-.024-.27-.163-.215-.308-.19z" fill="#8d4752" fill-rule="evenodd"/><path d="M83.657 27.173l.776-.212.125-.336-.338-.41-1.404-.452.8.098.64.16.675.23.64.516.35.784-.012.53-.96-.337-.45.134-.413-.427z" fill="#7b4954" fill-rule="evenodd"/><path d="M83.657 27.173l.776-.212.125-.336-.338-.41-1.303-.452-1.658-.16-1.236-.074-1.3.032-.346.026-1.07.203.248.194.995.267.872.16.55.25.174.07.408-.072h1.206l.98.05z" fill="#b07776" fill-rule="evenodd"/><path d="M81.804 25.496l-.05-.107.07-.12.433-.306.307.16-.295.24-.19.12z" fill="#412a4f" fill-rule="evenodd"/><path d="M82.564 25.125l1.357.132.667.082.68.124.426.227-.434.196-1.578-.342-1.128-.098-.474.037z" fill="#421d23" fill-rule="evenodd"/><path d="M80.146 26.73l-1.764.347-.643.26-.477.53-.58.827-.522.302-.79.39-.198-.86v-1.03l.138-.95.08-.44.648-.297 1.108-.144 1.232-.08-1.07.203.248.194 1.866.426z" fill="#97534e" fill-rule="evenodd"/><path d="M85.693 25.69l.78.34.564.226.24.075 1.284-.187.64.15.966-.59.785-.104-.043.33-.785.35-.572.252-.986.387-.207.2-.237.028h-.293l.053-.24-.995-.124-.924-.214-.834-.515-1.564-.41-1.482-.162.465-.094 1.244.123 1.523.276z" fill="#49243a" fill-rule="evenodd"/><path d="M75.37 29.387l1.314-.693 2.777-.164.59.082.322.176.263.006.735-.12.283.045.635-.05-.83.476-1.37.088-2.35-.2-.4.25-.403.365z" fill="#632d38" fill-rule="evenodd"/><path d="M82.288 28.67l1.47.166.8.07.124.232.098.57-.018.307-.037.413-.106 1.08.394-.622.308-.628.28-.57.254-.567.08-.513-.028-.526-.96-.337-.45.134.114.24-.49.263-.59.138z" fill="#6a2641" fill-rule="evenodd"/><path d="M77.105 29.48l.28.16.38.17 1.243-.023 1.554.5 1.262-.535.25-.43.214-.653-.83.476-1.37.088-2.35-.2-.4.25z" fill="#9c697f" fill-rule="evenodd"/><path d="M82.074 29.322l1.232.3.263.39.364.49.842-.564.02-.284-.114-.516-.124-.23-2.27-.24z" fill="#815154" fill-rule="evenodd"/><path d="M82.074 29.322l1.32.257.54.923.842-.565-.06.648-1.793 1.235-1.377.5-1.884-.072-2.053-.258-.676-.302-.71-.613-.697-.94-.157-.748 1.565.262.17-.17.697.018 1.176.264 1.3.125.942-.25z" fill="#a36869" fill-rule="evenodd"/><path d="M84.717 30.586l-.098.922-.49.54-.787.58-.534.25-.327.088-1.004.046-1.227.018-.827-.027-.737-.106-.4-.065-.36-.09-.523-.165-.397-.165-.27-.18-.38-.35-.216-.377-.276-.452-.12-.258-.22-.66.695.487.71.71.676.445 1.954.41h1.92l1.368-.48z" fill="#b37b7f" fill-rule="evenodd"/><path d="M83.706 24.38l.825.307.965-.078.726.226.14.277 1.343.79 2.018.076-.52.314-.63.05-1.347-.013-.752-.275-.777-.364-.427-.226-2.702-.34-.396-.018-.82-.025-.975-.01-1.186.02-.717.033-1.27.092-.452.05-3.152.222.753-.724.876-.18.443.092.257.148 1.18.22h.738l1.4-.257.998-.06 1.583.023 1.874.328 1.923.298z" fill="#7e3858" fill-rule="evenodd"/><path d="M76.517 22.942l.973.48-1.23.626-.59.48v.147l-.7-.037-.5.213-.773.6-.663-.56-.134-.38-.222-.267-.204-.507v-.49l.357-.156 2.14 1.548z" fill="#784d62" fill-rule="evenodd"/><path d="M90.166 25.703l1.037-.19 1.155-.16-.713.366-.505.333-.233-.124v-.302z" fill="#6e262b" fill-rule="evenodd"/><path d="M92.358 25.353l1.13-.142 1.19-.046.214.26.07.214-1.19.053-.81.09-.932.124-.524.15-.39-.114.425-.25z" fill="#2f1136" fill-rule="evenodd"/><path d="M91.506 26.055l-.51.113-.403.163-.414.196-.278.17-.176.176-.132.29-.088.325v.532l.02.22-.334-.445-.188-.132-.088-.326.283-.352.35-.453.528-.3.83-.303.207.01z" fill="#5e3062" fill-rule="evenodd"/><path d="M89.55 26.532l-1.143.34-.287.276.15.267.375.15-.054-.146.103-.152.125-.187.12.015.177-.13h.107l-.13-.217-.012-.035z" fill="#635444" fill-rule="evenodd"/><path d="M89.55 26.532l-.52.183.192.25z" fill="#3b0554" fill-rule="evenodd"/><path d="M89.222 26.966h-.107l-.177.13-.12-.015-.227.34.055.146.266.542-.026-.187.12-.257-.088-.326z" fill="#1d0136" fill-rule="evenodd"/><path d="M94.677 25.164l.787-.02.265.218.312.07-.063.166-.045.035-.973.005-.196-.214z" fill="#8c2236" fill-rule="evenodd"/><path d="M95.464 25.144h1.31l1.717.053-.263.223-.358.183-.53-.007-.445-.03-.916.032v-.165l-.427-.07z" fill="#61105c" fill-rule="evenodd"/><path d="M97.027 25.164l.615.23.442-.175z" fill="#8c2236" fill-rule="evenodd"/><path d="M95.148 26.784h-1.27l-.23.25-.134.23-.027.31v.382l.213.24.25.294.24.133.203.098.222.063.41-.15.035-.188-.303-.09v-.336l.143-.26.204-.212.124-.08.285.062.106-.204v-.267l-.187-.187z" fill="#441731" fill-rule="evenodd"/><path d="M95.024 28.632l.364-.24.045-.133-.054-.25.07-.258.143-.15.106-.196.035-.285-.302-.247.186.186v.266l-.107.204-.285-.062-.124.08-.204.213-.143.26v.336l.303.09z" fill="#846f8a" fill-rule="evenodd"/><path d="M93.878 26.784h-.524l-.347.168-.346.17-.684.515-.346.408-.267.196.31.205.517.062.284-.248.142-.366.098-.328.222-.23.302-.1.276.027z" fill="#802e50" fill-rule="evenodd"/><path d="M92.19 28.507l.72.178.568.018.915.018-.444-.23-.463-.534v-.382l.027-.31-.276-.027-.302.098-.222.23-.24.694z" fill="#c5b3ae" fill-rule="evenodd"/><path d="M95.433 26.873l.777.3.477.277.692.59-.53.252-.426.2-.377.09-.7.105-.732.096.41-.15.363-.24.045-.134-.054-.25.07-.258.143-.15.106-.196.035-.285z" fill="#f6e9fc" fill-rule="evenodd"/><path d="M92.28 27.406l-.18-.17.107-.31.72-.302.782-.098.8-.027.934.07.344.072.88.408.48.276.604.648.444.258-.817-.192-.693-.59-.477-.277-.777-.3-.285-.09h-1.794l-.693.338z" fill="#945162" fill-rule="evenodd"/><path d="M92.943 23.542l-1.686-.028-1.12.48-.8.817-.89 1.128.997.046.888-.473.632-.333.78.022.614.153 1.13-.142 1.19-.046-.83-.265-1.156-.102-1.307-.276z" fill="#be899b" fill-rule="evenodd"/><path d="M92.372 32.732l-.196-.106-.22-.132-.173-.135-.255.106.063.225.195.317.14.038.393.167z" fill="#670c2b" fill-rule="evenodd"/><path d="M98.46 25.14l2.085.236.405.497-.678.348-.242.275-.39-.377-.414-.176-.352-.126-.453-.125-.55-.087z" fill="#2c093a" fill-rule="evenodd"/><path d="M100.545 25.376l1.143.076.063.226.127 1.18-.29.29-.162-.578h-.428l-.12-.386-.068-.405-.58-.077z" fill="#46002d" fill-rule="evenodd"/><path d="M101.588 27.148l-.327.226-.1.088-.062.402-.138.49-.597-.436-.082-.38v-.528l-.01-.2v-.14l-.24-.175.176-.314.025-.477.58.076.263.325-.076.465.54-.107z" fill="#3e1645" fill-rule="evenodd"/><path d="M100.28 27.538v.917l-.074.59-.03.428.168.298.204-.505.044-.29.223-.278.145-.343-.59-.552z" fill="#621f6a" fill-rule="evenodd"/><path d="M100.96 28.354l-.2 1.043-.202.817-.327.917-.44-.124.164-.578.114-.428.108-.527.168.176.176-.43v-.35l.276-.252z" fill="#630767" fill-rule="evenodd"/><path d="M99.79 31.006l-.2.39-.265.283-.338.417-.414.22-.182.157-.385.152.28.084.217.067.023.16.28-.116.368-.28.07-.106.067-.13.297-.402.26-.316.146-.173-.03-.356z" fill="#760858" fill-rule="evenodd"/><path d="M100.23 31.13l-.222.514-.204.288-.266.334-.263.27-.47.285.368-.28.03-.15.063-.15.338-.392.41-.435-.032-.356z" fill="#9b4f73" fill-rule="evenodd"/><path d="M98.005 32.626l-.873.21-.704.176-.65.07-.63-.017.276.373h.693l.977-.106.906-.196.525-.2v-.166l-.098-.167z" fill="#802e63" fill-rule="evenodd"/><path d="M95.148 33.065h-.968l.15.134.142.167.08.098.872-.027z" fill="#5b0647" fill-rule="evenodd"/><path d="M94.18 33.065h-.116l.196.39.312.01-.22-.256z" fill="#652731" fill-rule="evenodd"/><path d="M91.783 32.36l-.473-.462-.428-.603-.465-.723-.402-.704-.355.205.073.21v.038l.3.604.315.56.283.47.353.396.37.37.497.327.383.132c.58.173.777.254.103-.026l-.41-.11-.14-.112-.176-.298v-.14z" fill="#4e1d4f" fill-rule="evenodd"/><path d="M94.12 33.065l-.69-.013-.45-.133-.524-.166-.23-.07.092.528.574.186.31.063.525.018.533-.022z" fill="#73094d" fill-rule="evenodd"/><path d="M90.015 29.868l-.25-.78-.164-.514-.075-.333-.18-.165-.002.86-.12-.373-.312-.454-.177.23.334.714.49.948.176.32v-.163z" fill="#571653" fill-rule="evenodd"/><path d="M89.525 28.24l-.286-.52-.236-.057-.12.258.027.188.3.53.127.42h.094l-.074-.924z" fill="#47495d" fill-rule="evenodd"/><path d="M89.444 25.984l.277-.005.446-.277 2.192-.35-.604-.257h-.8l-.657.302z" fill="#c38987" fill-rule="evenodd"/><path d="M97.127 24.604l1.316.38 1.02.33 2.225.138v-.34l.553-.615h-.54l-1.205.502-.792-.227-.628-.39-.327-.376.314-.277-.128-.138-1.266.88z" fill="#b18383" fill-rule="evenodd"/><path d="M93.716 24.886l.96.278.788-.02 1.563.02.91.05.554.037.974.064-.973-.42-1.363-.29-.238.044-1.66-.025z" fill="#b69292" fill-rule="evenodd"/><path d="M99.062 23.73l-.314.277.327.377.628.39.792.225 1.206-.503h.54l.096-.188-1.89.103-.913-.313-.6-.508z" fill="#e2afa8" fill-rule="evenodd"/><path d="M89.7 21.43l.513-.478 1.825-.332 2.25-.774.58.044 1.16-.13 1.185.26 1.056.874.56.847.382.607.256.606-.534.64-1.694-.604-1.382.527-1.862.187-1.053-.162-1.686-.028-1.12.48-.964 1.068z" fill="#f7c6c2" fill-rule="evenodd"/><path d="M95.477 26.588l.96.107.728.32.507.364.457.36.404.385-.338.107-.444-.258-.605-.648-.48-.276-.88-.408z" fill="#d89fac" fill-rule="evenodd"/><path d="M95.477 26.588l1.155-.07.738.328.746.55.613.463.248.24-.25.496-.47-.062-.275-.062-.79.115-.4.276-.746-.282.377-.087.955-.453.816.192.338-.107-.862-.746-.507-.365-.728-.32z" fill="#c76f88" fill-rule="evenodd"/><path d="M94.51 26.5l-1.912-.374-1.092.25-.747.425-.365.632-.222.72.177.924.205.373.204-.694.515-.72.088.205.267-.195.346-.408.303-.23-.18-.17.107-.31.72-.303.782-.098z" fill="#b97e73" fill-rule="evenodd"/><path d="M90.555 29.45l.977.825.747.57.923.497.78-.107.623-.39.365-.658.08-.613v-.338l.623-.036h.622l.284-.23.212-.107-.745-.282-1.432.203-.222-.062-1.484-.035-.72-.178-.516-.062-.31-.204-.09-.204-.515.72z" fill="#aa6680" fill-rule="evenodd"/><path d="M93.203 31.342l1.252.364.46.04.73.004.632-.63.328-.685.134-.773.096-.346.614-.053.773-.018.444-.4.062-.25-.747-.123-.79.115-.4.276-.214.106-.285.23h-.656l-.59.036v.338l-.08.613-.364.657-.622.39z" fill="#e3979e" fill-rule="evenodd"/><path d="M95.646 31.75l1.217-.09.622-.365.54-.14.786-.52.108-.653-.27-.318-.425-.42-.773.02-.614.052-.097.346-.135.773-.328.685z" fill="#fcd5d6" fill-rule="evenodd"/><path d="M92.216 26.215l-.71-.16-.51.113-.398.162-.42.196-.276.17-.176.176-.132.29-.088.325v.534l.02.22.075.334.415 1.294.407.728.47.724.21.29.208.288.236.23.237.23.173.136.416.238 1.057.32.634.013h1.084l.63.018.57-.117.61-.402.772-.742-.163-.207-.704.044-1.217.09-1.203-.08-1.24-.328-.924-.498-1.725-1.395-.205-.374-.177-.924.222-.72.364-.63.746-.427z" fill="#cd9b9a" fill-rule="evenodd"/><path d="M98.978 28.1l.4.443.83.49-.032.44-.108.54-.277.993-.2.39-.603.7-.596.378-.385.152-1.577.386-.65.07.57-.116.61-.402.772-.742-.163-.207-.704.044.622-.365.54-.14.786-.52.108-.653-.695-.737.444-.4.062-.25z" fill="#fac4b5" fill-rule="evenodd"/><path d="M91.506 26.055l.71.16.382-.09 1.91.374.97.088 1.154-.07.738.328.637.478.578-.2.766-.566.29-.44-.64-.28-.58-.147-.55-.087-.975-.038-.916.033-1.018.04-1.19.053-.813.085-.93.13z" fill="#ce9090" fill-rule="evenodd"/><path d="M99.64 26.118l.39.377.24.176.01.868v.917l-.07.578-.832-.49-.4-.444-.25-.24-.72-.536.577-.2.766-.566z" fill="#fddfdf" fill-rule="evenodd"/><path d="M84.424 33.858v.452l-.22.076-.32.188-.233.34-.23.295.062.333-.09.288.152.403.277.276.327.244.32.29.27.018.368-.142.298.31-.49.347-.376-.176-.415-.27-.44-.382-.345-.29-.32-.357-.107-.508.075-.578.478-.666.22-.29.238-.307z" fill="#7e4251" fill-rule="evenodd"/><path d="M87.33 28.02l-.097 2.285-.508 1.58-.426 1.67-.374.96-.16 1.01-.142.5-.458-.712-.306-.817-.605.116.17-.754-.33-.57.836-.64.747-1.21.657-.887.098-.416.14-.624.33-.86.16-.303z" fill="#a24e45" fill-rule="evenodd"/><path d="M87.33 28.02l.39-.152h.267l.276.106.284.24-.027 1.644.107 1.6v1.012l.675.942.835.728.32.516.07.337-.71.64-.728.515-.357.48-.533.285-.71-.054-.75-.306-.228-.14-.426-.266-.462-.124.302-1.51.373-.96.763-3.2z" fill="#da8c87" fill-rule="evenodd"/><path d="M88.547 28.214l.186.125 1 1.98.898 1.634.724.767.496.327.114.03.36.6.283.64v.428l-.604-.23-.835-.357-.16-.533v-.995l-.604-.675-.55-.96-.623-1.368-.688-1.14z" fill="#d8909f" fill-rule="evenodd"/><path d="M88.542 28.487l.69 1.14.62 1.368.552.96.604.675v.995l.16.533 1.44.587.195.39.09.41v.284l-.197.336-.426.267h-.285l-.48-.23-.408-.108h-.267l-.426.267-.32.302-.196.25-.323.197-.76.3.373-.693.48-.73.16-.354.71-.64-.07-.337-.32-.516-.836-.728-.675-.942-.107-2.612V28.72z" fill="#f9cbbb" fill-rule="evenodd"/><path d="M89.888 36.913l.517-.12.502-.183h.377l.59-.1.11-.077-.478-.23-.41-.108h-.266l-.426.267-.32.302z" fill="#c45594" fill-rule="evenodd"/><path d="M87.176 37.452l-.578-.406-.264-.147-.39-.19-.188-.163-.465-.113-.235-.1.003.263.132.2.44.09.276.037.622.47z" fill="#95285f" fill-rule="evenodd"/><path d="M86.698 36.51l.038.678.44.264.29.1.526.025.365-.063.447-.104.853-1.422.16-.355-.728.515-.357.48-.533.285-.71-.054z" fill="#f7bdb8" fill-rule="evenodd"/><path d="M86.736 37.188l-.038-.68-.612-.36-.462-.124-.338-.817-.426-.71-.436-.187-.22.076-.32.188-.465.635-.027.62.15.403.278.276.648.533.27.02h.283l-.23-.204v-.24l.123-.187.142-.098.135.1.566.112.188.163.39.19z" fill="#ac6676" fill-rule="evenodd"/><path d="M86.572 29.51l.01.454-.14.587-1.51 2.098-.742.746.234.464-.497-.03-.13.293-.722 1.105-.31-.462-.063-.39-.05-.213-.24-.12-.778.1-1.043.09-1.33.187-.842.082-.817-.227-1.287-.673.01-1.068.642.427.884.314.555.11.314.084 1.042.063 1.96-.05.547-.024.86-.214.295-.138.704-.484.665-.597.427-.496.66-.96.175-.278z" fill="#7e4251" fill-rule="evenodd"/><path d="M91.925 33.045l.398.633.284.64v.427l.196.39.09.41v.284l-.197.336.11.205.69.315.64.54.742.842.327.78.427.477.704.703.427.905.377.628.276-.754-.1-1.105-.176-.803v-.98l.327-1.282.25-.93.58-1.508-.378-.804-.278-.126-.548.065-.977.106h-.693l-.87.027-.294-.01-.533.023-.524-.017-.885-.248z" fill="#f6acac" fill-rule="evenodd"/><path d="M101.877 26.86l1.068-1.182v-.854l-.2-.377-1.057 1.005z" fill="#8f5c7a" fill-rule="evenodd"/><path d="M102.945 25.678l-1.068 1.18-.716.604-.2.892-.402 1.86-.327.917-.222.514-.47.622-.263.27-.47.285-.28.117-.525.2-.906.195.548-.065.277.126.376.804-.578 1.508-.578 2.21v.982l.15.663.126 1.246-.276.754.558.586.79.32h.813l1.182-.63.83-.778.954-1.66.403-1.607.1-1.783.05-1.785v-3.594l.125-1.08-.057-2.186-.07-.704-.225-.15h-.15z" fill="#fddfdb" fill-rule="evenodd"/><path d="M95.205 38.846l-.82-.12-1.493-.285-1.185-.275-.86-.24-.62-.39-.694-.445.355-.177 1.02-.303h.376l.59-.1.11-.077h.286l.426-.267.11.205.69.315.64.54.742.842z" fill="#f5bdb3" fill-rule="evenodd"/><path d="M73.623 26.87l-1.13-.726-.588-.444-.55-.32-.09-.338h.463l.302.23h.444l.173-.172.218-.11.17-.1.662.56z" fill="#b0a189" fill-rule="evenodd"/><path d="M77.6 34.273l.596 1.52-.358 2.026-.104 1.49v1.174l.497.71.57.392.533-.782.604-.782.445-.657.72-1.11 1.012-.81.845-.728.057-.616-.107-.508.075-.578-.22-.25.076-.454.126-.34-.49-.125-.88.1-1.1.152-1.205.113-.872.075z" fill="#c47d7c" fill-rule="evenodd"/><path d="M72.492 26.144l1.13.725.553.16.204.392.147.092.067.336.102 1.17.434 1.457.263.58.327.78.323.424.28.272.185.987 1.093.753.596 1.52-.215 2.02-.246 1.498v1.174l.497.71.57.392-.76.29-.67.23-.963-.558-.867-.503-.79-.83-.88-.94-.642-.83-.326-1.02-.026-1.38-.194-.73-.22-.917-.214-1.394v-1.08l.176-1.617.07-.728-.302-.447.088-.515-.17-.93.038-.464.176-.484.34-.132z" fill="#a66a66" fill-rule="evenodd"/><path d="M80.31 39.49l1.294-.286 1.088-.23.746-.373.73-.657.37-.542-.416-.27-1.105-1.03-.272.617-1.777 1.422z" fill="#be706f" fill-rule="evenodd"/><path d="M83.438 38.6l.977-.062.817-.564 1.156-.396.497-.168-.017-.07-1.238-.605-.402-.037-.173-.363-.142.098-.124.186v.24l.23.202.064.207-.214.163-.333-.032-.37.543z" fill="#83383e" fill-rule="evenodd"/><path d="M79.937 40.022l.816-.21 1.133-.08.364-.323.59.145.648-.323 1.1-.402.805-.762-.215-.1-1.74.633-.746.374-2.31.39z" fill="#7e4251" fill-rule="evenodd"/><path d="M86.472 37.527l.716.138.616.05.83.038.79-.012.767.14.428.316.516.336.74.19 1.144.225h.83l1.357-.1-2.313-.406-2.044-.515-1.315-.835-.73.32-.81.167-.528-.025-.597-.213z" fill="#daa5b3" fill-rule="evenodd"/><path d="M85.393 38.068l-.507.505-.933.614-1.362.237-1.142.332-.835.408-.587.605-.39.407V42.954l.33.993 1.038.678.373-.87.337-.32-.124-1.032.675-.497 2.328-.534 1.742-.485 1.312-.2 1.872-.2 1.12.342 2.074.34 1.27.344.347.25-.08.56.192.31.067.462.37 1.855 1.104-.352.493-.933.04-1.404v-.816l-.676-1.155-1.474-.872-1.348-.47-1.884-.416-.64-.216-.303-.437-.765-.14-.69.285-.25.202-.374.01-.39.044-.302-.212-.497-.303-.448-.238z" fill="#2e192b" fill-rule="evenodd"/><path d="M82.265 41.906l.835.373h.89l1.047.07-.515.178-.653.253-.254-.02-.516-.197z" fill="#42003d" fill-rule="evenodd"/><path d="M85.037 42.35l1.108.002h2.136l-.3.452-.628.654-.654.314H85.755l-.452-.138-.452-.19-.84-.426-.394-.26.906-.23z" fill="#a32c59" fill-rule="evenodd"/><path d="M88.28 42.352l1.032-.075 1.256-.088 1.872-.228-.263.365-.955 1.13-1.006.755-.628.25-.616.05-.804-.062-.73-.163-.677-.176-.577-.187-.427-.15h.942l.654-.315.628-.654z" fill="#c9487b" fill-rule="evenodd"/><path d="M89.588 44.463l.745-.06.72-.16.577-.31.524-.366.498-.524.515-.63.32-.285.275-.4.045-.124-.55.186-.365.098-.452.074-1.218 1.496-1.006.754z" fill="#eea3b7" fill-rule="evenodd"/><path d="M82.265 41.906l1.297-.142 1.227-.32 1.456-.32.764-.267.764-.106.337.143.16.266.144.32.088.444.018.355-.24.072-3.243-.002-1.937-.07z" fill="#bc6c7b" fill-rule="evenodd"/><path d="M88.11 40.893l.232.053.31-.115.33-.08h.32l.702.134.684.15-.426.17-.596.266.027.098.062.16.65.17.665-.037 1.226-.052h.507l1.004-.204-.55.186-.365.098-.452.074-1.935.242-2.224.148.24-.073-.018-.356-.088-.445-.143-.32z" fill="#d98ea1" fill-rule="evenodd"/><path d="M90.688 41.035l.854.123.93.14.78.124.555.182-1.004.204-2.4.09-.698-.113-.04-.315.495-.23z" fill="#e8a8a6" fill-rule="evenodd"/><path d="M82.265 41.906l1.297-.142 2.684-.64.764-.267.764-.106.337.143.232.053.31-.115.33-.08h.32l1.386.285 2.563.387.557.182-.045.124-.275.4.184-.058.16.027.08.06.172.175.267.054-.02-.622-.3-.338-1.316-.355-2.15-.373-1.12-.343-1.935.018-1.175.308-1.742.604z" fill="#690b3e" fill-rule="evenodd"/><path d="M82.265 41.906l.023.27-.025 2.01.26 1.313 1.147-.12.836.056.534-.074.316.108.312-.015.39-.188.263-.163.63-.15-.94-.586-1.568-.145-.578-.043-.293.054-.4-.17-.318-.372-.036-.827-.458-.893zM86.472 37.527l-1.08.54-.444.658-.995.462-1.26.338-1.245.23-.835.41-.978 1.012v1.777l-.658-.095-1.89-.42-1.107-.302-.93-.552-.88-.78-.577-1.005-.365-1.356 2.312 2.6.867.504.892.327h.74l.76-.29.526-.766.61-.798.78-.485.654-.125 1.47-.025.604-.315.992-.25.666-.516.076-.34.892-.33z" fill="#8f4853" fill-rule="evenodd"/><path d="M86.472 37.527l.45.238.656.64h1.03l.817-.664-.792.013-.804-.044-.642-.045z" fill="#7f395e" fill-rule="evenodd"/><path d="M90.19 37.88l.944.652-.64-.216z" fill="#a36a88" fill-rule="evenodd"/><path d="M93.018 38.947h.83l1.357-.1 1.13 1.18.428.905.377.628.558.586.79.32h.813l1.182-.63.83-.778.954-1.66.403-1.607-.146 1.075-.214.968-.22 1.1-.722 1.186-.853.852-1.244.32-.888-.107-.995-.71-.604-.57-.266-.46-.676-1.156-1.474-.872z" fill="#e1b5c6" fill-rule="evenodd"/><path d="M82.358 41.972l.05.947.177.825.267.355.435.347h.49l.665.043.745-.04.878-.016-1.15-.637-1.3-1.038-.515-.197z" fill="#996d82" fill-rule="evenodd"/><path d="M94.082 42.332l-.624.85-.653.728-.892.817-1.282.39-1.155.075h-.98l-1.546-.24-1.006-.564-1.03-.59-1.298-1.04 1.537.813.603.202.99.338 1.422.34.804.063.616-.05.745-.06.72-.16.577-.31.524-.366 1.013-1.155.32-.284.184-.058.16.027z" fill="#f9c4bc" fill-rule="evenodd"/><path d="M91.233 44.933l1.09.22.922-.2.263-.276.28-.818.085-1.232-1.068 1.282-.892.817z" fill="#b98294" fill-rule="evenodd"/><path d="M86.95 44.953l-.76.207-.64 1.214-.018.863.098 1.196 1.257 1.043 1.533.754 1.28-.93.705-1.256V46.41l-.377-.83-.335-.4-.218.012h-.98z" fill="#28232c" fill-rule="evenodd"/><path d="M71.354 25.38l.55.32.588.444.17.464-.25.2-.176.416-.026.464.14.93.024.49.213.44-.34 2.375v1.08l.215 1.395.414 1.646.026 1.382.326 1.018.365 1.357.578 1.006.88.78.93.552 3.655.816.39.924.676.214.783-.658.624.063-.126 1.572 1.245 1.492.675.71 1.122.013.586.125.022.81 2.028 2.023.635 1.948-.492 3.19-.434 2-1.143 1.756-1.274.93-1.305.468-1.106-.25-1.562-.524-1.455-.885-1.156-.9-.828-.507-.636-1.2-.89-.762-.91-1.446-.832-.727-.248-1.263-.38-1.438-.453-1.005v-.502l-.502-.553-.754-.955-.25-1.257-.554-1.86v-2.01l.25-1.86v-1.558l-.2-1.206v-1.86l.07-1.81.056-.74.075-1.17-.137-1.507-.383-1.35.152-2.048-.006-.592-.098-.317-.387-.286-.383-.514-.31-.133z" fill="#1e1b23" fill-rule="evenodd"/><path d="M73.697 25.45l-.074 1.42.332.146.203.148.22.258.388.287.498-.823.046-.34.11-.277.157-.176.46-.285.823-.098s-.002.01-.01-.092c-.01-.1-.102-.355-.102-.355l-2.323.078z" fill="#25141b" fill-rule="evenodd"/><path d="M101.085 62.042l.578-2.513.073-6.168 1.895 1.77.76 17.622 1.207 5.722.924 11.266.143 5.118.177 22.687-.497 21.31 4.087 25.092-1.923-2.684-3.123-4.85-.71-2.347.124-4.62.088-3.555-1.208-2.772 2.56-2.985-3.697 1.492-1.563-1.42v-1.565l2.488-3.34V129.12l.07-3.554-.355-2.7-2.63-4.48 1.138-3.624h1.066l2.345-11.3.213-5.403-.036-8.21-.598-.29.15-1.056-1.08-8.218-1.157-6.232V67.77l-.352-4.723h-.903l-2.413 4.297z" fill="#806780" fill-rule="evenodd"/><path d="M90.173 60.884l2.992-.42 1.582-.894 1.942-1.712.517-.937.21-.71 1.708-.752.88-1.885.578-.98.527-1.006.2-1.256.378-.552.428-.754.05-.678.578-.654v-.804l.327-1.307v-.627l.252-.88.05-.502.352-1.356.05-1.03V38.118l.176-1.684v-1.232l-.15-1.03v-.98l-.026-.402.252-.578v-.905l-.05-1.18-.05-.68.1-1.155v-.73l-.176-1.004.402-.528.452-.603-.955-.252-.503-.628-.176-.25-.395-.3-.34.312-.094.187.253.226.25-.276.202.377v.854l-.503.83.377.15.125 2.89-.126 1.08-.004 2.926-.147 4.237-.146 1.075-.152 1.84-.133 1.236-.446.98.095.7-1.232.83-.78.076-1.28-.05-.528-.63-.754-.602-.8-.983-.073.356.496 2.588h.828l.2.754-.542 2.173-.35 1.744-1.645.26-.39 1.592-.416 1.484-1.266.5-.585 1.472-.98 3.058-2.606-.026z" fill="#221922" fill-rule="evenodd"/><path d="M86.95 44.953l-.742.25-.578 1.233v1.784l-.075-.703h-.302l-1.655-.156-1.67-2.272.053-1.547-.497-.106.057-1.08.753-.486-.005.308.02.86-.045 1.15.49.993.917.2.64-.264.73-.163.35.126.278.162.39.025.263-.163z" fill="#1c2020" fill-rule="evenodd"/><path d="M101.11 51.587l-.075 1.91-.25 1.986-.948 3.32-.674 1.637-1.747.973-.402.27-.352.107-.653.63.502-1.283.552-.402.643-1.29.74-1.148.628-1.382.352-1.055.326-1.357.252-.93z" fill="#e3c8d3" fill-rule="evenodd"/><path d="M87.213 50.03l1.163.156 1.313-1.024.84-1.37.955-.52.95-.158 1.073-.735.434-.924.51-1.408.057-.952.656.462.818.16.408-.142.114-1.093 1.086 1.842 1 .623.267.622-.868 2.946-.427 2.062-1.066.284-.712 2.345-.22 1.347-1.532 1.28-.736 1.283v1.777l-2.203.853-.88 1.466-1.875-.133-2.15.23-.995-.568-1.552-.208 2.312-1.558.2-1.81.493-2.07.084-.445 1.133-2.46z" fill="#231e27" fill-rule="evenodd"/><path d="M85.63 48.22l1.206 1.2 1.822.836-1.382-.147z" fill="#281d35" fill-rule="evenodd"/><path d="M94.35 42.386l.14.213.05 1.448-.466 1.408-.36.93-1.124.954-1.23.604-.986.158.03-1.69.426-.16.782-.144 1.404-.515.47-.47.32-.614.045-.56-.123-.08.07-.596.076-.646.27-.385z" fill="#2a1f27" fill-rule="evenodd"/><path d="M93.727 43.87l.124.08-.043.56-.32.612-.47.47-1.405.516-.782.143-.425.16-.377-.83-.335-.4.938-.064.603-.183 1.028.11.985-.09.263-.276z" fill="#9c627e" fill-rule="evenodd"/><path d="M96.517 41.444l.266.462.604.568.995.71.89.108 1.243-.32.853-.853.723-1.188.434-2.067-.285 3.076-.446.98.095.7-1.232.83-.78.076-1.28-.05-.528-.63-.754-.602-.8-.983z" fill="#c1889d" fill-rule="evenodd"/><path d="M69.826 25.54l-.405-.013-.426.214-.252.44-.1.742-.025.905.012.578.383-.572c.046-.18.88.504.176-.427l.036-.333.264-.02.17.183.106.446.42.61-.137.728-.158.352-.17.333-.157.396-.07.718.064.66.244.81.27.263.327.366.353.3.34.102h.263l.05-.63-.628-.438-.415-.717v-.35l.113-.115h.415l.497.22-.006-.56-.45-1.356.137-1.684.02-.904-.14-.373-.294-.355-.516-.382z" fill="#943f4a" fill-rule="evenodd"/><path d="M68.63 28.405l-.056.742.097.578.188.595.222.666.195.844.125.39.222.366.342.495 1.273.313-1.163-.842-.226-.45-.188-.63-.038-.502-.137-.24-.183-.24-.062-.346-.17-.56-.16-.48z" fill="#a95058" fill-rule="evenodd"/><path d="M68.63 28.405l.25-.603.14-.54.05-.415h.4l.315.213.314.427.087.805-.094.544-.08.536-.215.365-.15.515-.026.716-.32-.48-.062-.346-.17-.56z" fill="#8b0151" fill-rule="evenodd"/><path d="M71.387 31.287l-.496-.22h-.414l-.113.115v.35l.415.718.628.44-.016-.638z" fill="#82012a" fill-rule="evenodd"/><path d="M69.4 32.22l.266 1.12.09.694.266.27.497-.008.514-.55.322-.428h-.264l-.34-.1-.35-.302-.47-.055-.31-.274z" fill="#933844" fill-rule="evenodd"/><path d="M69.755 34.034l.045.4v.364l.16.16h.222l.426-.196.382-.506.285-.256.08-.682-.41.378-.426.367-.498.095z" fill="#9a3563" fill-rule="evenodd"/><path d="M69.8 34.798l-.063.497-.088.596.105.623.258.417.346.445.39.355h.205l.235-.156-.01-1.567.2-1.81-.024-.88-.144.646-.616.686-.503.29-.098-.036z" fill="#9b5049" fill-rule="evenodd"/><path d="M104.704 25.427l.37-.216.31-.08.284.152.258.435-.33-.177h-.31l-.302.15-.195.267-.073.39-.186.526-.23.257-.222.133-.096.1-.132-.805z" fill="#f3afbf" fill-rule="evenodd"/><path d="M103.774 32.79l.283-.2.176-.504.082-.427-.063-.548.207-.464v-.346l-.215-.25-.144-.108-.018-.226.044-.302.07-.27.005-.25-.036-.636-.076-.42v-.252l-.08-.325-.026.1.044.2v.73l-.1 1.155.056.722.044 1.037v1.005z" fill="#f69aa5" fill-rule="evenodd"/><path d="M103.774 32.79l.028.413v.213l.2-.217.24-.33.258-.63.177-.783.076-.47.09-.516-.037-.55-.08-.45-.044-.398.058-.422-.04-.83v-.58l.07-.443.16-.262.232-.236h.164l.164.07.138.138.196.413.124.383.07.418.054.472v.506l-.053.236-.02.462-.065.417-.107.236-.133.452-.15.156-.04.164.088.204.146-.022.155-.222.124-.244.146-.365.137-.493.07-.49.06-.438.004-.405.017-.533-.022-.275-.09-.268-.07-.36-.05-.248-.11-.356-.093-.204-.08-.24-.014-.147-.33-.177h-.31l-.302.15-.195.267-.073.39-.186.526-.23.257-.222.133h-.07l.08.325v.25l.076.422.037.635-.005.25-.07.27-.043.303.02.226.143.107.214.252v.346l-.208.464.063.547-.082.426-.176.503z" fill="#fee0cc" fill-rule="evenodd"/><path d="M103.91 37.26l.203-.072.25-.293.257-.747.106-.373v-.453l-.16-.524-.204-.302-.373-.24-.18-.25-.01.166.15 1.03v1.232z" fill="#efa0ac" fill-rule="evenodd"/><path d="M105.74 31.004l-.223.675-.213.55-.24.844-.133.578-.133.382-.097.346v.31l.026.632-.16-.524-.204-.302-.373-.24-.18-.25.01-.177.267.08.32.026.213-.107.213-.463.133-.542-.17-.204-.007-.354.052-.258.337-.498.23-.337.094-.35.09.203z" fill="#fcd2d2" fill-rule="evenodd"/><path d="M103.953 33.287l.027.205.178.053.266-.24.276-.586.09-.454.007.355.17.205-.134.542-.213.462-.214.106-.32-.027-.266-.08-.018-.414z" fill="#fbb0af" fill-rule="evenodd"/><path d="M103.953 33.287l.027.205.178.053.266-.24.276-.586.09-.454.052-.258-.027-.382-.09-.48-.048.31-.177.783-.258.63z" fill="#ef7ca7" fill-rule="evenodd"/><path d="M105.628 26.508l-.026.39.013.803.1.855-.043.83-.19.584-.326.464-.113.038-.088-.434-.176-.345.026.227.036.55-.116.676.116.862.568-.835.134-.516.15-.155.134-.453.107-.237.066-.417.02-.462.052-.236v-.506l-.124-.89-.124-.38z" fill="#fc9d98" fill-rule="evenodd"/><path d="M105.043 30.472l.113-.038.327-.465.19-.585.043-.83-.1-.854-.014-.803.026-.39-.138-.136-.164-.07h-.164l-.23.235-.16.262-.072.444v.66l.04.75-.058.422.097.62.175.346z" fill="#ea556d" fill-rule="evenodd"/><path d="M69.826 25.54l1.742.266-.302-.764h.462l.302.23h.444l.56-.38-.134-.383-.426-.774v-.49l.357-.156.96-2.138v-3.284l-.075-1.14.96-2.507 1.4-1.99 1.52-.718.896-.862.168-.814.088-1.08-.87-.857-.853-.907-1.155-.8-.888-.444-.427.443-.462.55-.94 1.227-.463.782-.462.55-.586.623-.41.78-.426.997-.516.817-.266 1.136-.196.764-.23.942-.267.747v.994l.176.64.036 1.528-.018 1.012-.09.64-.176.267.23.196.036.142v.498l-.177.533h.195l.178-.108-.036.25.142.3-.32 1.21V25.184l.267-.462z" fill="#1e1023" fill-rule="evenodd"/><path d="M89.18 8.363l-.352-1.457-.5-1.018-.612-.792-1.056-.823-1.08-.107-1.18-.006-.648.553-.648.47-.49 1.02.032-.17-.32-.44-.352-.74-1.05-.733-.823-.255-.853-.59-.83-.114-.653.152-.703.402-.628.427h-.25l-.303.454-.302.226-.352.402-.246.327 2.82 2.293.79.775-.058 1.018-.123.764-.89.817-1.445.813 2.69-1.033 2.95-.516.887-.027 1.35-.47.73-.715 1.008-.387 2.007-.718.653.402z" fill="#1b0924" fill-rule="evenodd"/><path d="M82.602 10.453l1.954.533 1.16.25 1.05.13.885-.018 1.12-.312.592-.12 1.036-.232 1.458.12 2.138-.247 2.802.118 2.177 1.89.99 1.225.31.38-.003-1.345-.512-1.328-1.484-1.062-1.134-.363-.88-.276-1.307.02-1.156.105-1.068-.837-1.194.075-.587.004-.573-.083-.45-.14-.854-.703-.83-.075-.653-.276-1.17.38-1.833.67-.15.068-.59.842z" fill="#231926" fill-rule="evenodd"/><path d="M90.297 9.085l-.586-.995-.048-.604-.29-1.262-.524-.89-1.07-.957-.84-.62-.568-.105-.81-.157-.576.182-.666.072-.658.365-.39.42-.58.52-.076 1.147.63-.955 1.305-1.005 1.03.05 1.005.226.896.618.56.546.31.44.37.658.353 1.583.854.578z" fill="#301c2c" fill-rule="evenodd"/><path d="M90.297 9.085L90.11 7.84l-.288-1.67-.236-1.137-.702-1.5-1.323-.916-1.28-.516-1.118-.39h-1.03l-1.103.143-1.12.444h-.87l-.64.373h-.854l-1.128.49.83.177.712.448.14.08.792.293.97.787.325.704.427.703v-.15l.22-1.116.888-.764.64-.39.622-.16h1.386l.57.14.763.552 1.013.87.55.89.202.972.256.946.19.33z" fill="#16121b" fill-rule="evenodd"/><path d="M95.806 5.975L94.064 4.7l-1.243-.982-1.08-.505-1.514-.703-1.368-.498H87.472l-.764.25-.41-.125.356-.142 1.013-.338 1.102-.053 1.598-.09 1.013.108 1.12.248 1.014.533.852.55.667.97.862 1.52z" fill="#1b1223" fill-rule="evenodd"/><path d="M94.366 2.954l.853.427.497.712.508.75.288.78.333.837-.76.77-.18-.89-.367-1.236z" fill="#452d40" fill-rule="evenodd"/><path d="M86.54 2.202l1.038.332 1.315.157.87 1.316.56 1.14.372 1.66-.133.93.05.995.346.664-.66-.31-.23-.925-.106-.312-.204-1.335-.26-1.48-.8-1.457-1.203-.912z" fill="#433036" fill-rule="evenodd"/><path d="M86.708 2.26l.754-.28L88.89 2l1.88.696 2.06.87 2.976 2.41.25.64-.006-.882.06-.16.276.167.7 1.228.736 1.478.117.838.28 1.542-.29-.19-.288-.187-.12-.384c-.13.713-3.288-.365-6.087-.797-.62.25-.555-.12-.73-.668l-.115-.19-.135-.677v-.93l-.327-1.658-.552-.98-.905-1.157z" fill="#201d20" fill-rule="evenodd"/><path d="M90.455 7.735l.126.584.516.86.34.063.44-.19.213-.313.024-.565-.15-.742.125-.515.313.804.125.603v.516l.29.478.427.126.263-.2V7.985l-.364-.817.393.41.36.658.504 1.08.44.377.24-.314-.215-1.72h.076l.46.86.395.836.465.44.365.025-.047-.618-.13-.638-.062-.955.528.64.47 1.25.258.95-.52-.318-.862-.336-1.307.125h-1.156l-1.432-.526h-1.407l-.377-.654z" fill="#34272b" fill-rule="evenodd"/><path d="M101.684 20.307l.69 1.042.992.4.91.542.54-.076.742-.182v2.613l-.174.483-.31.08-.37.217-.955-.252-.503-.628-.176-.25-.395-.3-.26-.796-1.005-1.016-.56-.912-.26-.834.208-.704z" fill="#644a5b" fill-rule="evenodd"/><path d="M105.558 22.034l-.21-2.163-.284-1.172-.25-.853-.283-1.492-.497-1.244-.622-1.236-.958-1.12-1.013-.506-1.014-1.014-.746-.754-.773-.25-.987-.914.3 1.51 1.156.955.654.956.226 1.256-.293-.202.626.965.938 2.294-.183.702.052.835.287.704v1.017l.633 1.174.88.58 1.08.4h.754z" fill="#46304a" fill-rule="evenodd"/><path d="M104.033 15.11l-.568-1.44-.32-.445-.338-.693-.515-.675-.142-.533-.267-.498-.213-.462-.267-.568-.088-.604-.356-.64-.57-.782-.568-.533-.533-.41-.677-.48-.515-.39-.693-.497-.533-.444-.462-.445-.693-.478.392 1.482.276.238.628 1.156.666 1.496.24.852.853 1.03.89.25 1.67 1.776.96.427 1.1 1.172z" fill="#2b2126" fill-rule="evenodd"/><path d="M86.548 74.85l.15-.67-.766-1.37-.68-.842-1.054-.678-.63-.113-.614-.754-.564-.725-1.158-.632-1.71.138-.64.15-.414-1.47-1.357-.79-.74-2.45-.842-1.42-1.18.652-.303.264-.503 1.508.453.415.44.502.502.352.68.553.564.565.278.69.113.755v.578l-.112.68-.327.715-.4.477h-.253l.176-.578.516-1.03.036-.666-.163-.754-.302-.527-1.08-1.56-.954-.338-.397-.724-.27-1.16-.628-1.157-1.053-3.694.332 2.28v.568l-.71 5.118-.656 2.262.414.987-.32 2.437-.107.848-.02.14-.35 2.078-.597 2.582-.78 7.502-.502 5.805 4.322-3.57 1.96-3.367 1.056-2.262 2.11 2.162 5.38 3.368.1-2.312-3.77-3.468.754-.2.352-.906-.252-1.76 2.212 1.91V79.08l.955.05.603-1.91-.905-1.055.805-1.206h.754z" fill="#d3bdd0" fill-rule="evenodd"/><path d="M73.643 50.632l-.103 2.113v2.275l.32 2.06.675 2.027.462 2.204.356 1.706-.71.25-.534.195-.32.356-.268.55-.213.658v.73l.283.46-.693-1.207-.32-1.067-.568-1.67-.426-1.297-.267-1.564-.16-1.547-.072-1.812v-1.936l.586-2.097.285-1.262.603-.87.628-.76v.502z" fill="#cdabbe" fill-rule="evenodd"/><path d="M101.11 51.587l.453.578.25 1.08v1.182l-.074 1.684-.026 1.082-.05 2.337-.227 1.08-.352 1.432-.78 2.035-.702 1.784-.68 1.484-.3 1.71.1 1.457-.98-1.155-.478-1.232-.075-1.608.352-1.332.2-.653 1.107-1.257.024-.83-.277-.854-.678-.177h-.504l1.056-.703.553-.453.226-.35.58-1.534.45-1.357.504-1.533.25-1.986z" fill="#fff" fill-rule="evenodd"/><path d="M96.01 62.42l-.47.632-1.094.817-.622.728-.8.657-1.065.55.79-.016.923-.428.836-.41.683-.416.444-.356.418-.426.32-.444.364-.64.203-.462.276-.675-.558.257z" fill="#d8adca" fill-rule="evenodd"/><path d="M74.75 60.534l1.305 2.613.654 1.307.1.905.766 1.167.352.352.553.59.503.546.25.384.49.025 1.095.25.766.252 1.056.717.79.653.655.616.69.326.63.603.49.54.3.402.315.74.188.655-.766-1.37-.68-.74-.552-.378-.502-.302-.63-.213-.614-.754-.49-.516-.616-.44-.616-.238-.992-.026h-.717l-.64.15-.315-.4-.263-.492-.44-.578-.754-.79-.175-.278-.314-.74-.288-.604-.327-.503-.327-.616-.175-.68-.114-.137-.58.2-.463.14-.302.263-.2.704-.127.553.277.666.44.502.502.352.68.553.564.565.278.69.113.755v.578l-.112.68-.327.715-.4.477h-.253l.176-.578.157-.47.36-.56.036-.666-.163-.754-.302-.527-.49-.478-.828-.74-.377-.315-.34-.365-.263-.42-.133-.304v-.73l.212-.656.267-.55.32-.356 1.243-.444z" fill="#fef2fc" fill-rule="evenodd"/><path d="M73.643 50.632l-.088 1.722-.015 2.666.32 2.06.675 2.027.214 1.427 1.96 3.92.074-.553-.678-2.135-.603-2.168.27-1.085 1.028-.67.806.275 1.113.653.803.105-1.156-1.256-.703-.454-.654-1.306-.854-.905-.804-1.357-.654-.905-.3-1.156z" fill="#5b1b3a" fill-rule="evenodd"/><path d="M93.38 65.255l2.16-2.203.47-.633.502-1.283.552-.402 1.383-2.438.628-1.382.352-1.055.578-2.287-.88 1.885-1.71.753-.903 1.56-1.96 1.658-1.458.804-2.92.652h-1.85l-.658.127.93 1.242 1.482 1.298.856 1.686.124 1.48.21 1.846-.01 1.572c-1.617 1.177-.066.837-.1 1.256l.554-.955.15-1.206v-.88l-.025-1.13v-1.032l.122-.382z" fill="#7d455d" fill-rule="evenodd"/><path d="M87.34 78.653l.476-1.684.704-1.66.78-1.432.98-1.206.88-1.282.225-2.89-.327-1.784-.387 1.508-.19 2.013-.868.89-.61 1.067-1.056 1.143c-2.157-2.068-.498.483-.858.75l-.39.093.214 1.005.15 1.256z" fill="#9e63a7" fill-rule="evenodd"/><path d="M86.698 74.18l.39.05 1.08-.804 1.03-1.232.654-1.03.78-.83.426-3.618v-1.533l-.98-1.633-.064 2.63-1.2 1.65-1.91-.14-2.348-1.447c-1.77-.302-1.743-2.473-3.332-2.845l-3.636-5.503-.854-.2-1.056.728-.326 1.156 1.432 4.32-.075.554.1.905.766 1.167.905.943.754.93.49.025 1.86.502 1.056.717 1.445 1.27.69.325.484.475.373.364.563.705z" fill="#a65c66" fill-rule="evenodd"/><path d="M77.588 57.895l1.13.804.805.175 3.016 1.408 1.105.25 1.552.21.995.568 1.474-.3 2.412 2.54.327 2.638-1.6 2.06-2.15-.017-2.206-1.765-.443-.072-.498-.285-1.83-2.025-.75-.533-1.65-2.31z" fill="#c47d7c" fill-rule="evenodd"/><path d="M101.148 51.085l.823.333.95.622 2.74 2.814 2.512 3.217 1.608 2.112 1.61 2.413-1.51 2.915-.502 3.216-.337 3.69 1.165 7.29.182 8.03.924 6.95.782 9.826 1.508 3.116 2.408-9.608.33-14.192-.225-9.774.277-5.63-4.122-2.89 2.136-3.568-5.73-6.408-4.762-2.664-1.646-1.363z" fill="#71517c" fill-rule="evenodd"/><path d="M101.19 51.1l1.137.33 3.332 3.424 2.45 3.154 1.52 1.935 1.76 2.652-1.51 2.915-.502 3.216v3.62l1.244 6.923 1.17 8.254.007 4.333.088 5.135.204 7.52 1.508 3.116-1.517 12.11-.924 7.18-.214 4.317-.942 12.812-1.226-14.216-.693-9.168V95.927l-.427-9.74-1.066-9.38-2.203-4.053-1.636-10.093-.427-3.837-.425-4.86-.34-1.798-.452-.578z" fill="#9e85ab" fill-rule="evenodd"/><path d="M104.39 72.754l2.202 4.052 1.066 9.382.427 9.88v11.55l.07 10.663-.07 2.382 1.386 15.815.783 7.588-.676 7.623.578 6.13.275 6.13-2.24-12.935-1.847-12.155-.177-17.06.497-26.938-1.35-16.42z" fill="#5c4673" fill-rule="evenodd"/><path d="M102.24 63.047h-.903l-2.413 4.297-.3 1.71.1 1.457-.377.697-.835-1.42-.734-1.28-.416 1.522-.165 1.467-.267 2.732-2.334 7.413.15 4.926 2.766-7.73 2.462-6.495-1.608 10.203-1.71 6.936.755 2.212 1.258-.05 2.362-7.138.955 4.825 3.694.226.15-1.056-1.13-8.42-1.107-6.03V67.77z" fill="#f9eefe" fill-rule="evenodd"/><path d="M99.697 105.806l-1.426 1.62-1.482 5.002.73-4.498-2.615 9.4.704 2.36-.804.956.904 1.71-1.86.753-1.96 5.175-.904 1.66-1.156 6.08.754.352 1.512-3.17.782-4.016.25-3.41 6.716 4.87 1.563 2.77v2.133l-1.777 1.066-3.02-2.595-1.21-.64 1.067 4.55-1.812 2.985-.78 1.848-1.68-4.13.45 1.91 2.766 6.585-3.016 3.77 2.01 1.206 4.02-3.117.203 2.16-7.44 5.53-1.105 3.72.283 2.016 2.28 1.25 1.81.954h2.212l2.01-3.016.1 2.865 2.062.754.503.15 6.03-.954 1.91-2.11-3.893-5.898-.71-2.346.212-8.175-1.208-2.772 2.56-2.985-3.697 1.492-1.563-1.42v-1.565l2.488-3.34.07-9.74-.355-2.7-2.63-4.478 1.138-3.625-1.92-1.1-.746-2.276.213-2.808z" fill="#fff" fill-rule="evenodd"/><path d="M73.19 49.125l-2.138 1.666-2.772 1.778-1.208.07-6.575 6.79 3.376 3.588-5.117 1.955 2.985 3.235 2.773 3.91-.03 4.356-.325 8.012-2.084 8.33-.244 8.73-1.368 3.838-1.21 1.92v17.412l1.707-5.756 2.594-10.52 1.67-7.25 1.635-12.652 1.42-11.8.995-4.904 1.138-1.635.672-1.663.607-5.942v-.57l-.373-2.61-.232-5.296.87-3.36z" fill="#433143" fill-rule="evenodd"/><path d="M58.756 64.97l-.07 7.287v8.67l.425 9.455.072 9.383.07 7.534 1.022-1.406 1.61-4.068.727-6.36.73-4.575.778-5.83.555-4.855.018-7.895-2.7-4.158z" fill="#3b3143" fill-rule="evenodd"/><path d="M65.42 109.16l6.062-2.99.754-1.055.502 1.61-.452 2.01-2.01 1.457-2.815 2.412v.754l.805 1.508.352 1.81-.302 1.004-4.17 1.96.602 1.056.15.804 1.86 1.257-2.613-.905.396 4.54.006 3.25-1.71 2.815-1.356-1.508 2.16-8.545.58-6.584z" fill="#ad92b3" fill-rule="evenodd"/><path d="M74.347 85.413l.955 2.312 2.563 1.608 2.513.855-.905 1.71-2.513 2.26-4.825 2.714 1.558 1.357 4.926-.956-.102.704-5.93 2.865-.15 2.16.552 1.258-1.508 1.91-5.53 2.74.805-3.895 1.307-12.666 4.322-3.57z" fill="#e4cdf1" fill-rule="evenodd"/><path d="M59.253 124.713l-.585 5.5-.737 6.96-.12 6.492 2.815-8.946 3.016-12.315 1.81-10.706 1.307-6.685 1.734-15.28.88-9.9.956-5.63.76-5.673-.673 1.663-1.138 1.635-.995 4.905-.82 6.517-2.538 17.03-.93 5.838-1.507 6.283-2.16 8.293z" fill="#61506f" fill-rule="evenodd"/><path d="M66.192 53.736l-13.81 4.235-3.72 1.006-3.517 1.106-1.106.3-.1 4.323-.353 5 .578 5.73.377 5.228.25 3.04-.25 3.42-.88 10.755-.28 5.528-1.052 14.174-.585 13.073 2.194 6.227 2.837-6.99 1.97-9.797 3.46-11.497 7.2-9.997-.51-33.238 5.115-2.283-2.84-3.475z" fill="#51394a" fill-rule="evenodd"/><path d="M97.693 61.715l.377.013.213.364v.578l-.176.678-.506.86-.995.923-.817.747-.397 2.52-.574 1.163-.04-3.025.39-1.19 1.226-1.102.604-.853.462-.978z" fill="#e6cef4" fill-rule="evenodd"/><path d="M97.22 61.533l.196-.12h.503l.677.176.277.854-.025.83-1.107 1.256-.486 1.99.008 1.603.478 1.232.98 1.156-.376 1.036-.427-.924-.408-.835-.57-.853h-.177l-.177.906-.09 1.582-.568 2.807-.926 3.19-1.408 4.223-2.487 3.996.174-1.71.2-1.834.643-2.02.427-3.164.284-3.02.356-1.493 1.386-1.925 1.244-1.666.39-.534v-.533l-.39-.568-.178-.138-.213-.253.355-.907 1.813-1.67.507-.86.176-.677v-.578l-.213-.364-.377-.013z" fill="#fbeffc" fill-rule="evenodd"/><path d="M87.34 78.653l-.78 3.14-.855 4.876-.603 5.528-.25 5.026-.152 5.93-.402 6.183-.553 8.544-.49 8.22-.264 8.67-.3 10.906.603 6.534.05 8.896-.402 2.814-.05 3.52-.653-.052-2.513-3.066-.35-1.558.25-.955 1.156.25 1.005 1.056.503-1.206-1.106-2.966.704-.452.804-2.814-.402-1.408-1.156.754h-.704l-.754-3.016 1.433-3.292 1.28-2.437v-2.112l-.602-3.066-.955-3.518.955-2.714.1-3.217-3.115 2.06-1.56-3.467.705-2.162 1.86-3.97 1.81-3.267 1.105-4.624-.05-1.005-.805-1.257-.653 1.006-1.71 2.833-3.768 3.348-3.57 1.61h-5.377l-1.86-1.258 7.138-2.412 3.216-2.564 1.81-3.116-5.377 2.312-.855-1.005 2.262-1.91 7.137-5.177 1.257-3.166.502-2.664h-1.76l-2.512 1.458 3.317-3.418 1.308-2.463-.2-.503-3.117 1.006-.4-.604 3.768-2.06.553-.503-1.004-1.054-1.407.402.652-3.72 1.458-.552v-.654l.804-1.558 1.658-1.91-.3-.703-.554-1.81.2-1.054 1.257-.754.403-1.81z" fill="#c9aac7" fill-rule="evenodd"/><path d="M68.265 114.866l1.206 1.508 1.51.552h2.21l2.664-1.206-.603.804-3.215 2.564-7.137 2.412-.754-1.86 4.17-1.96.303-1.005z" fill="#c7a4cb" fill-rule="evenodd"/><path d="M64.144 121.852l2.563 4.12v3.017l.905 1.86 2.983 2.248 3.852 3.63 2.47 3.22 1.35 2.863.804 2.06.654 2.313-1.407 4.373-2.764-4.172-3.77-4.825-3.015-2.614-4.524-4.674-1.407-2.815 1.71-2.815z" fill="#cbb4c4" fill-rule="evenodd"/><path d="M86.698 74.18l.214 1.005.427 3.468-1.232.88-.403 1.81-1.256.753-.202 1.055.553 1.81.302.704-1.658 1.91-.804 1.558v.654l-1.458.553-.653 3.718 1.406-.402 1.005 1.055-.552.504-3.77 2.06.403.604 3.117-1.006.2.503-1.306 2.463-3.316 3.418 2.513-1.458h1.76l-.503 2.664-1.257 3.166-9.4 7.087.856 1.005 5.378-2.312-1.206 2.312-2.663 1.206h-2.21l-1.51-.552-1.205-1.508-.804-1.508v-.754l2.815-2.412 2.01-1.458.453-2.01-.502-1.61.754-.853-.553-1.256.15-2.16 5.93-2.866.102-.704-4.927.955-1.558-1.358 4.825-2.714 2.513-2.26.905-1.71-2.513-.855-2.563-1.608-.955-2.312 1.055-2.262 2.11 2.162 5.38 3.368.1-2.312-3.77-3.468.754-.2.352-.906-.252-1.76 2.212 1.91V79.08l.955.05.603-1.91-.905-1.055.805-1.206 2.803-.11z" fill="#f2e7f8" fill-rule="evenodd"/><path d="M80.127 116.876l-4.574 5.98-.453 4.374.604 3.97 1.156 2.664-1.357 1.408.703 3.116 2.312 3.317 1.307 3.67-.1 1.808-1.458-4.372-3.82-6.08-6.835-5.88-.905-1.86v-3.017l-2.563-4.12 2.613.904h5.378l3.57-1.61z" fill="#d7c0dd" fill-rule="evenodd"/><path d="M81.835 113.96l.805 1.258.05 1.005-1.106 4.624-2.375 4.687-1.295 2.55-.704 2.162 1.56 3.468 3.116-2.06-.1 3.216-.956 2.714.955 3.518.603 3.066v2.11l-2.714 5.73.754 3.016h.704l1.156-.754.402 1.408-.804 2.814-.704.452 1.106 2.966-.503 1.206-1.005-1.055-1.156-.25-.25.954.35 1.558 2.513 3.066-2.11-.05-.704.25-1.71-1.205.755-.402.854.152-1.407-2.212-.754-2.11.705-.805 1.76.804-1.308-1.76v-.854l.955-2.16.704-.956-3.317-1.86-3.67-3.317-3.217-4.976-4.373-6.785-2.362-4.323-.503-1.458 1.71 1.91 4.523 4.674 3.015 2.613 3.77 4.824 2.764 4.172 1.407-4.373.1-1.81-1.306-3.668-2.312-3.317-.703-3.116 1.357-1.408-1.156-2.663-.604-3.97.453-4.373z" fill="#f3e7fb" fill-rule="evenodd"/><path d="M64.244 135.272l-1.407-2.815-1.304-1.46-.908 3.722-2.814 8.945-.803 5.88-1.482 5.302-2.087 7.415 2.965 1.357 13.12 3.416-3.67-5.176-1.006-4.072.503-1.156 1.71 1.56 3.266 3.87 4.976 3.818.402 2.162 4.07-.05-.35-.403-1.71-1.207-5.127-4.624-6.735-9.098-1.357-3.72-.15-2.663 1.105-.655.955-.2 3.67 5.126 3.87 7.842 3.116 5.327 2.262 2.412-1.407-2.212-.754-2.11.705-.805-1.76-3.468-2.26-4.825-.855-1.81-7.59-11.76-2.362-4.323-.503-1.458z" fill="#bfa6c3" fill-rule="evenodd"/><path d="M72.99 150.903l3.67 3.317 3.316 1.86-.704.955-.955 2.16v.855l1.307 1.76-1.76-.805-2.01-3.92z" fill="#ddcbed" fill-rule="evenodd"/><path d="M79.322 166.132l-2.26-2.413-3.118-5.328-3.87-7.84-3.67-5.128-.954.2-1.105.655.15 2.663 1.357 3.72 6.735 9.096 5.127 4.623.754-.402z" fill="#dfc2e2" fill-rule="evenodd"/><path d="M75.704 168.042l-6.182-1.006-3.67-5.176-1.005-4.072.503-1.156 1.71 1.56 3.266 3.87 4.976 3.818z" fill="#dfc9e9" fill-rule="evenodd"/><path d="M59.017 98.883l-7.036 9.65-3.518 11.56-1.81 9.55-2.713 7.237.102 5.532.853 10.094.71-4.976V139l1.28-7.392 5.096-23.075z" fill="#27102a" fill-rule="evenodd"/><path d="M59.017 98.883l-7.036 9.65-2.998 13.373-1.99 9.098-1.635 7.5-.745 14.02 4.495 3.42 2.37 1.643.353 1.106-2.513 3.77.603 1.76v.904l2.635 1.753.883-4.618 1.206-9.198-1.91-1.734-.928 1.287.275 1.25-.2 2.062-1.055-1.308-.202-5.127.906-5.61 2.504-6.354-1.113-12.91-2.498 9.747-1.055 6.056-.88 6.308.51 5.715-.002 1.05-2.052-2.146-.276-3.897 1.6-16.77 3.08-14.704 1.108-6.732z" fill="#1e0b1f" fill-rule="evenodd"/><path d="M44.04 60.383l-.843 3.707-.414 2.174v2.085l-.076 2.21.05 2.413.352 3.292.402 4.197-.277 2.187.05 1.808-.502 3.744-.453 4.448.1 3.016-.464 4.448.314 3.04-.54 2.464-.314 5.076v3.82l.603 12.264.552-10.555 1.105-12.113.05-5.53.604-8.04.604-6.836-.452-9.75-.553-4.524z" fill="#360e33" fill-rule="evenodd"/><path d="M53.438 162.262l3.57-12.716.803-5.88 1.443-18.953.226-26.754-7.264 11.187-1.066 4.94-2.38 11.657-.854 4.638-1.777 16.97.426 4.123 2.63 2.523.177-1.528-.408-5.74 1.81-12.363 2.11-9.248.402 12.162-2.362 6.283-.804 5.93.453 5.378 1.508 1.508v-3.718l.654-.855 1.408 1.106z" fill="#3e2842" fill-rule="evenodd"/><path d="M91.485 82.096l-.904 5.428-2.412 3.82-2.01 3.92-.2.704-.592 12.34-1.018 12.187-.703 9.65-.503 9.35.503 9.85.2 6.232.05 7.527.05 3.932 4.826-.603.605-3.72H86.76l-1.004-5.528-.2-5.93 1.708-3.82v-4.222l-2.11-6.132 1.004-2.914 1.81-1.608 1.306-1.81.905-19.5.5-11.26v-7.84z" fill="#f2e3f8" fill-rule="evenodd"/><path d="M97.22 61.533l-.48 1.137-.685 1.084-.418.426-.444.356-2.444 1.253-.79.016-.123.382.025 3.04-.15 1.207-.553.955-1.86 2.488-.78 1.433-.704 1.66-.477 1.683-.78 3.14-.855 4.876-.508 3.996-.32 4.265-.177 7.464-.356 6.007-.462 7.002-.568 9.845-.356 6.04-.268 14.39.603 6.533.05 8.896-.402 2.814-.05 3.52 1.056-.404-.1-14.957-.497-8.353-.208-4.233.35-6.464 1.954-24.7.51-12.362 1.8-3.81 2.825-4.634.905-5.428.642-2.02 1.067-7.677 3.02-4.124v-.533l-.39-.568-.39-.39-.446 1.367-.053.924-.16-2.54.39-1.192 1.227-1.1.604-.854.462-.978.235-.697z" fill="#fff" fill-rule="evenodd"/><path d="M104.68 89.56l-4.77-.315-.248 3.34.25 4.194-.286 4.203.07 4.823-.46 2.772-.214 2.808.747 2.275-.428-2.807.39-3.91.285-1.776.214-2.56V91.378l-.07-1.173.07-.533.107-.283z" fill="#d2b2d8" fill-rule="evenodd"/><path d="M105.88 89.884l-1.2-.325-4.343-.173-.106.284-.07.534.07 1.29-.012 2.903v2.953l.013 5.258-.213 2.56-.29 1.82-.2 2.06-.185 1.805.427 2.808 1.918 1.102h1.066l2.346-11.3.195-5.32.226-3.154z" fill="#fff" fill-rule="evenodd"/><path d="M91.184 102.05l1.86-1.91v2.462l-1.106 4.674.3.402h.755l2.262-3.015h.653l1.61 3.267-2.615 9.4.704 2.36-.804.956.904 1.71-1.86.753-.703 1.908-1.256 3.267-.905 1.66-.754 4.07-.403 2.01.754.352 1.61 2.262.45 1.557 1.17 2.966 1.08 2.663.64 1.445-2.31 2.866-.83.767 2.023.98 4.008-2.89.203 2.16-2.212 1.81-2.99 2.174-2.236 1.546-1.106 3.72v-6.083l1.458.05 1.558-1.055-1.144-.515-2.023-1.897-.653-6.182.1-7.69-.1-6.282 1.106-9.147.904 2.06 1.207-.2.15-1.105-2.26-2.162v-1.105l1.96-6.484 2.11-3.317 2.01-1.91-.35-1.106-3.77 3.52-1.76 2.462.353-6.835z" fill="#dac1d8" fill-rule="evenodd"/><path d="M93.636 81.537l.11 5.032 1.61-4.726 3.656-9.687-1.646 10.39-1.71 6.937.755 2.212 1.258-.05 2.362-7.324.955 5.01-1.074-.087-.248 3.34.25 4.194-.215 9.026-1.426 1.62-1.482 5.002.73-4.498-1.61-3.267h-.653l-2.262 3.015h-.754l-.302-.402 1.106-4.674v-2.463l-1.86 1.91.25-4.5-.476-4.523.93-6.96.045-1.76z" fill="#f0ddf5" fill-rule="evenodd"/><path d="M93.87 142.768l.78-1.848 1.458-2.133.355-.853-1.066-4.55 1.208.64 3.02 2.595 1.778-1.067v-2.132l-1.563-2.77-6.717-4.87-.25 3.41-.78 4.017-1.512 3.17 1.61 2.262z" fill="#f0e6fe" fill-rule="evenodd"/><path d="M89.274 130.748l-.603 2.362.14 5.78.024 4.26-.113 8.507-.3.1-.302-10.555v-5.78l-.15-2.864z" fill="#fcf3fd" fill-rule="evenodd"/><path d="M91.933 84.306l-.725 1.167-.527 6.675-.005 7.848-.116 2.638-.125 2.466-.147 3.67-.15 3.37-.125 2.45-.133 2.89-.085 1.827-.084 1.852-.097 1.98-.102 2.56-.236 5.048.415-3.217.49-4.145.2-1.784.904 2.06 1.207-.2.15-1.105-2.26-2.162v-1.105l1.96-6.484 2.11-3.317 2.01-1.91-.35-1.106-3.77 3.52-1.76 2.462.604-10.203.25-4.5-.476-4.523.93-6.96z" fill="#fdf8fe" fill-rule="evenodd"/><path d="M87.967 132.558l-1.81 1.608-1.004 2.915 2.11 6.133v4.222l-1.708 3.82.2 5.93 1.006 5.53h2.615l-.604 3.718 1.81.805h2.514l4.322-1.106 2.363.553 2.914-.955-3.92-1.257-.1-2.865-2.012 3.016h-2.21l-3.77-2.362-.604-1.86v-6.082l1.458.05 1.558-1.055-3.167-2.412-.653-6.182.1-7.84-.1-6.132-.704 1.156.1 1.206.05 18.547-.3.1-.252-9.85v-6.736z" fill="#fff" fill-rule="evenodd"/><path d="M117.06 95.855l.23-4.602 1.457-.125h2.24l.32.196-.96.675h-.48l-.356.283.18.32.496.125.995-.605.694-.515-.764.818-.995.604-.57.25-.265.46v.463l.23.48.516.746-.924.336-1.03.285z" fill="#dcbee2" fill-rule="evenodd"/><path d="M119.51 92.283l.356-.284h.48l.96-.676.906-1.093.49-1.074.514-1.235.142-.115h.373l.18.143.052.284.276 1.866.168 1.075.143 1.28-.41.39-.658.364-.382.294v.534l-.053.222-.418.302-.774.373-.817.232-.738.204-.276.063-.515-.748-.23-.48v-.46l.266-.463.57-.25.994-.604.764-.818-.693.515-.994.605-.497-.125z" fill="#fefefc" fill-rule="evenodd"/><path d="M109.177 56.262l4.976 1.457 6.584 2.814 6.283 2.613 1.508.453.653 1.96-.05 5.478-.472 6.408-.532 1.735-.654 3.418-.352 2.262-.1 3.97v1.458h-1.005l-1.357-1.055-.75-1.285-.177-.143h-.372l-.142.116-1.004 2.31-.906 1.094-.32-.196h-2.24l-1.456.125-.536.116-.25 1.193-.366 2.186-.1 1.306-.475.408.21-3.738.378-6.333.164-2.89-.125-5.05-.14-7.54-.037-2.488-4.423-2.915 2.412-3.52z" fill="#867098" fill-rule="evenodd"/><path d="M116.754 91.37l.536-.117-.23 4.602 1.01.196 1.032-.284.924-.337 1.83-.5.773-.372.417-.302.053-.222V93.5l.382-.293.658-.364.41-.39-.64-4.505.748 1.285 1.357 1.055h1.005l-.9.645-.407.71-1.03 1.298-1.263 1.245-.72.506-1.26.56-1.09.268-1.332.324-.947.21-.394.025-.688-.09-.95.07.1-1.308.38-2.28z" fill="#361843" fill-rule="evenodd"/><path d="M125.357 92.16l-.782 1.42-1.563 1.316-1.884.817-1.99.64-2.275.533-.746.71-.178 2.17.177.994 1.777-.356 3.127-.533 2.134-.958 2.38-1.6-.745.924-1.672 1.21-1.493.603-2.24.603-2.593.498-.497.534-.427 2.452-.782 2.274-1.102 2.062-.71 1.066.326-1.91 1.91-10.052.053-1.112.475-.408.95-.068 1.083.063 3.37-.8 1.26-.56.72-.505 1.262-1.244.717-.893z" fill="#7c5ea9" fill-rule="evenodd"/><path d="M127.447 82.623l-.075 3.52v3.416l-.076 4.397-.427 3.493-.654 4.9-.277 4.122v7.716l-.152 3.467-.376 3.82-.352 2.815-.654 2.84-.578 1.507-1.784 2.463-.477.327-.63 3.116-.4 2.814v2.086l-.026 2.99-.175 2.237-.125 2.287-.63 2.388-.225 2.085-.3 2.865-.454 1.66-.652 1.482-1.156.804h-.68l-.552-.703.45-7.6 1.03-8.875v-12.724l-1.136-9.382-1.848-4.55-1.386-1.45.604-3.418.71-1.066 1.102-2.062.782-2.274.427-2.452.497-.533 2.594-.497 2.24-.604 1.492-.605 1.67-1.21.747-.923-2.38 1.6-2.134.96-4.903.888-.178-.995.177-2.168.746-.71 2.275-.534 1.99-.64 1.884-.817 1.563-1.315.824-1.533.313-.403.408-.71.9-.646-.028-1.408.128-4.02z" fill="#b29fc0" fill-rule="evenodd"/><path d="M112.67 112.956l1.386 1.45 1.848 4.55 1.137 9.382v12.724l-.173 5.217-.754 5.075-1.86-5.93-1.658-3.97h-.553l-.804 3.115.452 3.468.553 2.513v3.117l.603 1.407-2.21-3.77-.944-1.507.312-5.75.54-7.67.493-8.745.53-7.894z" fill="#8d809c" fill-rule="evenodd"/><path d="M116.29 149.872l-.177 1.483-1.86-5.93-1.658-3.97h-.553l-.804 3.115.452 3.468.553 2.513v3.117l.603 1.407.453 1.458.376 1.407.728 3.29.97-.958 1.048-.834 1.236-.824.707-1.14.69-3.18-.454 1.66-.652 1.483-1.156.804h-.68l-.552-.703.88-7.438z" fill="#2a3043" fill-rule="evenodd"/><path d="M109.692 149.797l1.068 1.71 2.086 3.567.616 1.923.942 4.234.516 1.723.1 1.432-.276 1.382-.817 1.244-.817.718-1.18.98-.428-.214-.917-3.267-.155-1.278-.273-5.345-.25-3.317-.33-3.6z" fill="#ccbfe1" fill-rule="evenodd"/><path d="M114.404 161.23l1.986 5.228.5.722-.576 2.344.39.538-.747 1.35-1.653.217-1.954-.253-.348.02-.5-2.903.427.214 1.997-1.697.817-1.243.276-1.382z" fill="#54405b" fill-rule="evenodd"/><path d="M117.382 184.527l1.27-.98.703 2.79.478 2.79-.126 1.783-.452-.377-.754-2.387-.502-2.086-.427-.3z" fill="#393342" fill-rule="evenodd"/><path d="M119.707 190.91l.653-.427.377-1.558.98-2.915 1.244-3.996-.162-2.262-.704.578-2.01 1.785-1.433 1.432.48 1.91.703 3.67z" fill="#9997c2" fill-rule="evenodd"/><path d="M127.27 177.993l-.882.26-1.226.16h-.676l-.055-1.2 1.293-.434.084-.57-.143-.757-1.143-2.355-1.02-.987-1.022-.827-2.167-.777-1.885-.292-1.224-.075-.447.085-.44-.7 1.208-.378 1.91-.2h1.986l2.437 2.663 2.41 3.16.958 1.414z" fill="#2b0550" fill-rule="evenodd"/><path d="M124.486 178.414l-1.688 1.338-.15 2.212-.93 4.046-.49 1.03 1.57-.352 1.483-.452 2.59-.2 2.135-.1 1.156-.856-.15-2.463v-2.588l-1.482-2.037-.892-.955-.365.955-.882.26-1.226.16z" fill="#a79ec7" fill-rule="evenodd"/><path d="M129.005 185.935l2.714-.59 2.202-1.21 1.777-1.563.568-.675-.356-3.305-1.03-3.412-1.422-3.803-1.244-3.34-.723 1.965-2.46 4.348-1.435 2.827.93.816 1.482 2.036-.033 2.72.184 2.33z" fill="#ddd1fc" fill-rule="evenodd"/><path d="M128.528 63.6l.653 1.96-.05 5.478-.716 6.62-.967 4.965-.055 2.473-.018 3.944-.078 4.917-.304 2.378-.776 6.016-.272 3.83-.018 2.434v6.007l-.16 3.2-.356 3.8-.35 2.67-.654 2.84-.578 1.507-1.784 2.463-.477.327-.6 2.953-.43 2.977-.03 3.776.004 1.3-.235 2.556-.065 1.967-.63 2.388-.526 4.95-.453 1.66-.35 1.457-.654.98-1.307.904-1.03.905-.856 1.03 1.002 1.85 2.275 1.936.143-1.955.177-3.59.356-1.456.675-.32.96.498.925 1.635 1.42.995 1.316.817v-.925l-.958-1.92-.853-.816-.765-.872-.836-.515 1.883.533 2.203 1.954 1.85 1.458 1.918 1.705 1.1.818-.034-1.456-1.35-2.204-2.17-2.63-1.776-1.173v-1.1l.747-.677.925-.142 1.457.924 2.026 2.56 2.203 2.487-.177-2.098-1.44-2.523-1.19-1.707-3.376-3.447-.817-2.026-.036-.924 1.92.71 1.634.32h.853l.392-.96-.888-1.136-1.21-.924-1.81-1.28-.32-.71h1.527l1.174.426 2.843 1.883 1.066 1.03.995 1.032.498-1.315-.995-1.528-1.474-1.83-.977-.836.994-.32v-.568l-.924-1.244-1.386-1.173-1.102-.675-.924-.89 1.528.108 2.488.853 2.7 1.17-1.065-1.81-2.063-1.138-1.6-.676h-.177l.747-.568 2.24.604 1.527.462-.284-1.28-1.138-.78-1.812-.712-1.244-.89-.355-.816.996-.498 1.244-.426 1.848-.817 1.244.284 1.42-.854-1.314-1.173-2.168-1.173-2.95.214-.675-1.173 1.03-.14 2.382.283 3.02.497-1.065-.888-1.99-.675h-1.564l-1.03-.356-1.742-1.847.497-5.402.07-5.223-.034-3.234 1.136-3.768v-2.914l-.462-3.802-.142-3.73.25-6.327.852-3.447.888-4.726 1.102-5.58-.107-3.98-.39-3.98-.463-1.778z" fill="#120846" fill-rule="evenodd"/><path d="M128.528 63.6l2.563 1.86 1.056 2.412L133.503 73l1.006 4.522.5 3.267.956 3.517 1.106 6.333.754 7.54v3.517l.754 7.39.653 2.21-.352 6.182 1.007 3.065.552 1.91-.302 2.413.653 1.005v1.558l-.2 1.96-.653.604-.05 1.056v1.658l-.402 1.76-.302 3.417-.553 1.81-.452 2.613v2.463l-.754 4.424-1.357 2.714v4.523l-1.056 1.86-.652 2.564-1.71 4.423v1.558l-1.155 3.167-4.222 7.99-.05-1.808-.954-1.407-2.413-3.167 3.92-2.714.353-3.72-1.408-3.015-2.412-2.562-4.067-3.005 1.883.533 7.072 5.935.69-1.954-1.056-2.06-1.207-1.81-1.96-2.162-.905-.754 1.257.15 1.256 1.107 2.916 3.166 1.035.906 1.027.2.302-1.207-.353-2.513-2.262-2.764-1.76-2.212h2.212l3.468 2.865.453-2.162-1.056-2.11-.452-.755 1.457-.704.402-1.51-.855-2.01-1.96-1.808 2.965 1.407 1.307.3.503-1.105-1.056-1.71-2.463-1.86 1.81-.25 1.207-.704.452-2.41v-1.51l-2.564-1.507-3.67-1.005h3.72l1.71.553 1.758-.2-.05-2.312-1.357-1.76-2.262-1.507-1.81-1.055 5.077 1.357h1.207v-1.307l-.956-2.764-1.207-.602 2.11-1.257-1.155-4.37-1.658-2.766-2.363-2.764-2.36-1.457-1.51-3.418-.702-1.056 1.105-6.836-.402-6.936.655-6.685 1.658-6.383-.54-5.89-.465-6.675-1.094-1.686z" fill="#ccbcdb" fill-rule="evenodd"/><path d="M129.444 64.83l.462 1.776.39 3.98.108 3.98-1.99 10.22-.665 2.75-.19.785-.264 5.637.158 4.42.462 3.804v2.915l-1.137 3.768-.132 3.39.095 5.068-.497 5.403 1.74 1.848 1.032.357h1.563l1.992.675 1.066.888-3.087-.504-2.314-.277-1.03.14.674 1.174 2.95-.214 2.168 1.173 1.315 1.173-1.42.853-1.245-.285-1.848.817-1.244.426-.995.498.356.817 1.244.89 1.812.71 1.138.782.284 1.28-1.517-.472-2.25-.595-.747.568h.178l1.6.676 2.06 1.137 1.067 1.81-2.7-1.17-2.49-.854-1.527-.107.924.888 1.102.675 1.386 1.173.924 1.244v.568l-.995.32 2.45 2.666.996 1.528-.498 1.315-2.06-2.062-2.844-1.883-1.173-.427h-1.527l.32.71 3.02 2.205.89 1.137-.392.96h-.852l-1.635-.32-1.92-.71.037.923.817 2.026 3.377 3.447 2.63 4.23.177 2.096 1.027.2.302-1.207-.353-2.513-4.02-4.976h2.21l3.468 2.865.453-2.162-1.056-2.11-.452-.755 1.457-.704.402-1.51-.855-2.01-1.96-1.808 2.777 1.357 1.495.35.503-1.105-1.056-1.71-2.463-1.86 1.81-.25 1.207-.704.452-2.41v-1.51l-2.564-1.507-3.67-1.005h3.72l1.71.553 1.758-.2-.05-2.312-1.357-1.76-2.262-1.507-1.81-1.055 5.077 1.357h1.207v-1.307l-.956-2.764-1.207-.602 2.11-1.257-1.155-4.37-1.658-2.766-2.363-2.764-2.36-1.457-1.51-3.418-.702-1.056 1.105-6.836-.402-6.936.655-6.685 1.658-6.383-1.005-12.565z" fill="#988fba" fill-rule="evenodd"/><path d="M117.68 165.016l6.173 6.594 3.92-2.714.353-3.72-1.408-3.015-2.412-2.562-4.067-3.005 2.452 2.203.96 1.92v.923l-2.737-1.813-.924-1.635-.96-.498-.674.32-.356 1.457z" fill="#7f6f97" fill-rule="evenodd"/><path d="M131.22 159.65l-1.118-1.28-3.11-3.768-1.457-.924-.924.142-.746.676v1.1l1.777 1.174 2.17 2.63 1.35 2.204.035 1.457.69-1.954-1.056-2.06-1.207-1.81-1.96-2.162-.905-.754 1.257.15 1.256 1.107 2.916 3.166z" fill="#9584bf" fill-rule="evenodd"/><path d="M117.47 164.825l-1.156 4.7 1.207-.378 1.91-.2h1.986z" fill="#fff" fill-rule="evenodd"/><path d="M114.404 161.23l.855 2.426.577 1.42.553 1.382.5.722.58-2.355-2.064-1.87z" fill="#2d113d" fill-rule="evenodd"/><path d="M116.703 170.062l-.746 1.35-3.785-.035-2.09.887-2.01 1.055-1.91 1.86-1.81 1.456-3.015 1.61 2.312 1.054 2.713-2.06 2.462-1.257.754-.05 2.06-2.966 2.815-1.307 1.558.855-.754 1.96-.353 1.91 3.166-1.206 2.11-1.41 1.007-1.96 1.357.102 1.256 1.658.804 1.408v2.915l1.443-1.114.07-.57-.23-.87-1.244-2.293-1.084-1.137-1.084-.853-2.08-.853-1.936-.266h-1.26z" fill="#c38780" fill-rule="evenodd"/><path d="M126.05 176.78l-1.564 1.634-1.688 1.338-4.147 3.795-.928.98-1.558.603-2.162-.1-2.664-.2.704-1.71 1.458-1.307.703-4.222-.05-2.01-.754-.854-1.458.453-.905 1.758-1.407 1.156-.955-.2-2.312-.655 2.462-1.257.754-.05 2.06-2.966 2.815-1.307 1.558.855-.754 1.96-.353 1.91 3.166-1.206 2.11-1.41.554-1.255 1.307 1.96v2.16l.25 1.76 1.308-.05 1.005-.452z" fill="#ecbccb" fill-rule="evenodd"/><path d="M121.19 171.81l1.357.102 1.256 1.658.804 1.408v2.915l-1.005.452-1.307.05-.25-1.76v-2.16l-1.308-1.96zM116.164 185.13l-1.156.503-1.282.1-1.13-.1-1.51-.377-1.406-.553.88-.502.678-1.532.2-2.463-.125-.754-.854.1-.705.655-1.206.73-.906.4.905-1.23.678-1.433-.553-.78.955.202 1.407-1.156.905-1.76 1.457-.452.753.855.05 2.01-.703 4.223-1.458 1.307-.704 1.71z" fill="#fad7de" fill-rule="evenodd"/><path d="M109.68 184.703l-1.506-.78-1.19-1.067-.747-.728 1.26.035 1.032-.55.905-.587v-.587l.32-.235.704-.654.853-.1.126.755-.202 2.463-.68 1.533z" fill="#e0b1c9" fill-rule="evenodd"/><path d="M101.337 178.245l-2.35.862-2.204.995.16.356h1.422l.32.515.266.586v.923l-.23.658-.64.765-.142.213 1.244-.213 1.155-.515 1.742-.587 1.474-.64 1.58-.746h.356l.32.142.427.568-.054-.533.32-.285.622.018.52.008.904-1.232.678-1.432-.553-.78-2.312-.653-2.714 2.06z" fill="#eab1bd" fill-rule="evenodd"/><path d="M99.946 179.374l.48 1.474.284 1.653v.428l.32-.96v-1.048l-.728-1.387zM101.155 179.036l.444.73.425 1.26v1.137l.285-.96-.054-1.012-.39-.834z" fill="#c38780" fill-rule="evenodd"/><path d="M96.943 180.458l.586.237.414.163.427.29.202.502.025.703-.113.49-.213.453-.075.1.54-.527.202-.542.014-.77-.265-.585-.32-.515z" fill="#d59ab3" fill-rule="evenodd"/><path d="M96.783 180.102l-.485.316-.465.352-.226.478v.188l.24-.377.45-.29.63-.138.39-.025-.374-.15z" fill="#e0aa93" fill-rule="evenodd"/><path d="M98.195 183.396l-.25.314-.53.327.523.08.782-.976.23-.657-.013-.155-.2.54z" fill="#f3c5e4" fill-rule="evenodd"/><path d="M97.416 184.037l-.722-.145-.728-.618-.444-.666-.125-.365.21-.807.24-.377.45-.29.63-.138.39-.025.627.25.427.29.204.457.023.75-.113.49-.213.452-.326.414z" fill="#fcdff3" fill-rule="evenodd"/><path d="M95.833 180.77l-.276.277-.34.546-.1.603v.44l.15.452.208.32.308.277.565.32.396.108.616.037.578-.032-.522-.08-.722-.146-.728-.618-.444-.666-.125-.365.21-.807v-.188z" fill="#b0648c" fill-rule="evenodd"/><path d="M106.237 182.128l-.054-.533.32-.285 1.14.026.906-.402 1.205-.73-.32.236v.586l-.906.587-1.032.55z" fill="#c282a5" fill-rule="evenodd"/><path d="M65.375 182.366l-.854-.68h-.728l-.402.278-.78.704-.06.615v.49l.177.603.49.56.62.222.454.07.747-.186.658-.56.222-.506.044-.41-.194-.487z" fill="#e2aace" fill-rule="evenodd"/><path d="M109.53 170.43l-.34.96-1.696 1.527-3.33 1.847-1.847 1.596-.878.775-.054-2.666.408.23.622-.09.285-.32.214-.372-.018-.568-.195-.16 2.093-.91 1.38-.6.862-.31 1.67-.734z" fill="#26206e" fill-rule="evenodd"/><path d="M115.008 185.633l-1.282.1-1.13-.1-1.51-.377-1.406-.553-1.506-.78-1.937-1.795-.2-.24-2.963 1.278-3.067.892-2.62.6-3.027-.052.31 1.636 4.032.104 3.12.435 8.75.66-1.882-.047-6.762-.126-9.337-.503-2.11-.95-1.785 1.352-.44.986.087 1.546.214 2.363.818 4.436 3.92 1.923 6.02-.35 3.93.32.807 1.115 2.01.704 3.557.878.24 1.332-1.924 2.815 4.398.414.366 1.495 2.274-2.363-1.22-2.16-1.356-1.207.754-1.948 2.224-2.186.817-1.922-4.26 1.898-1.735.452-.25-.79 3.404-.97 2.41-2.36-6.62 1.582-4.16.138-1.27-.138 6.51.25 2.802-1.47 2.413-2.034.502-1.144-4.8.15-4.862.868-2.438.063 1.646-.352 3.09-.59.956-.264 3.216-1.33 2.06-2.112-4.925 1.18-4.824.855c-14.247 1.17-4.774-.06 4.07-.617l1.836-.98 1.583-.364z" fill="#1f215a" fill-rule="evenodd"/><path d="M88.893 191.884l.783 3.902 3.62 1.407 6.544.2h4.01l.2 2.112 2.222 1.263 2.204 1.28-.533 1.848-.32 1.492.782.57 3.34-.463.95 1.65-.7 2.473.96 2.345-16.142-.195-.557-1.484 4.344-1.42-6.335-.92-5.24.266-5.723 1.237-.432-3.438 3.25-1.048 2.61-1.29 3.262-1.045-1.506.26-4.83 1.883 1.354-2.473c-13.275-.58.604-2.322.675-3.306l.444-2.362-.232-1.866z" fill="#21015a" fill-rule="evenodd"/><path d="M112.954 211.963l.872-2.23 1.61-3.543.552-3.72.176-4.624.477-3.82.554-3.945.3-2.763.077-1.558.152-1.233-1.558.603-1.156.503-2.966 1.357-1.47.45-1.897.756-6.383.402-3.87-.2-3.97.602 1.255.654 4.02.3 4.7-.426 5.454-.83 4.474-1.306-2.312 1.76-3.116 1.256-3.317.73-3.318.928h3.82l9.7-1.156-.905.603-2.413 2.212-3.317.905-8.846.35 4.726 1.208 4.523-.2 5.528-2.012-2.513 1.71-3.217 1.004.302 1.207h2.814l3.117-2.212-.804 1.407-2.11 2.212-.302 2.11 1.005 1.51 1.205 1.305-1.91 2.915-.7 2.473z" fill="#454d95" fill-rule="evenodd"/><path d="M104.05 199.505l1.922.384 4.512.218-.2 2.312-2.112 2.815 4.423-.1.1 2.01-.985-1.117-3.305.64-1.173-1.457.284-1.847-.213-1.315-1.19-1.138z" fill="#3c397f" fill-rule="evenodd"/><path d="M102.24 24.497l-.552.616v.34l.805-.73z" fill="#c794ad" fill-rule="evenodd"/><path d="M41.91 59.818l2.13.565-.956 5.88-.072 3.684.037 2.56.175 3.446.462 3.91-1.88-5.235-.178-8.022.35-3.625-.474-1.63-.343-.857z" fill="#645b5b" fill-rule="evenodd"/><path d="M41.163 60.493l-.817 1.457-.924 2.915-.498 2.132v1.777l-1.28 1.35-1.065 2.346-1.423 2.346-.853 1.137-2.06 6.184-1.067 2.843-.213 2.772-1.493 3.838-1.42 6.184-1.564 5.402-.71 3.057-.854 4.762-.64 3.092.906 1.777 2.656.872 1.63 1.46.423.83-1.777.344-2.203.226c-.498-2.186-.995.072-1.493.108l-.924 1.953h6.043l3.748 1.102 4.924 1.243-5.527-.622-4.353-.977-4.247 1.244-.995.64.693 1.564 2.416-.355 2.702-.924 3.2.41 4.05.16 3.964.163.285-1.534.56-3.376.484-3.297.057-5.95.353-5.253.427-2.74.402-11.207.352-3.77.653-3.72v-4.595l-1.53-5.686-.176-11.195-.253-1.114z" fill="#492f47" fill-rule="evenodd"/><path d="M24.993 115.402l-.656 1.122-.528.905.125 1.205-.113.955.602.29 1.493-.284h2.203l1.777-.57-.284-.994-1.706-1.635z" fill="#39213f" fill-rule="evenodd"/><path d="M38.214 124.003l-4.834-1.635-3.838-.85-6.042.14-.515.568-.302.444.39.924 1.813-.253 3.448-.332 4.176.728z" fill="#210f2a" fill-rule="evenodd"/><path d="M28.902 124.57l-2.84.812-2.277.47 1.124 1.42 1.138.1 2.967-1.26c.824-.153 1.72 4.51 2.357-.272l2.214.453.954.11.528.372-.728.882-.755 1.108 2.123.352 2.79-1.032.814.434 1.14 1.24-.165 1.356-1.06.98-4.396.67-1.698.868 1.776.035 3.98-.242 1.784.235.387 1.002-1.753.863-6.084 1.73 1.934.986 4.62-.524 1.495.05.282.767.558 1.565-.842.462-2.095 1.21 1.917.177h.924c.32.285-1.122 1.547.71.853l.064 1.135-2.37 1.288-1.622.732 3.218-.01 1.24-.215-.173 1.726.13.71-2.767 1.777 2.317.3.68-.417.038 1.61-.024 1.634-1.747 1.47-2.043 1.586-1.835 1.684-.955 1.696-1.043 2.902 2.048-1.432 1.496-1.583 1.922-1.445.903-1.13 1.38-1.503.142-.396-.415 1.91-.29 1.344.693.226 1.005-.98.817-1.03.917-.515 1.96.463 1.734.088-1.432-1.33-3.82-2.594-.804-10.45-.026-4.937-2.035-5.97.265-4.3-.844-12.336-.038 2.665-.564 2.687-.857 5.273-2.95-.11z" fill="#210f2a" fill-rule="evenodd"/><path d="M24.282 114.087l-.75 1.583-.25 1.206v1.66l-.352 1.557-.704.955v1.206l.15 1.307-.15 1.207-.1 1.156.15 1.156.453 1.256.05.653v.703l.602 3.015.654 3.77.954 3.518.955 3.97 2.463 7.39 1.106 1.758v1.91l1.76 4.122 1.246 3.903 2.975 4.64 1.458 2.362 2.613 3.97 1.76-2.16 1.96-1.71 2.11-4.46-3.003 2.073-1.683.302-.83-1.772v-1.633l.73-2.1-1.824-1.49-3.392 2.017-.936-1.807.795-2.51 1.548-1.03 2.11-2.9-3.214.224-1.95.356-.408-1.307-.193-2.048 3.116-3.046-1.62.07-2.814.655-.334-1.455-.53-1.812 1.583-.923 2.435-1.012 2.452-2.204-4.71.48-2.505-.017-.853-1.297.853-1.368.036-1.138.87-.284-1.297-.835-2.328-1.225.303-1.21 1.724-.46 1.617-.303-3.82-1.706-1.36-.766.32-.79 4.577-2.086 1.03-.71-2.416-.215-2.434.64-1.415-.88-1.534-.902-.3-1.417-.428-1.563.995-.64 3.98-.64-3.447.196-1.812.39-.39-.923 1.083-1.03.657-1.76-.49-.39.102-2.06.655-.873.303-1.155z" fill="#4a3541" fill-rule="evenodd"/><path d="M43.285 170.153l2.236-2.655 2.29-3.125 1.507-1.91 2.513-3.77-.352-1.106-1.332-1.156-3.845-1.13-1.004.73-.68 1.155-.903 1.08-.528-.15.704-3.443-2.866 2.69-1.91 1.934-1.232 1.684-1.784 1.206-.375-2.367-.932-1.278-.652 2.865 1.256 2.16 3.267-2.21 1.56 1.206-.604 2.01-.15 1.76 1.156 2.11 2.01-.4 2.362-1.91z" fill="#59445a" fill-rule="evenodd"/><path d="M23.785 125.85l1.137 1.245h1.013l2.967-1.12 2.47-.462 2.24.302 1.154.338.302.622-.426.995-.906.995h1.972l2.79-1.12.977.622.978 1.493.035 1.368-1.048 1.12-4.496.693-1.812.694 2.914-.373 2.843-.07 1.883.373.462 1.102-1.777 1.1-5.97 1.494 1.67.745 4.62-.675h1.67l.533 1.03.32 1.742-2.95 1.635h2.666l.96 1.066-.036 1.173-2.38 1.35-1.422.57 4.407-.427-.143 2.7-2.63 1.777h1.99l.996-.57v3.697l-3.966 3.182-1.834 1.86-.93 1.557-.93 2.513-.553-2.136-.754-1.508 2.313-1.76 1.558-1.708-2.964.704h-2.11l-.906-1.608-.05-2.262 3.418-2.815-4.222.654-1.307-3.267 1.794-1.225 2.63-1.208 1.848-1.564-3.91.64-3.482.284-.64-1.848-.142-1.707 2.132-1.137-1.634-.284-2.133-1.777v-1.493l2.346-.57h1.49l-3.695-1.207-1.492-1.137.497-1.066 5.758-2.56H29.47l-2.7.57-1.564-.782-1.42-1.067z" fill="#573e54" fill-rule="evenodd"/><path d="M32.1 161.426l-1.847 7-1.564 5.9-.57 3.84v4.975l3.483 2.63 1.635.712 4.052-2.062 6.04-3.27.428-1.137-.782-1.35-1.208-3.252-.516.374-.497-.053-.213-.248-.32-.89-.656-.57-5.084-8.082-1.802-3.176z" fill="#482c42" fill-rule="evenodd"/><path d="M39.566 174.023l.656.57.32.89.213.248.497.054.928-.83 1.91-1.157 1.608-1.03 1.633-1.03 1.685-1.157 1.282-1.03.528-.654.854-1.03.502-1.18-2.262-1.56v-.904l-.25-1.08-.353-.68-.277.302v1.13l-.142 1.86.042 2.062-.453.804-.402-.78.15-1.91v-1.482l-.376.15-.755 1.282-.352 1.282-.15 2.06.2.88-.452-.93-.15-1.18-.175-.252-.176 1.433.225.703.276 1.508-.878-.578-.528-.553-.2-.73-.277-.5-.428.702-.177.352 1.13 1.458.98.653-1.43.83-1.86 1.215-1.132.745h-.426l-.402-.578z" fill="#faf5fe" fill-rule="evenodd"/><path d="M49.04 162.764l-1.608 2.11-4.147 5.28-1.96 1.707-1.76 2.163 1.157.377.402.578h.427l2.992-1.96 1.432-.83-.98-.653-1.13-1.458.175-.352.427-.703.276.502.2.73.53.552.878.578-.275-1.508-.226-.703.175-1.433.176.25.15 1.183.454.93-.2-.88.15-2.06.35-1.283.755-1.28.376-.152-.15 3.393.4.78.454-.804.075-2.338z" fill="#c3adc7" fill-rule="evenodd"/><path d="M43.758 180.013l-.782-1.35-1.208-3.252.412-.457 1.985-1.207 1.332-.88 1.497-.914 2.02-1.372 1.283-1.03 1.13-1.383.434.473-1.412 1.186-3.066 2.262-2.01 1.382-1.012.76-1.42 1.17-.082 1.33.383 1.364z" fill="#7c4281" fill-rule="evenodd"/><path d="M43.758 180.013l1.173.64 1.316.498 1.883.214 1.883-.39 1.69-1.16.967-1.862-1.327-2.294-1.67-.99-1.493-.917-1.41-.63-.524-.18-.875.53-1.18.603-1.382 1.256-.1 1.256z" fill="#b66f81" fill-rule="evenodd"/><path d="M48.13 181.364l1.58-.018 1.405-.142 1.58-.284 1.458-.516 1.173-.533.09-.212-.392-.73-.746-1.118-.445-.89-.105-1.096-.02-1.924.5-1.137 1.083-.533h.89l1.154.124.338.018-1.12-1.42-1.155-1.174-.96-.587-1.74-.603h-.943l-.3.284-1.006.956-5.26 3.772 1.027-.4 1.7 1.093 3.377 1.707 1.102 1.955-.853 1.635-1.527 1.386z" fill="#bb8090" fill-rule="evenodd"/><path d="M53.947 172.992l.697 1.03-.653 1.333.196.74.427 1.02.66 1.38.703 1.082-.56.08-.392-.728-.746-.913-.507-1.09-.168-1.125.107-1.902z" fill="#a26c76" fill-rule="evenodd"/><path d="M54.016 173.32l.76.716.855 1.843 1.65 1.32 1.266 1.318.873.933.45.428-.125.97-.107.43.384-.495.377-.478.175.503.116.37-.26.518-.006.77.88.484.333.038.308-.572.703-.747 1.144-.7.477.29.25.427h-.728l-.402.277-.78.704-.112 1.005.018.733-.088.564-1.074-.5-1.112-.948-.898-1.156-1.508-1.344-1.054-1.05-.296-.282h-.51l-.726-1.003-1.033-2.2-.226-1.132-.1-1.03z" fill="#aa6b7e" fill-rule="evenodd"/><path d="M59.87 179.878l.698-.45.604-.197.622-.034-.728.178-.445.32-.247.408-.35.68-.403.604v-.528zM60.324 181.838l.457-.492.8-.817.57-.73-.693.533-.587.515-.295.287z" fill="#a55d7e" fill-rule="evenodd"/><path d="M57.672 172.372l1.64 2.38.943 1.507 1.22 1.432 1.406 1.59 1.264 1.325.678.854.478.83.075.076-.854-.68-.25-.426-.478-.2-1.08.627-.654.73-.377.703-.376-.05-.88-.603-.1-.63 1.053-1.175.773-.862-.693.533-.882.802v-.327l-.176-.503-.378.478.35-.68.25-.41.444-.32.728-.177-.622.035-.604.197-.697.45-.45-.426-2.033-1.676-1.863-1.766-.855-1.91-.654-.78-.094.227.036-.302.25-.48 1.083-.533 1.005-.027z" fill="#dda2ae" fill-rule="evenodd"/><path d="M62.61 182.668l-.06.615v.49l.177.603.49.56.62.222.454.07h1.067l-.346.196-.737.125-.595-.028-.586-.17-.7-.354.018-1.325z" fill="#b47899" fill-rule="evenodd"/><path d="M65.357 185.23l.347-.277.275-.328.186-.24.035-.427-.096-.542-.187-.364-.542-.686.39.713.196.487-.043.41-.222.505-.35.28-.308.28-.746.187z" fill="#f9d5f3" fill-rule="evenodd"/><path d="M53.247 162.76l2.506 1.136 3.642.995 3.44 1.027-.543.787-.353 3.168-.06 3.26-2.005-.333-2.168-.677-.942-.835-.213-.337-1.155-1.172-.96-.587-1.74-.603h-.943l-.326-.42.25-.3.504-1.182.265-1.19z" fill="#4e0432" fill-rule="evenodd"/><path d="M64.563 166.525l4.28.873 5 .837 2.82.485-.557 1.887-.057 1.793.016 1.37.15 1.424-.26.462-1.9.18-4.585-.828-3.725-.822-1.953-.262-.344-.954.05-1.11-.067-1.276.11-1.3.25-2.09z" fill="#610034" fill-rule="evenodd"/><path d="M84.38 169.245l-.358-.324h-.943l-3.47.026-1.532.15-.666.114-.3.314-.177.478-.138.892V172l.063.352.578.025.037.264v.54h-.578v1.384l.176 1.205.15.54.453.29 1.508.225 2.186.075 2.338.073 1.093.19v.076l-1.356.112-6.157.553-.704-.93-.39-.79-.238-.53-.226-1.884v-2.223l.074-1.118.503-1.71.125-.29.365-.175 2.16-.075 3.004-.025h2.1l.464.15.252.58.176.602h-.15z" fill="#b59484" fill-rule="evenodd"/><path d="M84.06 168.155l.766.02.195.087.045.515V169.45l-.113.037-.176-.603-.252-.578z" fill="#fbfeff" fill-rule="evenodd"/><path d="M78.28 169.11l1.444.107 2.492.31 2.694.334 2.04.117-2.45 1.47-.98.967-2.665.126-1.583.314-.15.654-.09 1.37.944.527 1.67.452 2.313.64 1.788.76-.947-.093-3.266-.25-2.35-.09-1.508-.225-.452-.29-.15-.54-.177-1.207v-1.382h.578v-.54l-.037-.263-.578-.025-.063-.352v-1.106l.138-.892.176-.478.302-.314.666-.113z" fill="#4e1217" fill-rule="evenodd"/><path d="M86.334 170.278l-.798 1.992.13 2.662.97 1.202 1.407.754-2.086.49-2.04-.84-3.94-1.026-.953-.44.017-1.387.17-.946 1.645-.2 2.513-.73 1.13-.363z" fill="#782136" fill-rule="evenodd"/><path d="M81.68 173.332l-.18.07-.08.196.02.258.212.187.276-.036.195-.195v-.223l.01-.214-.312-.08z" fill="#431334" fill-rule="evenodd"/><path d="M86.772 169.923l1.834.08.072 1.105.173 2.99.352 2.58-.204.034-.905.754-1.458-1.332-1.156-1.13-.05-2.84.904-1.886z" fill="#612734" fill-rule="evenodd"/><path d="M88.998 176.712l.197.218.098-.062.107-.444-.036-1.706-.195-2.372-.028-1.617-.275-.58-.316-.63-.13.482.1.95.098 2.255.124.747.267 1.803.138.78z" fill="#441142" fill-rule="evenodd"/><path d="M88.49 168.847l2.265-.23.812.603.73.78.508 6.712-.892.967-2.853.1.135-.85.205-.506-.4-5.767-.422-1.088z" fill="#683d47" fill-rule="evenodd"/><path d="M91.712 169.9l2.595-.308 3.542-.347 2.292-.382 1.093.24.062 1.315-.018 4.602-.32.142-2.65.48-3.192.724-3.022-.05z" fill="#613034" fill-rule="evenodd"/><path d="M81.768 169.565l2.873-.118.312.04.876-.17 2.754-.183.054.413-.216.455-1.47-.025-2.112.053zM91.106 168.97l3.423-.354 4.227-.66.265.47.018.605-.07.16-7.258.71-.19-.335-.238-.392z" fill="#3e3427" fill-rule="evenodd"/><path d="M101.255 167.376l3.028-.61 1.477-.08 1.463.878 1.458 1.52.095 1.57-1.658.906-2.312.804-3.418 1.357.012-2.5-.034-1.534-.23-1.192-.088-.804v-.113z" fill="#483d1b" fill-rule="evenodd"/><path d="M104.302 166.835l3.173-1.01 1.325-1.138.51-.924.998-.044.226.477.05 1.03.918 3.267.23 1.002-2.102.996-.855.163-.15-1.508-1.508-1.507-1.357-.955z" fill="#3d1337" fill-rule="evenodd"/><path d="M98.454 167.574l.32.545.195 1.07 1.172-.14 1.03.14v5.848l-2.212.48-.15 1.805 1.918-.188.837.49-.178-3.904.163-2.625-.25-2.7-.252-.818-.142-.517-.818.088-1.05.025z" fill="#47347b" fill-rule="evenodd"/><path d="M65.1 166.634l-.027-.565-.552-.19-1.093-.326-.678.075-.103.274-.355.8-.604 3.074-.083 2.863.03.248-.092 1.41-.666 1.157 1.206.78.88.2.716-.842.288-.804-.214-.53.038-.815.05-4.197.427-1.86.577-.703z" fill="#27294e" fill-rule="evenodd"/><path d="M53.438 162.262l2.965 1.357 13.12 3.416 6.18 1.006 4.072-.05-.352-.403.704-.252 1.784.02.98.08 1.056-.402 4.825-.603 1.81.805h2.514l4.322-1.106 2.363.553 2.914-.955-1.357-.352 6.03-.955 1.91-2.11 1.03 1.406-.904.175-.552.83-1.306 1.13-3.242.98-3.016.604-.238.137-.142-.43h-.818l-.995.108-.64.32.39.444-4.263.71-3.412.302-.386-.362-2.262.226.054.313-3.51.24v-.673l-.043-.515-.194-.088-.767-.02-4.327.025h-.862l-2.073.075-.365.176-.125.29-2.463-.2-5-.855-3.997-.98.252-.05-.152-.503-.427-.252-.93-.25h-.703l-.24.274-3.198-.675-3.697-1.085-2.506-1.386z" fill="#370b6c" fill-rule="evenodd"/><path d="M84.022 168.92l-4.41.026-1.534.15 3.69.47 3.033-.08z" fill="#140151" fill-rule="evenodd"/><path d="M43.758 180.013l-.427 1.138-1.207 9.454-.995 5.118-1.99 7.18-.427 4.12-1.207 5.19 13.363-.426-1.68-1.317.226-2.58.78-.867 2.828-10.94.05-2.494-3.413-1.28-4.193-2.488-1.99-2.06v-1.423l3.91 3.624 5.827 1.777 1.37-1.793-.8-.978 3.76.3 8.21.57 4.663-.586-11.657-1.69-4.585-1.51.26-.647 4.61.435 4.158.746 3.536-.888-4.69-.256-.278-.51-.387-.608-1.08-.93-1.057-1.18-1.307-1.245-.892-1.03-.54-.514-.528.15-.56.082-.09.213-1.173.534-1.457.516-1.58.284-1.405.142-1.58.018-1.884-.213-1.315-.497z" fill="#200e3d" fill-rule="evenodd"/><path d="M60.32 172.48l-.494.745.45 1.096.604-.058.663.037.047-.257.025-.485.02-.67z" fill="#8d402c" fill-rule="evenodd"/><path d="M101.387 173.72v.75l.407.23.622-.09.285-.32.214-.372v-.373l-.018-.195-.195-.16z" fill="#dab144" fill-rule="evenodd"/><path d="M82.176 177.988v2.096l-.32 4.692.296 5.832.13 3.337-.266 2.896-.586 4.035-.835 2.737-2.044 1.28 1.814-.925 2.097-.604 4.1.565 4.12-1.608 2.414.2-6.03 2.413-3.82 1.307.2 1.91 5.227-.704h5.63l2.513.302 5.83.904-5.73 1.81-.1 1.307-16.485.2-.604-.905-.2-.905v-2.513l-1.61-2.714-.376-1.332.817-.35.73-1.333.217-3.35-.173-1.016-.574-1.086L77.01 196l-5.21-.268-7.4-2.703 8.468.016 3.343.6 1.568-.578.225-.625-1.897-.243-1.81-.586 2.902-1.38 1.47.025.275-1.108-.56-1.372-2.98-.402-3.93-1.494 4.33-.83 3.558-.69.483.003.547-1.6-.246-2.006-.64-.847-1.59-1.037-1.73-.32-1.155-.955-3.146-1.667-3.57-.313-2.713-.24-1.113.05.266.6.427 1.56.124 1.483.872 1.126.887 2.024-.888.967-.258-.138-.542-.686-.075-.075-.478-.83-.678-.853-1.282-1.257-2.69-3.065-.794-1.22-1.706-2.693-.836-1.066.87.427 2.613.746-.356.745.462.782.39.142.614-.036.16-.07-.01.33-.477 1.08 1.122.567.666.167.726-.707.226-.88-.25-.225.2-.93 1.894.51 3.892.834 3.24.49 1.29.21 1.847.166.628 1.32.654.615 1.714-.055 3.022-.152z" fill="#201840" fill-rule="evenodd"/><path d="M50.372 204.53l6.434 1.107 12.376-1.093 6.484-1.596-2.676 4.7-6.635 3.995-3.217.528-12.272-.384-1.92-1.28v-3.056l.783-.427z" fill="#1e2756" fill-rule="evenodd"/><path d="M63.91 212h11.407l.89-2.524 1.708-4.543-.1-1.407.954.15.577-1.683.453-3.57-.226-1.28-.98-1.13-1.584-.83-4.925-.453-5.127-.955 5.93.453 3.82-.352 1.56-.393.15-.36.15-1.057-1.83-.147-1.873-.253 4.407-1.16.452-1.657-1.306-1.408-6.484-1.558 8.293-1.206.402-1.91-.202-2.06-.603-1.257-1.91-1.356h-1.66l-1.155-.955-3.204-1.32-1.768-.25-3.092-.177-1.435-.19-1.255-.376v4.12l1.22 1.647.84 1.47-.337.97 3.776.045 2.7.665c.992.008 1.32.88 2.933-.267l.782.09-.712.568-3.065.417-3.785.214-.862.533 3.074 1.768 4.834 2.008-1.37.09-1.1.585-2.257.783-4.585.853-3.785.267-6.237.835-3.426-.885-5.175-1.994-4.336-3.27v1.42l2.22 2.31 4.16 2.418 4.157 1.386 7.233-.107 4 1.315 1.527.57 1.972 1.367 7.677.78 1.527 1.69-.284 2.913-.782 1.92-1.918 3.553-1.972-.23-7.037 3.922z" fill="#282158" fill-rule="evenodd"/><path d="M77.023 183.318l-1.03 1.102-7.82.747 2.737 1.563 5.722 2.062v.96l-2.345.532-2.7 1.21-9.17.994-5.73.125-3.476-.872.073-2.06.497-.71 13.064.284-8.302-1.564-4.904-1.635-.782-1.422 6.184 1.21h6.895l-3.89-.4-1.043-.438v-.515l.377-.164 1.712 1.027.586.17.595.026.738-.126.347-.195.347-.277.462-.568.035-.427-.096-.542-.187-.364 3.927-.41 2.914.428h2.986z" fill="#342c54" fill-rule="evenodd"/><path d="M75.037 208.065l2.2-3.814.64-1.9.07-2.86L76.74 197l-7.465-.887-1.883-1.21-1.848-.71-12.013-1.42-3.517-1.138-4.158-2.026-2.38-1.85 1.99 2.062 4.192 2.488 2.844 1.67-2.128 10.55 6.505 1.338 12.293-.935 6.132-1.608-2.54 4.51z" fill="#3d1c6a" fill-rule="evenodd"/><path d="M78.32 205.07l2.044-.463 2.097-.604 4.2.076.776-.753.89-1.386.212-2.948.462-2.382v-2.025l-.107-2.7.605-1.956.414-1.88-1.054-2.315.835-1.386.657-1.334.41-1.937-.214-1.37-1.146-2.47-.107-.372-.295-.156-.955.176-2.375.2-.867.076v.075l-1.293.112-1.535.03-.08.072-.006 3.134-.032 3.525-.044 2.72-.06 3.7-.204 2.017-.64 5.372-.264 2.16-.1.793-.853 2.737z" fill="#26255f" fill-rule="evenodd"/><path d="M112.172 171.377l-.44-1.88-2.203.932-.453.828-1.785 1.483-3.543 1.936-1.17.74-.515.642-.626 1.077h-2.453l-.027-1.617-2.298.267.704 1.957-.25.553-1.522.892-2.588.88-3.09 1.118-.466 1.332-.478 1.508-.114.324v1.385l.44 1.43h1.484l1.81-.4 4.227.498 3.695.285 4.798.07h3.767l1.493-.177-4.156-.647-4.02-.49-3.695-.284-3.767-.57-.462-.568h1.422l1.492-.035 2.275-.285 3.02-1.066 2.098-.924 1.066-.497.19-.186-.226-.33-.32-.143h-.355l-3.056 1.386-1.743.587-1.155.515-1.244.213-.578.032-.616-.037-.396-.107-.565-.32-.308-.277-.207-.322-.15-.452.1-1.043.29-.496.325-.327.465-.352.485-.316 1.32-.59.884-.405.83-.302 1.52-.56 3.015-1.61 1.81-1.456 1.91-1.86 2.01-1.056z" fill="#121533" fill-rule="evenodd"/><path d="M96.662 175.785l1.207 1.957v.553l-4.6 2.488-2.915 1.08-.905 1.106-.478 1.055-.114.324.462-1.707.08-5.404 2.513-.327.226-.302-.013-.293 2.773-.39z" fill="#34347e" fill-rule="evenodd"/></svg>