<svg xmlns="http://www.w3.org/2000/svg" width="100" height="100" viewBox="0 0 26.458333 26.458333"><g transform="translate(0 -270.542)"><circle cx="13.183" cy="283.877" r="10.592" stroke="#000" stroke-width="4.801" stroke-linecap="round" stroke-linejoin="round" paint-order="stroke fill markers"/><path d="M7.806 290.464a8.637 8.637 0 0 0 12.063-1.92 8.637 8.637 0 0 0-1.92-12.063 8.637 8.637 0 0 0-12.064 1.92 8.637 8.637 0 0 0 1.92 12.064z" opacity=".506" fill="none" paint-order="markers stroke fill"/><path d="M7.933 275.56a9.353 9.353 0 0 1 12.805 3.314 9.353 9.353 0 0 1-3.314 12.806 9.353 9.353 0 0 1-12.805-3.314 9.353 9.353 0 0 1 3.313-12.806z" opacity=".458" fill="none" paint-order="markers stroke fill"/><path d="M7.86 291.634a9.35 9.35 0 0 0 12.833-3.196 9.35 9.35 0 0 0-3.196-12.832 9.35 9.35 0 0 0-12.832 3.196 9.35 9.35 0 0 0 3.196 12.832z" opacity=".458" fill="none" paint-order="markers stroke fill"/><path d="M8.51 276.062a8.63 8.63 0 0 1 11.727 3.39 8.63 8.63 0 0 1-3.39 11.726 8.63 8.63 0 0 1-11.726-3.39 8.63 8.63 0 0 1 3.39-11.726z" opacity=".506" fill="none" paint-order="markers stroke fill"/><path d="M7.933 275.56a9.353 9.353 0 0 1 12.805 3.314 9.353 9.353 0 0 1-3.314 12.806 9.353 9.353 0 0 1-12.805-3.314 9.353 9.353 0 0 1 3.313-12.806z" opacity=".458" fill="none" paint-order="markers stroke fill"/><path d="M7.86 291.634a9.35 9.35 0 0 0 12.833-3.196 9.35 9.35 0 0 0-3.196-12.832 9.35 9.35 0 0 0-12.832 3.196 9.35 9.35 0 0 0 3.196 12.832z" opacity=".458" fill="none" paint-order="markers stroke fill"/><path d="M8.51 276.062a8.63 8.63 0 0 1 11.727 3.39 8.63 8.63 0 0 1-3.39 11.726 8.63 8.63 0 0 1-11.726-3.39 8.63 8.63 0 0 1 3.39-11.726z" opacity=".506" fill="none" paint-order="markers stroke fill"/><path d="M21.347 274.27c.24.21.448.41.593.572.073.08.13.152.173.22a.42.42 0 0 1 .053.112c.01.033.022.09 0 .153l-.052.354a.21.21 0 0 1-.044.132.197.197 0 0 1-.018.02l-.116.135a.197.197 0 0 1-.03.033.197.197 0 0 1-.122.055.277.277 0 0 1-.098 0 .49.49 0 0 1-.116-.038 1.838 1.838 0 0 1-.252-.14 6.64 6.64 0 0 1-.53-.39l-1.653 1.922.197.166c.58.5 1.085.977 1.435 1.35.176.186.312.346.404.477a.906.906 0 0 1 .11.188.263.263 0 0 1 .01.208.197.197 0 0 1-.042.077l-.137.16-.26.304-.036.04a.197.197 0 0 1-.01.01.197.197 0 0 1-.007.007c-.005.006-.01.007-.016.01a.197.197 0 0 1-.012.01c-.05.04-.11.06-.152.06a.367.367 0 0 1-.125-.02 1.286 1.286 0 0 1-.244-.11 6.8 6.8 0 0 1-.68-.446 1.214 1.214 0 0 0-1.323.355l-3.83 4.45a.197.197 0 0 1-.015.016l-.08.096a1.01 1.01 0 0 1-.96.333l-.317.37a.197.197 0 0 1-.014.015.197.197 0 0 1-.002.002c-.002 0-.004.005-.006.006l.005-.004a.44.44 0 0 1-.365.12l-.35.407a.197.197 0 0 1-.01.014c-.002 0-.002.002-.003.002-.002 0-.004.005-.006.006l.004-.005a.4.4 0 0 1-.3.115.636.636 0 0 1-.167-.025l-2.87 3.335a.197.197 0 0 1-.045.102l-2.14 2.486a.197.197 0 0 1-.023.024l-1.555 1.29a.197.197 0 0 1-.248.002l-.036-.03a.197.197 0 0 1-.046-.256l1.043-1.733a.197.197 0 0 1 .02-.027l2.138-2.486a.197.197 0 0 1 .094-.06l2.858-3.324a.73.73 0 0 1-.064-.176.427.427 0 0 1 .062-.33l.003-.006.005-.01.357-.414a.466.466 0 0 1 .03-.31.195.195 0 0 1 .035-.065v-.003l.008-.01.242-.28-.205-.176a1.012 1.012 0 0 1-.107-1.425l.08-.092a.197.197 0 0 1 .015-.02l3.83-4.45.284-.332.733-.852.015-.018.298-.345.135-.157a.197.197 0 0 1 .003-.002.197.197 0 0 1 .045-.037.267.267 0 0 1 .19-.04.628.628 0 0 1 .16.047c.108.046.234.118.385.214.267.17.617.428 1.006.735L20.23 275a6.513 6.513 0 0 1-.463-.464 1.832 1.832 0 0 1-.176-.228.502.502 0 0 1-.054-.11.31.31 0 0 1-.016-.09.197.197 0 0 1 .046-.15l.005-.007.14-.16a.197.197 0 0 1 0-.002.197.197 0 0 1 .002 0v-.002a.197.197 0 0 1 .04-.033.25.25 0 0 1 .15-.042l-.067.007.36-.108a.185.185 0 0 1 .04-.016.197.197 0 0 1 .006 0c.014-.003.024-.003.035-.003.017-.002.033 0 .046 0a.197.197 0 0 1 .012 0c.007 0 .012.003.018.003.014.002.027.007.04.008a.197.197 0 0 1 .004.002c.004.003.01.003.014.005a.54.54 0 0 1 .04.017.197.197 0 0 1 .003 0c.004 0 .008.003.01.006.016.006.03.015.046.022a.197.197 0 0 1 .002 0c.003.003.007.003.01.007.016.007.032.018.05.027.003 0 .005.002.007.005.02.01.04.023.06.035l.003.003a.857.857 0 0 1 .066.044l.074.05c.003.003.006.003.008.007l.018.013c.165.117.353.264.54.424a.197.197 0 0 1 0 .004z" style="line-height:normal;font-variant-ligatures:normal;font-variant-position:normal;font-variant-caps:normal;font-variant-numeric:normal;font-variant-alternates:normal;font-feature-settings:normal;text-indent:0;text-align:start;text-decoration-line:none;text-decoration-style:solid;text-decoration-color:#000;text-transform:none;text-orientation:mixed;shape-padding:0;isolation:auto;mix-blend-mode:normal" color="#000" font-weight="400" font-family="sans-serif" white-space="normal" overflow="visible" fill="#fff"/><path d="M21.875 275.098l-.005.002a.197.197 0 0 1 .005-.004zM20.45 273.875a.197.197 0 0 1-.004.008c0-.003.003-.007.004-.008zM21.1 274.58a.197.197 0 0 1-.064.112l.12-.032-.01-.04c-.017-.013-.03-.025-.045-.04zM21.21 274.68a.197.197 0 0 1-.3.124.197.197 0 0 1 .002.002.197.197 0 0 1 .014.014.197.197 0 0 1 .01.016.197.197 0 0 1 .05.03l.047.04a.197.197 0 0 1 .045.056l.01-.01c.014.01.03.023.044.036l-.01.012a.197.197 0 0 1 .066.033l.042.033a.197.197 0 0 1 .027.026.197.197 0 0 1 .03.018l.038.03a.197.197 0 0 1 .028.026.197.197 0 0 1 .03.017c.012.008.023.018.034.027a.197.197 0 0 1 .05.053l.007-.012c.01.008.02.016.032.022l-.02.03a.197.197 0 0 1 .008.037.197.197 0 0 1 .05-.006l.017-.023c.01.008.02.014.03.02l-.007.01a.197.197 0 0 1 .06.024c.007.006.015.01.023.015a.197.197 0 0 1 .023.017.197.197 0 0 1 .024.013l.02.012a.197.197 0 0 1 .017.012l.026-.168a1.402 1.402 0 0 0-.13-.162 5.985 5.985 0 0 0-.435-.424zM20.618 274.2l-.04-.033a.054.054 0 0 1-.015-.012l-.005-.002-.17.163-.01-.012.167-.16-.056-.038c-.02-.015-.04-.026-.06-.038l-.002-.002c-.017-.01-.034-.02-.048-.03l-.006-.002-.03-.015-.126.103c0-.002-.003-.002-.004-.006l.126-.103s-.003 0-.004-.002l-.008-.003v-.002l-.025-.01a.197.197 0 0 1-.002-.002l-.16.048.004.005-.047.037a.197.197 0 0 1 .058.013l.018-.016c.008.007.014.018.023.027l-.007.007a.197.197 0 0 1 .04.034c.01.01.018.02.026.03a.197.197 0 0 1 .03.048l.008-.007.032.035-.007.007a.197.197 0 0 1 .048.035l.036.036a.197.197 0 0 1 .02.025.197.197 0 0 1 .024.02l.04.036a.197.197 0 0 1 .02.026.197.197 0 0 1 .02.015l-.01-.01.02-.022a.197.197 0 0 1 .008-.115l-.083.083a.435.435 0 0 0-.02-.016zM20.044 273.907l-.027.01.027-.007v-.003zM20.05 273.927h-.015a.197.197 0 0 1 .014.01c-.002-.002 0-.008 0-.01zM21.88 275.61v.01-.006zM20.078 274.063l-.013.004a.197.197 0 0 1-.003.008zM20.563 274.484a.197.197 0 0 1-.027-.02l.04.037a.197.197 0 0 1 .02.027.197.197 0 0 1 .012.007l-.017-.017a.197.197 0 0 1-.027-.034zM20.643 274.56a.197.197 0 0 1-.017-.012l.03.027a.197.197 0 0 1-.012-.016zM20.725 274.635a.197.197 0 0 1-.036-.024c-.003-.002-.005-.002-.007-.005a.197.197 0 0 1 .026.04l.008-.01c.006.004.01.01.017.013a.197.197 0 0 1-.01-.014zM20.81 274.713a.197.197 0 0 1-.032-.02l-.016-.015-.034.04a.197.197 0 0 1-.066.16.197.197 0 0 1 .004.005.197.197 0 0 1 .005.003l.146-.165v.002a.197.197 0 0 1-.007-.007zM18.662 277.396a.197.197 0 0 1-.197-.03c-.385-.31-.714-.55-.982-.73l.073.08a.197.197 0 0 1 .008.01.197.197 0 0 1 .01.007l.123.127a.197.197 0 0 1 .01.01.197.197 0 0 1 .01.008c.043.046.09.092.138.14a.197.197 0 0 1 .007.007.197.197 0 0 1 .007.006l.157.155a.197.197 0 0 1 .003.002.197.197 0 0 1 .005.005l.175.166a.197.197 0 0 1 .003 0l.11.105c.012.008.02.02.032.028l.034.03v.004l.01.01a.197.197 0 0 1 .002 0l.006.006.016.014.054.048a.197.197 0 0 1 .002.003.197.197 0 0 1 .003.002s.002 0 .002.003c.03.028.063.055.095.084l.017.015a.197.197 0 0 1 .002 0 .197.197 0 0 1 .003.003l.002.002h.002v.002a17.223 17.223 0 0 0 .186.164.197.197 0 0 1 .012.01.197.197 0 0 1 .01.01l.135.116.188.16a.197.197 0 0 1 .015.014.197.197 0 0 1 .014.012c.057.05.114.097.172.143a.197.197 0 0 1 .02.02.197.197 0 0 1 .026.017c.052.044.104.087.156.127a.197.197 0 0 1 .028.026.197.197 0 0 1 .033.02c.046.04.094.076.14.113a.197.197 0 0 1 .03.03.197.197 0 0 1 .04.024c.037.03.075.06.112.087a.197.197 0 0 1 .04.044.197.197 0 0 1 .05.026l.08.06a.197.197 0 0 1 .048.053.197.197 0 0 1 .065.03c.02.016.042.03.062.045a.197.197 0 0 1 .053.058.197.197 0 0 1 .073.03l.043.03a.197.197 0 0 1-.226.325l-.045-.03a.197.197 0 0 1-.056-.06.197.197 0 0 1-.075-.033l-.064-.046a.197.197 0 0 1-.05-.054.197.197 0 0 1-.067-.03l-.083-.062a.197.197 0 0 1-.04-.044.197.197 0 0 1-.05-.027c-.04-.03-.078-.058-.116-.09a.197.197 0 0 1-.03-.032.197.197 0 0 1-.04-.022l-.144-.114a.197.197 0 0 1-.028-.027.197.197 0 0 1-.033-.02c-.052-.044-.106-.087-.16-.13a.197.197 0 0 1-.02-.023.197.197 0 0 1-.027-.016l-.174-.144a.197.197 0 0 1-.015-.014.197.197 0 0 1-.015-.012 33.512 33.512 0 0 1-.192-.163c-.046-.04-.09-.08-.136-.118a.197.197 0 0 1-.01-.01.197.197 0 0 1-.012-.01l-.187-.163a.197.197 0 0 1-.002 0l-.004-.004a.197.197 0 0 1-.004-.003.197.197 0 0 1-.004-.002l-.01-.008c-.002-.002-.004-.006-.007-.007l-.098-.087a.197.197 0 0 1-.003 0 .197.197 0 0 1-.003-.004 6.926 6.926 0 0 1-.075-.068h-.002a.197.197 0 0 1 0-.002.197.197 0 0 1-.003 0v-.002l-.012-.01h-.002l-.03-.03a.197.197 0 0 1-.006-.004l-.02-.02-.12-.11a.197.197 0 0 1-.003-.003l-.178-.168a.197.197 0 0 1-.003-.005.197.197 0 0 1-.006-.005l-.162-.157a.197.197 0 0 1-.006-.007.197.197 0 0 1-.008-.007l-.143-.143a.197.197 0 0 1-.01-.01.197.197 0 0 1-.01-.008l-.127-.133a.197.197 0 0 1-.008-.008.197.197 0 0 1-.01-.01l-.114-.123a.197.197 0 0 1-.008-.007.197.197 0 0 1-.008-.007l-.106-.12a.197.197 0 0 1-.002-.003.197.197 0 0 1-.004-.004 3.11 3.11 0 0 1-.094-.115h-.002c-.007-.008-.01-.016-.017-.024-.016-.022-.03-.042-.045-.06l-.232.268-.015.018-.733.852-.285.33-3.813 4.433a.197.197 0 0 1-.015.02l-.096.112a.61.61 0 0 0 .067.868l.354.305a.197.197 0 0 1 .022.278l-.36.417a.197.197 0 0 1-.004.007c.01-.012-.012.02.025.113a.197.197 0 0 1-.034.2l-.415.482.003.023a.505.505 0 0 0 .08.166.197.197 0 0 1 .003.004.197.197 0 0 1 .01.007c.005.01.012.02.02.028a.197.197 0 0 1 0 .003.197.197 0 0 1 .007.008l.024.03a.197.197 0 0 1 .004.002.197.197 0 0 1 .008.007.33.33 0 0 1 .025.027.197.197 0 0 1 .006.008.197.197 0 0 1 .012.01l.02.02a.197.197 0 0 1 .007.008.197.197 0 0 1 .013.01.437.437 0 0 0 .023.02.197.197 0 0 1 .013.012.197.197 0 0 1 .02.013l.018.015a.197.197 0 0 1 .013.01.197.197 0 0 1 .014.008.06.06 0 0 1 .016.012.197.197 0 0 1 .014.01.197.197 0 0 1 .016.01c.004 0 .008.005.012.007a.197.197 0 0 1 .016.012.197.197 0 0 1 .017.006c.003.003.006.003.01.006a.197.197 0 0 1 .016.012.197.197 0 0 1 .02.007c0 .002.004.004.006.006a.197.197 0 0 1 .01.007.197.197 0 0 1 .015.005c.07.03.126.04.156.04.012.002.013.002.016 0l.414-.482a.197.197 0 0 1 .193-.064c.098.022.124-.002.115.007a.197.197 0 0 1 0-.002l.24-.277a.197.197 0 0 1-.006 0c-.006-.004-.01-.01-.012-.01a.197.197 0 0 1-.004 0 .197.197 0 0 1-.005-.003c-.006-.003-.01-.008-.012-.008a.197.197 0 0 1-.004-.003.197.197 0 0 1-.005-.003c-.003 0-.004-.003-.005-.003-.003 0-.007-.005-.01-.006a.197.197 0 0 1 .248-.307.04.04 0 0 1 .008.007h.002a.197.197 0 0 1 .005.004c.003.002.005.002.006.005a.197.197 0 0 1 .002 0 .197.197 0 0 1 .004.003l.007.005a.197.197 0 0 1 0 .002.197.197 0 0 1 .004.003l.01.006a.197.197 0 0 1 0 .002.197.197 0 0 1 .004.002c.003.002.006.002.008.005a.197.197 0 0 1 .005.002c.003.003.006.003.007.005a.197.197 0 0 1 .002 0 .197.197 0 0 1 .003.003l.007.005a.197.197 0 0 1 .006.002c.003 0 .005.002.006.005a.197.197 0 0 1 .002 0 .197.197 0 0 1 .004.003h.002c.002.002.003.004.005.004a.197.197 0 0 1 .005 0c.003.002.006.003.007.006a.197.197 0 0 1 .003 0 .197.197 0 0 1 .004.002l.007.002a.197.197 0 0 1 .005.002l.008.002a.197.197 0 0 1 .002 0 .197.197 0 0 1 .003.002l.008.002a.197.197 0 0 1 .002 0 .197.197 0 0 1 .003.002c.003 0 .006.003.01.003a.197.197 0 0 1 .004.002.197.197 0 0 1 .002 0c.23.08.495.017.666-.182l.096-.112a.197.197 0 0 1 .015-.015L17.94 280a1.613 1.613 0 0 1 1.78-.463.197.197 0 0 1 .047.026c.278.203.508.354.665.44.06.033.097.047.13.06l.247-.288.057-.066a.197.197 0 0 1 .01-.03c-.012-.018-.014-.027-.032-.05a4.4 4.4 0 0 0-.368-.435c-.336-.358-.833-.83-1.405-1.32-.115-.1-.23-.198-.345-.292a.197.197 0 0 1-.068-.188z" style="line-height:normal;font-variant-ligatures:normal;font-variant-position:normal;font-variant-caps:normal;font-variant-numeric:normal;font-variant-alternates:normal;font-feature-settings:normal;text-indent:0;text-align:start;text-decoration-line:none;text-decoration-style:solid;text-decoration-color:#000;text-transform:none;text-orientation:mixed;shape-padding:0;isolation:auto;mix-blend-mode:normal" color="#000" font-weight="400" font-family="sans-serif" white-space="normal" overflow="visible"/><path d="M13.4 284.77c0-.002-.004-.004-.006-.006a.197.197 0 0 1 .007.005zM11.8 284.317a.197.197 0 0 1-.02.073.14.14 0 0 0 .02-.073zM12.734 285.272v.002a.197.197 0 0 1 0-.002zM11.367 285.136a.197.197 0 0 1-.017.06.157.157 0 0 0 .017-.06zM12.003 285.82zM11.993 285.832v.002zM11.458 285.998c-.005-.002-.01-.007-.014-.01a.197.197 0 0 1-.017-.013.197.197 0 0 1-.018-.013l-.026-.02a.197.197 0 0 1-.02-.02.197.197 0 0 1-.026-.018.63.63 0 0 1-.03-.027.197.197 0 0 1-.008-.01.197.197 0 0 1-.017-.013c-.01-.007-.018-.017-.027-.026l-2.87 3.336a.197.197 0 0 1-.092.06l-2.06 2.393-.505.84.754-.626 2.058-2.392a.197.197 0 0 1 .046-.102z" style="line-height:normal;font-variant-ligatures:normal;font-variant-position:normal;font-variant-caps:normal;font-variant-numeric:normal;font-variant-alternates:normal;font-feature-settings:normal;text-indent:0;text-align:start;text-decoration-line:none;text-decoration-style:solid;text-decoration-color:#000;text-transform:none;text-orientation:mixed;shape-padding:0;isolation:auto;mix-blend-mode:normal" color="#000" font-weight="400" font-family="sans-serif" white-space="normal" overflow="visible"/><path d="M21.098 279.746l-.136.16-.263.304-.036.04-.008-.007c0 .01-.003.02-.007.025-.063.07-.432-.132-.996-.544a1.414 1.414 0 0 0-1.562.405l-3.83 4.45v-.002l-.095.112a.812.812 0 0 1-1.148.086l-1.402-1.205a.812.812 0 0 1-.086-1.146l.096-.112 3.828-4.45.285-.333.734-.853.015-.018.297-.346.136-.16c-.1.13.747 1.03 1.896 2.02.615.53 1.224 1.002 1.664 1.292l.003.003.134.085.01.006.11.067.015.01.09.047c.007.002.012.007.02.007.025.013.048.024.07.033l.02.008a.434.434 0 0 0 .05.017c.006.003.013.003.02.006a.17.17 0 0 0 .032.003h.016c.01 0 .018-.006.024-.01z"/><path d="M16.924 276.153a2.754.295 40.705 0 0 1.895 2.02 2.754.295 40.705 0 0 2.28 1.572 2.754.295 40.705 0 0-1.896-2.02 2.754.295 40.705 0 0-2.28-1.572zM19.857 273.924a1.356.178 40.705 0 0 .913 1.018 1.356.178 40.705 0 0 1.14.752l-.135.157a1.356.178 40.705 0 1 0 .003 1.356.178 40.705 0 1-.004.003l-.002.002a1.356.178 40.705 0 1-1.138-.755 1.356.178 40.705 0 1-.915-1.01l-.002-.004.005-.007.14-.16z"/><path d="M20.268 273.8a1.126.148 40.705 0 0 .757.845 1.126.148 40.705 0 0 .95.623l-.057.39a1.356.178 40.705 0 1-.004.034 1.356.178 40.705 0 1-1.144-.75 1.356.178 40.705 0 1-.912-1.02 1.356.178 40.705 0 1 .033-.01z"/><path d="M20.268 273.8a1.126.148 40.705 0 0 .757.845 1.126.148 40.705 0 0 .95.622 1.126.148 40.705 0 0-.757-.846 1.126.148 40.705 0 0-.95-.62z"/><path d="M20.692 274.007a1.097.145 40.705 0 0-.28-.112 1.097.145 40.705 0 0 .74.825 1.097.145 40.705 0 0 .674.512 1.126.148 40.705 0 1-.8-.587 1.126.148 40.705 0 1-.758-.846 1.126.148 40.705 0 1 .424.207z" fill="#fff"/><path d="M11.763 285.947l-3.027 3.518-.5-.43 3.02-3.51a.645.304 40.705 0 0 .21.23.645.304 40.705 0 0 .297.19z"/><path d="M13.288 284.93l-.4.467a.843.377 40.705 0 1-.004.002.843.377 40.705 0 1-.004.004.843.377 40.705 0 1-.303.05l-.42.49a.645.304 40.705 0 1-.003.002.645.304 40.705 0 1-.003.002.645.304 40.705 0 1-.683-.193.645.304 40.705 0 1-.295-.645l.428-.498a.843.377 40.705 0 1 .003-.305l.37-.43 1.046.9c.08.07.173.12.268.154z"/><path d="M8.76 289.485l-2.14 2.487-1.553 1.29-.036-.03 1.044-1.732 2.14-2.487z" style="line-height:normal;font-variant-ligatures:normal;font-variant-position:normal;font-variant-caps:normal;font-variant-numeric:normal;font-variant-alternates:normal;font-feature-settings:normal;text-indent:0;text-align:start;text-decoration-line:none;text-decoration-style:solid;text-decoration-color:#000;text-transform:none;text-orientation:mixed;shape-padding:0;isolation:auto;mix-blend-mode:normal" color="#000" font-weight="400" font-family="sans-serif" white-space="normal" overflow="visible"/><path d="M18.56 277.244v.003a2.146.23 40.705 0 0-.706-.375 2.146.23 40.705 0 0 .475.643 2.146.23 40.705 0 0 .11.112 2.146.23 40.705 0 0 .005.004 2.146.23 40.705 0 0 .13.13 2.146.23 40.705 0 0 .756.686 2.146.23 40.705 0 0 1.345 1.04 2.386.255 40.705 0 1-1.83-1.344 2.386.255 40.705 0 1-1.64-1.75 2.386.255 40.705 0 1 1.357.852zM16.633 276.966c-.025.03.02.12.123.252l-.037.043-.238.277-.012.014-.586.68-.228.266-3.058 3.555v.002l-.075.09c-.235.27-.218.67.038.89l1.05.9c.25.216.63.18.867-.072l-.033.038-.08.09a.668.668 0 0 1-.944.072l-1.152-.992a.668.668 0 0 1-.07-.944l.078-.092 3.15-3.663.234-.274.603-.7.013-.015.244-.284.113-.13zM17.704 280.118l-.024.03a1.456 1.456 0 0 0-.04.04 1.24 1.24 0 0 1 .064-.07z" fill="#fff"/><path d="M13.12 284.95z" fill="red"/><path d="M12.095 284.134l-.317.37a.77.332 40.705 0 0 .002.273l-.376.437a.59.268 40.705 0 0 .122.427.557.262 40.705 0 1-.232-.536l.368-.43a.727.325 40.705 0 1 .003-.263l.32-.37z" fill="#fff"/><path d="M8.558 289.543l-1.773 2.06-1.087.96.98-.94 1.828-2.124zM8.237 289.267l-1.828 2.125-.777 1.103.78-1.212 1.772-2.06z" style="line-height:normal;font-variant-ligatures:normal;font-variant-position:normal;font-variant-caps:normal;font-variant-numeric:normal;font-variant-alternates:normal;font-feature-settings:normal;text-indent:0;text-align:start;text-decoration-line:none;text-decoration-style:solid;text-decoration-color:#000;text-transform:none;text-orientation:mixed;shape-padding:0;isolation:auto;mix-blend-mode:normal" color="#000" font-weight="400" font-family="sans-serif" white-space="normal" overflow="visible" fill="#fff"/><path d="M20.247 273.883a.88.88 0 0 0 .064.094l-.303.128a.07.07 0 0 0-.027.01c-.048-.072-.085-.113-.07-.132l.006-.006c.007-.005.01-.006.026-.006zM19.847 273.99a1.268.133 40.705 0 0 .072.142l-.104.12a1.268.133 40.705 0 1-.074-.136l-.003-.002.004-.006.103-.12z" fill="#fff"/><path d="M20.5 274.99c.043.04.087.076.13.114l.132.112-1.623 1.886-.385.447-.18.21a2.146.23 40.705 0 1-.246-.245l.166-.195.01-.01.053-.063v-.002l.316-.367z"/><g><path d="M18.1 276.09a9.353 9.353 0 0 1-12.805 3.313A9.353 9.353 0 0 1 8.61 292.21a9.353 9.353 0 0 1 12.804-3.315A9.353 9.353 0 0 1 18.1 276.09z" opacity=".458" fill="none" paint-order="markers stroke fill"/><path d="M18.172 292.163a9.35 9.35 0 0 0-12.832-3.196 9.35 9.35 0 0 0 3.196-12.832 9.35 9.35 0 0 0 12.832 3.196 9.35 9.35 0 0 0-3.196 12.833z" opacity=".458" fill="none" paint-order="markers stroke fill"/><path d="M17.522 276.59a8.63 8.63 0 0 1-11.725 3.39 8.63 8.63 0 0 1 3.39 11.727 8.63 8.63 0 0 1 11.725-3.39 8.63 8.63 0 0 1-3.39-11.726z" opacity=".506" fill="none" paint-order="markers stroke fill"/><path d="M18.1 276.09a9.353 9.353 0 0 1-12.805 3.313A9.353 9.353 0 0 1 8.61 292.21a9.353 9.353 0 0 1 12.804-3.315A9.353 9.353 0 0 1 18.1 276.09z" opacity=".458" fill="none" paint-order="markers stroke fill"/><path d="M18.172 292.163a9.35 9.35 0 0 0-12.832-3.196 9.35 9.35 0 0 0 3.196-12.832 9.35 9.35 0 0 0 12.832 3.196 9.35 9.35 0 0 0-3.196 12.833z" opacity=".458" fill="none" paint-order="markers stroke fill"/><path d="M17.522 276.59a8.63 8.63 0 0 1-11.725 3.39 8.63 8.63 0 0 1 3.39 11.727 8.63 8.63 0 0 1 11.725-3.39 8.63 8.63 0 0 1-3.39-11.726z" opacity=".506" fill="none" paint-order="markers stroke fill"/><path style="line-height:normal;font-variant-ligatures:normal;font-variant-position:normal;font-variant-caps:normal;font-variant-numeric:normal;font-variant-alternates:normal;font-feature-settings:normal;text-indent:0;text-align:start;text-decoration-line:none;text-decoration-style:solid;text-decoration-color:#000;text-transform:none;text-orientation:mixed;shape-padding:0;isolation:auto;mix-blend-mode:normal" d="M4.686 274.8c-.24.208-.448.408-.593.57-.073.082-.13.153-.173.22a.42.42 0 0 0-.053.113.244.244 0 0 0 0 .153l.052.354c0 .04.008.085.043.13a.197.197 0 0 1 .018.022h.002l.116.134a.197.197 0 0 1 .03.033.197.197 0 0 1 .12.054.277.277 0 0 0 .1 0 .49.49 0 0 0 .115-.038c.076-.032.158-.08.253-.14a6.64 6.64 0 0 0 .53-.39l1.652 1.922c-.066.056-.132.11-.197.167-.58.5-1.084.977-1.434 1.35-.175.187-.312.346-.404.478a.906.906 0 0 0-.108.187.263.263 0 0 0-.01.208.197.197 0 0 1 .04.076l.138.16.263.304.034.04a.197.197 0 0 1 .01.01.197.197 0 0 1 .006.008c.005.006.01.008.016.01a.197.197 0 0 1 .013.01c.05.04.11.06.152.06.05 0 .087-.007.125-.02.076-.022.153-.06.245-.11a6.8 6.8 0 0 0 .68-.446c.457-.16.986-.04 1.323.354l3.83 4.45a.197.197 0 0 1 .015.016l.08.095c.246.284.615.4.96.333l.317.37a.197.197 0 0 1 .015.016.197.197 0 0 1 .002.002l.005.006-.005-.004a.44.44 0 0 0 .365.122l.35.406a.197.197 0 0 1 .01.014h.003l.006.007-.005-.005a.4.4 0 0 0 .298.115c.056 0 .112-.01.168-.025l2.87 3.335a.197.197 0 0 1 .045.102l2.14 2.485a.197.197 0 0 1 .024.024l1.555 1.29a.197.197 0 0 1 .246 0l.036-.028a.197.197 0 0 1 .047-.257l-1.044-1.733a.197.197 0 0 1-.02-.027l-2.138-2.486a.197.197 0 0 1-.094-.06l-2.858-3.324a.73.73 0 0 0 .063-.177.427.427 0 0 0-.063-.332l-.002-.005c-.003 0-.004-.006-.007-.008l-.357-.416a.466.466 0 0 0-.03-.312.195.195 0 0 0-.034-.064v-.002l-.008-.01-.242-.28.205-.177c.423-.362.47-1.003.108-1.425l-.08-.093a.197.197 0 0 1-.015-.02l-3.83-4.45-.284-.332-.734-.85v-.002l-.015-.017-.297-.346-.135-.157a.197.197 0 0 1-.003-.003.197.197 0 0 1-.045-.038.267.267 0 0 0-.19-.04.628.628 0 0 0-.16.048 2.75 2.75 0 0 0-.385.213c-.267.17-.616.428-1.006.736l-1.667-1.94c.183-.168.346-.33.463-.463.074-.085.133-.16.176-.228a.502.502 0 0 0 .055-.11.31.31 0 0 0 .016-.092.197.197 0 0 1-.046-.15l-.005-.006-.14-.16a.197.197 0 0 1 0-.002.197.197 0 0 1 0-.002H6.32a.197.197 0 0 1-.04-.034.25.25 0 0 0-.148-.042l.066.007-.36-.11a.185.185 0 0 0-.04-.014.197.197 0 0 1-.006 0c-.012-.004-.023-.004-.034-.004-.017-.002-.033 0-.046 0a.197.197 0 0 1-.01 0c-.008 0-.013.003-.02.003-.013.002-.026.007-.038.008a.197.197 0 0 1-.005.003l-.015.004a.54.54 0 0 0-.04.016.197.197 0 0 1-.003 0 .018.018 0 0 0-.01.007l-.045.02a.197.197 0 0 1-.002.002c-.003.003-.006.003-.01.006-.016.008-.032.02-.05.028a.017.017 0 0 0-.007.006c-.02.01-.04.023-.06.035l-.003.002a.857.857 0 0 0-.066.044.197.197 0 0 1-.002 0l-.073.05c-.003.003-.006.003-.008.007l-.018.013a7.29 7.29 0 0 0-.54.424.197.197 0 0 1-.002.003z" color="#000" font-weight="400" font-family="sans-serif" white-space="normal" overflow="visible" fill="#fff"/><path style="line-height:normal;font-variant-ligatures:normal;font-variant-position:normal;font-variant-caps:normal;font-variant-numeric:normal;font-variant-alternates:normal;font-feature-settings:normal;text-indent:0;text-align:start;text-decoration-line:none;text-decoration-style:solid;text-decoration-color:#000;text-transform:none;text-orientation:mixed;shape-padding:0;isolation:auto;mix-blend-mode:normal" d="M4.158 275.627s.003 0 .005.002a.197.197 0 0 1-.005-.005zM5.583 274.404a.197.197 0 0 1 .004.01v-.002a.053.053 0 0 0-.004-.008zM4.932 275.11a.197.197 0 0 1 .065.11l-.12-.03.012-.04.043-.04z" color="#000" font-weight="400" font-family="sans-serif" white-space="normal" overflow="visible"/><path style="line-height:normal;font-variant-ligatures:normal;font-variant-position:normal;font-variant-caps:normal;font-variant-numeric:normal;font-variant-alternates:normal;font-feature-settings:normal;text-indent:0;text-align:start;text-decoration-line:none;text-decoration-style:solid;text-decoration-color:#000;text-transform:none;text-orientation:mixed;shape-padding:0;isolation:auto;mix-blend-mode:normal" d="M4.822 275.21a.197.197 0 0 1 .302.123.197.197 0 0 1-.003.002.197.197 0 0 1-.013.015.197.197 0 0 1-.01.015.197.197 0 0 1-.05.03l-.047.04a.197.197 0 0 1-.045.056l-.01-.01-.044.037.01.012a.197.197 0 0 1-.065.032 1.087 1.087 0 0 1-.042.033.197.197 0 0 1-.027.026.197.197 0 0 1-.03.02l-.038.03a.197.197 0 0 1-.027.025.197.197 0 0 1-.03.017c-.012.008-.023.018-.034.027a.197.197 0 0 1-.05.052l-.007-.012c-.012.007-.022.015-.033.02l.02.03a.197.197 0 0 1-.008.038.197.197 0 0 1-.052-.004l-.016-.024a.268.268 0 0 1-.028.018l.006.01a.197.197 0 0 1-.06.025c-.007.006-.015.01-.023.015a.197.197 0 0 1-.023.018.197.197 0 0 1-.025.013l-.02.01a.197.197 0 0 1-.018.013l-.025-.168c.022-.034.067-.092.13-.162.103-.116.26-.266.435-.423zM5.416 274.728c.01-.008.027-.023.038-.03a.054.054 0 0 0 .016-.014l.005-.002.17.163.01-.012-.167-.16.056-.038.058-.038h.003l.002-.002.046-.028.006-.003c.01-.006.02-.01.028-.016l.127.104c0-.002.003-.002.004-.006l-.126-.102s.002 0 .003-.003l.008-.002.025-.012a.197.197 0 0 1 .002 0l.16.047s0 .002-.003.005l.046.038a.197.197 0 0 1-.058.013l-.018-.017c-.008.008-.014.02-.023.027l.007.006a.197.197 0 0 1-.04.034.197.197 0 0 0-.027.03.197.197 0 0 1-.03.048l-.008-.008a.396.396 0 0 0-.033.034l.007.007a.197.197 0 0 1-.05.036l-.034.037a.197.197 0 0 1-.02.024.197.197 0 0 1-.025.02c-.013.012-.026.025-.04.036a.197.197 0 0 1-.02.026.197.197 0 0 1-.02.014c.004-.002.007-.007.01-.01l-.02-.022a.197.197 0 0 1-.008-.115l.083.083a.435.435 0 0 1 .02-.017zM5.99 274.436l.027.01-.028-.007v-.004zM5.985 274.456h.013a.197.197 0 0 1-.014.01v-.01zM4.155 276.14v.01-.007zM5.956 274.592l.012.005a.197.197 0 0 1 .003.007zM5.47 275.013a.197.197 0 0 1 .027-.02l-.04.037a.197.197 0 0 1-.02.026.197.197 0 0 1-.012.007l.017-.016a.197.197 0 0 1 .028-.035zM5.39 275.09a.197.197 0 0 1 .018-.013l-.03.027a.197.197 0 0 1 .01-.015zM5.31 275.165a.197.197 0 0 1 .034-.025c.002-.002.004-.002.006-.006a.197.197 0 0 1-.026.04l-.01-.01-.016.014a.197.197 0 0 1 .01-.015zM5.223 275.242a.197.197 0 0 1 .032-.02l.016-.015.035.04a.197.197 0 0 1 .066.16.197.197 0 0 1-.003.006.197.197 0 0 1-.004.002l-.146-.165a.197.197 0 0 1 .007-.006zM7.37 277.925a.197.197 0 0 1 .198-.03c.385-.31.714-.55.982-.73l-.073.08a.197.197 0 0 1-.008.01.197.197 0 0 1-.01.007l-.124.128a.197.197 0 0 1-.01.01.197.197 0 0 1-.01.007c-.043.046-.09.092-.138.14a.197.197 0 0 1-.007.007.197.197 0 0 1-.006.006l-.158.154a.197.197 0 0 1-.003.002.197.197 0 0 1-.005.005c-.056.055-.115.11-.175.167a.197.197 0 0 1-.002.002c-.037.032-.073.068-.11.102-.012.008-.02.02-.032.028l-.034.03-.002.003-.01.01H7.63a.014.014 0 0 0-.005.006l-.016.013a2.638 2.638 0 0 1-.055.048v.002a.197.197 0 0 1-.002.002.197.197 0 0 1-.003.003s-.002 0-.002.002l-.095.083-.017.015a.197.197 0 0 1-.002.002.197.197 0 0 1-.004.002c0 .002-.002.002-.002.002l-.002.002s-.002 0-.003.003l-.184.16a.197.197 0 0 1-.012.01.197.197 0 0 1-.01.01l-.135.115-.188.16a.197.197 0 0 1-.015.015.197.197 0 0 1-.014.012c-.057.048-.114.096-.172.142a.197.197 0 0 1-.02.02.197.197 0 0 1-.027.017c-.052.045-.104.088-.156.13a.197.197 0 0 1-.027.026.197.197 0 0 1-.033.02c-.046.04-.094.075-.14.112a.197.197 0 0 1-.03.032.197.197 0 0 1-.04.024c-.037.03-.075.058-.112.086a.197.197 0 0 1-.04.043.197.197 0 0 1-.05.026l-.08.06a.197.197 0 0 1-.048.052.197.197 0 0 1-.065.03c-.02.016-.042.03-.062.045a.197.197 0 0 1-.053.06.197.197 0 0 1-.073.03l-.043.03a.197.197 0 0 1 .225.323c.014-.01.03-.02.044-.032a.197.197 0 0 1 .055-.06.197.197 0 0 1 .074-.032l.063-.046a.197.197 0 0 1 .05-.055.197.197 0 0 1 .067-.03l.082-.062a.197.197 0 0 1 .04-.043.197.197 0 0 1 .05-.028c.04-.03.078-.058.116-.09a.197.197 0 0 1 .032-.03.197.197 0 0 1 .04-.025c.046-.038.095-.075.143-.114a.197.197 0 0 1 .028-.027.197.197 0 0 1 .033-.02c.052-.044.106-.086.16-.13a.197.197 0 0 1 .02-.022.197.197 0 0 1 .027-.017l.174-.144a.197.197 0 0 1 .014-.014.197.197 0 0 1 .015-.013l.19-.163c.046-.04.09-.08.136-.118a.197.197 0 0 1 .01-.01.197.197 0 0 1 .013-.01l.185-.163a.197.197 0 0 1 .002 0l.004-.003a.197.197 0 0 1 .002 0 .197.197 0 0 1 .003-.004.197.197 0 0 1 .004-.002l.008-.008c.003-.002.006-.006.01-.007.03-.03.064-.06.097-.088a.197.197 0 0 1 .004-.003l.074-.07a.197.197 0 0 1 .002 0 .197.197 0 0 1 .002-.002l.012-.01h.002l.032-.03a.197.197 0 0 1 .005-.005c.006-.008.013-.013.02-.02l.12-.11a.197.197 0 0 1 .002-.003l.18-.17a.197.197 0 0 1 .003-.004.197.197 0 0 1 .004-.004c.055-.054.11-.106.16-.158a.197.197 0 0 1 .007-.007.197.197 0 0 1 .008-.007l.143-.144a.197.197 0 0 1 .01-.01.197.197 0 0 1 .01-.007l.127-.133a.197.197 0 0 1 .01-.01.197.197 0 0 1 .01-.007c.038-.043.076-.084.113-.123a.197.197 0 0 1 .007-.008.197.197 0 0 1 .01-.008l.104-.12a.197.197 0 0 1 0-.002.197.197 0 0 1 .005-.005 3.11 3.11 0 0 0 .095-.115v-.002c.008-.007.012-.015.018-.023l.045-.06.232.268.015.018.733.853.285.33 3.813 4.434a.197.197 0 0 1 .016.02l.096.11a.61.61 0 0 1-.066.87l-.354.305a.197.197 0 0 1-.02.278l.358.416a.197.197 0 0 1 .005.008c-.01-.012.012.018-.025.112a.197.197 0 0 1 .034.2l.414.482-.003.024a.505.505 0 0 1-.08.166.197.197 0 0 1-.003.005.197.197 0 0 1-.008.007c-.006.008-.012.02-.02.028a.197.197 0 0 1-.002.002.197.197 0 0 1-.006.007l-.024.03a.197.197 0 0 1-.003.002.197.197 0 0 1-.01.006.33.33 0 0 0-.024.028.197.197 0 0 1-.006.007.197.197 0 0 1-.012.01l-.02.022a.197.197 0 0 1-.007.007.197.197 0 0 1-.012.008.437.437 0 0 1-.023.02.197.197 0 0 1-.013.013.197.197 0 0 1-.018.014l-.02.015a.197.197 0 0 1-.012.01.197.197 0 0 1-.013.007.06.06 0 0 0-.016.012.197.197 0 0 1-.015.01.197.197 0 0 1-.017.008l-.012.008a.197.197 0 0 1-.015.012.197.197 0 0 1-.017.007c-.003.003-.006.003-.01.006a.197.197 0 0 1-.016.013.197.197 0 0 1-.018.007.015.015 0 0 0-.006.005.197.197 0 0 1-.012.007.197.197 0 0 1-.014.005.433.433 0 0 1-.155.042c-.012 0-.013 0-.016-.004l-.413-.48a.197.197 0 0 1-.193-.065c-.1.024-.125 0-.116.008l-.24-.278a.197.197 0 0 1 .006-.002l.01-.007a.197.197 0 0 1 .005-.002.197.197 0 0 1 .004-.002l.01-.008h.002a.197.197 0 0 1 .003-.002.197.197 0 0 1 .004-.003l.004-.002.01-.007a.197.197 0 0 1-.248-.307.04.04 0 0 0-.008.007.197.197 0 0 1-.002.002.197.197 0 0 1-.004.002l-.006.005a.197.197 0 0 1-.002 0 .197.197 0 0 1-.004.004l-.007.005a.197.197 0 0 1-.002 0 .197.197 0 0 1-.003.004l-.008.006a.197.197 0 0 1-.002 0 .197.197 0 0 1-.003.003l-.01.005a.197.197 0 0 1-.004.003c-.003.004-.006.004-.007.006a.197.197 0 0 1-.003 0 .197.197 0 0 1-.003.003l-.008.004a.197.197 0 0 1-.005.003.012.012 0 0 0-.006.004.197.197 0 0 1-.003.002.197.197 0 0 1-.002.003h-.003s-.003.003-.005.003a.197.197 0 0 1-.005.002.012.012 0 0 0-.007.005.197.197 0 0 1-.003 0 .197.197 0 0 1-.003.002l-.008.002a.197.197 0 0 1-.002 0 .197.197 0 0 1-.004 0c-.002.002-.004.004-.008.004a.197.197 0 0 1-.005 0c-.002.002-.004.004-.007.004a.197.197 0 0 1-.003 0 .197.197 0 0 1-.003 0c-.002.002-.005.004-.008.004a.197.197 0 0 1-.002 0 .197.197 0 0 1-.003.002h-.002a.613.613 0 0 1-.667-.182l-.094-.112a.197.197 0 0 1-.016-.015l-3.817-4.437a1.613 1.613 0 0 0-1.78-.46.197.197 0 0 1-.047.024 6.66 6.66 0 0 1-.664.44c-.06.033-.098.047-.13.06l-.248-.288-.057-.066a.197.197 0 0 1-.01-.03c.01-.017.013-.025.03-.05a4.4 4.4 0 0 1 .37-.434c.335-.358.832-.83 1.404-1.32.116-.1.23-.197.346-.292a.197.197 0 0 1 .068-.188z" color="#000" font-weight="400" font-family="sans-serif" white-space="normal" overflow="visible"/><path style="line-height:normal;font-variant-ligatures:normal;font-variant-position:normal;font-variant-caps:normal;font-variant-numeric:normal;font-variant-alternates:normal;font-feature-settings:normal;text-indent:0;text-align:start;text-decoration-line:none;text-decoration-style:solid;text-decoration-color:#000;text-transform:none;text-orientation:mixed;shape-padding:0;isolation:auto;mix-blend-mode:normal" d="M12.632 285.298l.007-.005a.197.197 0 0 1-.008.005zM14.234 284.846a.197.197 0 0 1 .018.074.14.14 0 0 1-.018-.074zM13.3 285.8v.004a.197.197 0 0 1 0-.003zM14.666 285.665a.197.197 0 0 1 .018.06.157.157 0 0 1-.018-.06zM14.03 286.348zM14.04 286.362zM14.575 286.528l.014-.01a.197.197 0 0 1 .016-.014.197.197 0 0 1 .02-.013l.023-.02a.197.197 0 0 1 .02-.018.197.197 0 0 1 .025-.02.63.63 0 0 0 .03-.026.197.197 0 0 1 .008-.01.197.197 0 0 1 .017-.013c.01-.007.018-.017.027-.026l2.87 3.336a.197.197 0 0 1 .093.06l2.058 2.393.506.84-.754-.626-2.06-2.393a.197.197 0 0 1-.045-.1z" color="#000" font-weight="400" font-family="sans-serif" white-space="normal" overflow="visible"/><path d="M4.935 280.275l.136.16.264.304.035.04.007-.007c0 .01.003.018.007.024.062.07.43-.132.996-.544a1.414 1.414 0 0 1 1.56.405l3.83 4.45.097.11a.812.812 0 0 0 1.147.087l1.4-1.205a.812.812 0 0 0 .087-1.147l-.095-.112-3.828-4.45-.285-.332-.733-.852-.016-.017-.298-.347-.136-.16c.1.13-.747 1.03-1.896 2.02-.616.53-1.225 1.002-1.665 1.292l-.004.003-.134.086-.008.006-.112.066-.014.01-.09.047c-.007.002-.012.007-.02.007l-.07.032-.02.008a.434.434 0 0 1-.05.017c-.006.002-.013.002-.02.006-.01.002-.022.002-.032.002H4.96a.045.045 0 0 1-.024-.01z"/><path d="M9.11 276.682a.295 2.754 49.295 0 0-1.896 2.02.295 2.754 49.295 0 0-2.28 1.572.295 2.754 49.295 0 0 1.895-2.02.295 2.754 49.295 0 0 2.28-1.572zM6.176 274.453a.178 1.356 49.295 0 0-.912 1.018.178 1.356 49.295 0 0-1.14.753l.134.157a.178 1.356 49.295 0 1 0 .003.178 1.356 49.295 0 1 .004.002l.003.002a.178 1.356 49.295 0 1 1.138-.755.178 1.356 49.295 0 1 .915-1.01l.002-.003-.005-.007-.14-.162z"/><path d="M5.766 274.33a.148 1.126 49.295 0 0-.758.844.148 1.126 49.295 0 0-.95.623l.057.39a.178 1.356 49.295 0 1 .004.034.178 1.356 49.295 0 1 1.144-.75.178 1.356 49.295 0 1 .912-1.018.178 1.356 49.295 0 1-.033-.01z"/><path d="M5.765 274.328a.148 1.126 49.295 0 0-.757.846.148 1.126 49.295 0 0-.95.623.148 1.126 49.295 0 0 .757-.847.148 1.126 49.295 0 0 .95-.622z"/><path d="M5.34 274.536a.145 1.097 49.295 0 0 .28-.112.145 1.097 49.295 0 0-.738.825.145 1.097 49.295 0 0-.674.51.148 1.126 49.295 0 1 .8-.586.148 1.126 49.295 0 1 .757-.846.148 1.126 49.295 0 1-.424.208z" fill="#fff"/><path d="M14.27 286.476l3.027 3.518.5-.43-3.02-3.51a.304.645 49.295 0 0-.21.23.304.645 49.295 0 0-.297.192z"/><path d="M12.745 285.46l.4.466a.377.843 49.295 0 1 .004.002.377.843 49.295 0 1 .003.005.377.843 49.295 0 1 .303.05l.422.49a.304.645 49.295 0 1 0 .002.304.645 49.295 0 1 .004.003.304.645 49.295 0 1 .684-.194.304.645 49.295 0 1 .295-.645v-.002l-.427-.497a.377.843 49.295 0 1-.002-.303l-.37-.432-1.046.9a.815.815 0 0 1-.27.155z"/><path style="line-height:normal;font-variant-ligatures:normal;font-variant-position:normal;font-variant-caps:normal;font-variant-numeric:normal;font-variant-alternates:normal;font-feature-settings:normal;text-indent:0;text-align:start;text-decoration-line:none;text-decoration-style:solid;text-decoration-color:#000;text-transform:none;text-orientation:mixed;shape-padding:0;isolation:auto;mix-blend-mode:normal" d="M17.273 290.015l2.14 2.486 1.553 1.29.036-.03-1.043-1.73-2.14-2.487z" color="#000" font-weight="400" font-family="sans-serif" white-space="normal" overflow="visible"/><path d="M7.472 277.774v.002a.23 2.146 49.295 0 0 .707-.374.23 2.146 49.295 0 0-.476.642.23 2.146 49.295 0 0-.11.112.23 2.146 49.295 0 0-.005.005.23 2.146 49.295 0 0-.132.128.23 2.146 49.295 0 0-.756.687.23 2.146 49.295 0 0-1.344 1.04.255 2.386 49.295 0 1 1.83-1.343.255 2.386 49.295 0 1 1.64-1.75.255 2.386 49.295 0 1-1.357.85zM9.4 277.495c.025.032-.02.12-.123.252l.037.043.237.276.014.014.585.68.227.265 3.058 3.555.075.09c.235.273.218.67-.038.89l-1.05.903c-.248.214-.63.18-.866-.074l.033.037.08.09c.24.282.662.314.943.072l1.152-.993a.668.668 0 0 0 .07-.944l-.078-.092-3.15-3.662-.234-.272-.603-.7v-.002l-.012-.014-.245-.285-.113-.13zM8.33 280.647l.023.03a1.24 1.24 0 0 0-.025-.03z" fill="#fff"/><path d="M12.913 285.478z" fill="red"/><path d="M13.938 284.664l.317.368a.332.77 49.295 0 0-.002.274l.377.438a.268.59 49.295 0 0-.123.426.262.557 49.295 0 1 .232-.537l-.37-.43a.325.727 49.295 0 1-.002-.262l-.32-.372z" fill="#fff"/><path style="line-height:normal;font-variant-ligatures:normal;font-variant-position:normal;font-variant-caps:normal;font-variant-numeric:normal;font-variant-alternates:normal;font-feature-settings:normal;text-indent:0;text-align:start;text-decoration-line:none;text-decoration-style:solid;text-decoration-color:#000;text-transform:none;text-orientation:mixed;shape-padding:0;isolation:auto;mix-blend-mode:normal" d="M17.475 290.072l1.773 2.06 1.087.96-.98-.94-1.828-2.124zM17.796 289.796l1.828 2.125.776 1.104-.78-1.212-1.772-2.06z" color="#000" font-weight="400" font-family="sans-serif" white-space="normal" overflow="visible" fill="#fff"/><path d="M5.786 274.412a.88.88 0 0 1-.064.094l.304.128a.07.07 0 0 1 .027.01c.048-.072.085-.113.07-.132l-.006-.006c-.007-.005-.01-.006-.026-.006zM6.186 274.52a.133 1.268 49.295 0 0-.07.14l.1.12.002.002a.133 1.268 49.295 0 1 .074-.136l.002-.003-.005-.006-.104-.12z" fill="#fff"/><path d="M5.533 275.52l-.13.113-.132.112 1.624 1.887.384.446.18.21a.23 2.146 49.295 0 1 .246-.244l-.167-.195-.01-.01v-.002l-.053-.062-.002-.002-.315-.367z"/></g></g></svg>