<svg xmlns="http://www.w3.org/2000/svg" width="100" height="100" viewBox="0 0 26.458333 26.458333"><g transform="translate(0 -270.542)"><circle cx="13.183" cy="283.877" r="10.592" stroke="#000" stroke-width="4.801" stroke-linecap="round" stroke-linejoin="round" paint-order="stroke fill markers"/><path d="M7.806 290.464a8.637 8.637 0 0 0 12.063-1.92 8.637 8.637 0 0 0-1.92-12.063 8.637 8.637 0 0 0-12.064 1.92 8.637 8.637 0 0 0 1.92 12.064z" opacity=".506" fill="none" paint-order="markers stroke fill"/><path d="M7.933 275.56a9.353 9.353 0 0 1 12.805 3.314 9.353 9.353 0 0 1-3.314 12.806 9.353 9.353 0 0 1-12.805-3.314 9.353 9.353 0 0 1 3.313-12.806z" opacity=".458" fill="none" paint-order="markers stroke fill"/><path d="M7.86 291.634a9.35 9.35 0 0 0 12.833-3.196 9.35 9.35 0 0 0-3.196-12.832 9.35 9.35 0 0 0-12.832 3.196 9.35 9.35 0 0 0 3.196 12.832z" opacity=".458" fill="none" paint-order="markers stroke fill"/><path d="M8.51 276.062a8.63 8.63 0 0 1 11.727 3.39 8.63 8.63 0 0 1-3.39 11.726 8.63 8.63 0 0 1-11.726-3.39 8.63 8.63 0 0 1 3.39-11.726z" opacity=".506" fill="none" paint-order="markers stroke fill"/><path d="M7.933 275.56a9.353 9.353 0 0 1 12.805 3.314 9.353 9.353 0 0 1-3.314 12.806 9.353 9.353 0 0 1-12.805-3.314 9.353 9.353 0 0 1 3.313-12.806z" opacity=".458" fill="none" paint-order="markers stroke fill"/><path d="M7.86 291.634a9.35 9.35 0 0 0 12.833-3.196 9.35 9.35 0 0 0-3.196-12.832 9.35 9.35 0 0 0-12.832 3.196 9.35 9.35 0 0 0 3.196 12.832z" opacity=".458" fill="none" paint-order="markers stroke fill"/><path d="M8.51 276.062a8.63 8.63 0 0 1 11.727 3.39 8.63 8.63 0 0 1-3.39 11.726 8.63 8.63 0 0 1-11.726-3.39 8.63 8.63 0 0 1 3.39-11.726z" opacity=".506" fill="none" paint-order="markers stroke fill"/><path style="line-height:normal;font-variant-ligatures:normal;font-variant-position:normal;font-variant-caps:normal;font-variant-numeric:normal;font-variant-alternates:normal;font-feature-settings:normal;text-indent:0;text-align:start;text-decoration-line:none;text-decoration-style:solid;text-decoration-color:#000;text-transform:none;text-orientation:mixed;shape-padding:0;isolation:auto;mix-blend-mode:normal" d="M21.347 274.27c.24.21.448.41.593.572.073.08.13.152.173.22a.42.42 0 0 1 .053.112c.01.033.022.09 0 .153l-.052.354a.21.21 0 0 1-.044.132.197.197 0 0 1-.018.02l-.116.135a.197.197 0 0 1-.03.033.197.197 0 0 1-.122.055.27.27 0 0 1-.098 0 .485.485 0 0 1-.116-.038 1.835 1.835 0 0 1-.252-.14 6.643 6.643 0 0 1-.53-.39l-1.653 1.922.197.166c.58.5 1.085.977 1.435 1.35.176.186.312.346.404.477a.905.905 0 0 1 .11.188.263.263 0 0 1 .01.208.197.197 0 0 1-.042.077l-.137.16-.26.304-.036.04a.197.197 0 0 1-.01.01.197.197 0 0 1-.007.007c-.005.006-.01.007-.016.01a.197.197 0 0 1-.012.01c-.05.04-.11.058-.152.06a.362.362 0 0 1-.125-.02 1.287 1.287 0 0 1-.244-.11 6.8 6.8 0 0 1-.68-.447 1.214 1.214 0 0 0-1.323.354l-3.83 4.45a.197.197 0 0 1-.015.017l-.08.095a1.01 1.01 0 0 1-.96.333l-.317.37a.197.197 0 0 1-.014.017.197.197 0 0 1-.002 0v.002c-.002 0-.004.005-.006.006l.005-.005a.44.44 0 0 1-.365.123l-.35.406a.197.197 0 0 1-.01.014h-.003l-.006.007.004-.005a.4.4 0 0 1-.3.115.657.657 0 0 1-.167-.025l-2.87 3.335a.197.197 0 0 1-.046.102l-2.137 2.485a.197.197 0 0 1-.024.024l-1.556 1.29a.197.197 0 0 1-.248 0l-.036-.03a.197.197 0 0 1-.047-.256l1.044-1.732a.197.197 0 0 1 .02-.027l2.138-2.486a.197.197 0 0 1 .093-.062l2.86-3.323a.728.728 0 0 1-.064-.176.427.427 0 0 1 .062-.332l.002-.005c.003-.002.004-.007.007-.01l.357-.415a.466.466 0 0 1 .03-.31.196.196 0 0 1 .035-.065v-.002.002c.004-.005.004-.007.008-.01l.242-.282-.205-.176a1.012 1.012 0 0 1-.107-1.425l.08-.093a.197.197 0 0 1 .015-.02l3.83-4.45.284-.332.733-.852.015-.018.298-.346.135-.158a.197.197 0 0 1 .003-.002.197.197 0 0 1 .045-.038.267.267 0 0 1 .19-.04.614.614 0 0 1 .16.047c.108.045.234.116.385.213.267.17.616.428 1.006.735L20.23 275a6.512 6.512 0 0 1-.463-.464 1.836 1.836 0 0 1-.176-.228.5.5 0 0 1-.054-.11.312.312 0 0 1-.016-.09.197.197 0 0 1 .046-.15l.005-.006.14-.16a.197.197 0 0 1 0-.002.197.197 0 0 1 .002-.002.197.197 0 0 1 .04-.034.25.25 0 0 1 .15-.042l-.067.007.36-.11a.194.194 0 0 1 .04-.015.197.197 0 0 1 .006 0c.013-.003.024-.003.035-.003.017-.002.033 0 .046 0a.197.197 0 0 1 .01 0c.01 0 .014.003.02.003.014.002.027.007.04.008a.197.197 0 0 1 .004.002c.004.002.01.002.014.005l.04.015a.197.197 0 0 1 .003 0c.004.002.008.003.01.007l.046.02a.197.197 0 0 1 .002.002c.003.002.006.002.01.006.016.007.032.018.05.028.003 0 .005.002.007.005l.06.035.003.003v.002a.854.854 0 0 1 .066.043l.074.05c.003.003.005.003.008.007.006.005.012.008.018.014.165.116.352.264.538.424a.197.197 0 0 1 .003.002z" color="#000" font-weight="400" font-family="sans-serif" white-space="normal" overflow="visible" fill="#fff"/><path style="line-height:normal;font-variant-ligatures:normal;font-variant-position:normal;font-variant-caps:normal;font-variant-numeric:normal;font-variant-alternates:normal;font-feature-settings:normal;text-indent:0;text-align:start;text-decoration-line:none;text-decoration-style:solid;text-decoration-color:#000;text-transform:none;text-orientation:mixed;shape-padding:0;isolation:auto;mix-blend-mode:normal" d="M21.875 275.098l-.005.002a.197.197 0 0 1 .005-.005zM20.45 273.875a.197.197 0 0 1-.004.008c0-.003.003-.007.004-.008zM21.1 274.58a.197.197 0 0 1-.064.112l.12-.032-.01-.04c-.017-.013-.03-.025-.045-.04zM21.21 274.68a.197.197 0 0 1-.3.124.197.197 0 0 1 .002.002.197.197 0 0 1 .014.014.197.197 0 0 1 .01.016.197.197 0 0 1 .05.03l.047.04a.197.197 0 0 1 .045.055l.01-.01.044.037-.01.012a.197.197 0 0 1 .066.032l.042.034a.197.197 0 0 1 .027.026.197.197 0 0 1 .03.018l.038.03a.197.197 0 0 1 .028.025.197.197 0 0 1 .03.018l.034.026a.197.197 0 0 1 .05.053l.007-.012c.01.008.02.016.032.022l-.02.03a.197.197 0 0 1 .008.037.197.197 0 0 1 .05-.006l.017-.024a.29.29 0 0 0 .03.02l-.007.01a.197.197 0 0 1 .06.024c.007.006.015.01.023.015a.197.197 0 0 1 .023.017.197.197 0 0 1 .024.013l.02.012a.197.197 0 0 1 .017.012l.026-.168a1.404 1.404 0 0 0-.13-.162 5.983 5.983 0 0 0-.435-.424zM20.618 274.2l-.04-.033a.046.046 0 0 1-.015-.012l-.005-.002-.17.163-.01-.012.167-.16-.056-.038c-.02-.014-.04-.026-.06-.038h-.002v-.002l-.048-.028-.006-.003-.03-.016-.126.104c0-.002-.003-.002-.004-.006l.126-.103c-.002 0-.003 0-.004-.002l-.008-.003c-.01-.005-.018-.007-.025-.012a.197.197 0 0 1-.002 0l-.16.047.004.005-.047.04a.197.197 0 0 1 .058.01l.018-.014c.008.007.014.018.023.027l-.007.006a.197.197 0 0 1 .04.032.18.18 0 0 1 .026.03.197.197 0 0 1 .03.048l.008-.007.032.034-.007.007a.197.197 0 0 1 .048.034l.036.037a.197.197 0 0 1 .02.025.197.197 0 0 1 .024.02.96.96 0 0 0 .04.036.197.197 0 0 1 .02.026.197.197 0 0 1 .02.015c-.004-.002-.007-.007-.01-.01l.02-.023a.197.197 0 0 1 .008-.115l-.083.082a.416.416 0 0 0-.02-.017zM20.044 273.907l-.027.01.027-.007v-.002zM20.05 273.927h-.015a.197.197 0 0 1 .014.01c-.002 0 0-.007 0-.01zM21.88 275.61v.01-.006zM20.078 274.063l-.013.005a.197.197 0 0 1-.003.007zM20.563 274.484a.197.197 0 0 1-.027-.02l.04.037a.197.197 0 0 1 .02.027.197.197 0 0 1 .012.007l-.017-.017a.197.197 0 0 1-.027-.034zM20.643 274.56a.197.197 0 0 1-.017-.012l.03.027a.197.197 0 0 1-.012-.016zM20.725 274.635a.197.197 0 0 1-.036-.024c-.003 0-.005 0-.007-.005a.197.197 0 0 1 .026.04l.008-.01c.006.004.01.01.017.013a.197.197 0 0 1-.01-.014zM20.81 274.713a.197.197 0 0 1-.032-.02l-.016-.015-.034.04a.197.197 0 0 1-.066.16.197.197 0 0 1 .004.006.197.197 0 0 1 .005.002l.146-.165v.002a.197.197 0 0 1-.007-.007zM18.662 277.396a.197.197 0 0 1-.197-.03 14.17 14.17 0 0 0-.982-.73l.073.08a.197.197 0 0 1 .01.008.197.197 0 0 1 .008.008c.04.04.08.084.123.128a.197.197 0 0 1 .01.01.197.197 0 0 1 .01.008l.138.14a.197.197 0 0 1 .007.006.197.197 0 0 1 .007.006l.157.154a.197.197 0 0 1 .003.002.197.197 0 0 1 .005.005c.056.055.115.11.175.167a.197.197 0 0 1 .003 0l.11.105c.012.008.02.02.032.028l.034.03v.003l.01.008v.002a.197.197 0 0 1 .002 0 .01.01 0 0 1 .006.006l.016.014.054.048a.197.197 0 0 1 .003.003.197.197 0 0 1 .003.002s.002 0 .002.002l.095.085.017.015a.197.197 0 0 1 .002 0 .197.197 0 0 1 .003.003c.002 0 .002.002.002.002h.002v.002a16.632 16.632 0 0 0 .186.163.197.197 0 0 1 .012.01.197.197 0 0 1 .01.01l.135.115c.063.054.126.108.19.16a.197.197 0 0 1 .013.015.197.197 0 0 1 .014.012c.058.047.114.095.172.14a.197.197 0 0 1 .02.022.197.197 0 0 1 .026.016c.052.044.104.087.157.128a.197.197 0 0 1 .028.027.197.197 0 0 1 .033.02c.047.04.094.076.14.113a.197.197 0 0 1 .03.032.197.197 0 0 1 .04.023l.112.088a.197.197 0 0 1 .04.042.197.197 0 0 1 .05.026l.08.06a.197.197 0 0 1 .048.053.197.197 0 0 1 .066.03c.02.016.04.03.06.044a.197.197 0 0 1 .053.06.197.197 0 0 1 .073.03l.043.03a.197.197 0 0 1-.226.323c-.014-.01-.03-.02-.045-.032a.197.197 0 0 1-.055-.06.197.197 0 0 1-.075-.032l-.064-.046a.197.197 0 0 1-.05-.055.197.197 0 0 1-.067-.03c-.028-.02-.055-.04-.082-.062a.197.197 0 0 1-.04-.043.197.197 0 0 1-.052-.028l-.115-.09a.197.197 0 0 1-.03-.032.197.197 0 0 1-.04-.024l-.144-.114a.197.197 0 0 1-.028-.027.197.197 0 0 1-.033-.02c-.052-.044-.106-.086-.16-.13a.197.197 0 0 1-.02-.022.197.197 0 0 1-.026-.016c-.06-.047-.117-.096-.176-.144a.197.197 0 0 1-.015-.014.197.197 0 0 1-.015-.012 32.472 32.472 0 0 1-.19-.163.197.197 0 0 1-.002 0c-.046-.038-.09-.078-.136-.117a.197.197 0 0 1-.01-.01.197.197 0 0 1-.012-.01l-.187-.162a.197.197 0 0 1-.002 0l-.003-.002a.197.197 0 0 1-.005-.003.197.197 0 0 1-.004-.002l-.01-.008c-.002-.002-.004-.006-.007-.007l-.098-.087a.197.197 0 0 1-.003 0 .197.197 0 0 1-.003-.002l-.075-.068h-.002a.197.197 0 0 1 0-.002.197.197 0 0 1-.003 0l-.012-.01c0-.002 0-.002-.002-.002-.01-.008-.02-.02-.03-.03a.197.197 0 0 1-.005-.005l-.022-.018-.12-.11a.197.197 0 0 1-.002-.003c-.06-.06-.12-.115-.177-.17a.197.197 0 0 1-.004-.005.197.197 0 0 1-.006-.005l-.162-.157a.197.197 0 0 1-.006-.007.197.197 0 0 1-.008-.007l-.142-.145a.197.197 0 0 1-.01-.01.197.197 0 0 1-.01-.008c-.045-.045-.087-.09-.127-.132a.197.197 0 0 1-.01-.008.197.197 0 0 1-.01-.008 52.32 52.32 0 0 1-.114-.124.197.197 0 0 1-.008-.007.197.197 0 0 1-.008-.008l-.106-.12a.197.197 0 0 1-.002-.002.197.197 0 0 1-.004-.005 3.146 3.146 0 0 1-.094-.115l-.002-.002c-.007-.007-.01-.015-.017-.023l-.044-.06-.23.268-.016.018-.734.853-.285.332-3.813 4.432a.197.197 0 0 1-.014.02l-.096.11a.61.61 0 0 0 .065.87l.354.305a.197.197 0 0 1 .022.278l-.358.416a.197.197 0 0 1-.006.007c.01-.01-.01.02.025.113a.197.197 0 0 1-.034.2l-.415.482.003.024a.506.506 0 0 0 .08.166.197.197 0 0 1 .004.005.197.197 0 0 1 .007.007c.006.008.012.02.02.028a.197.197 0 0 1 0 .002.197.197 0 0 1 .008.007l.023.03a.197.197 0 0 1 .004 0 .197.197 0 0 1 .008.008c.01.008.017.017.025.027a.197.197 0 0 1 .006.007.197.197 0 0 1 .012.01.546.546 0 0 1 .022.02.197.197 0 0 1 .006.008.197.197 0 0 1 .013.01.57.57 0 0 0 .022.02.197.197 0 0 1 .013.013.197.197 0 0 1 .02.014l.018.014a.197.197 0 0 1 .013.01.197.197 0 0 1 .015.008.05.05 0 0 1 .015.012.197.197 0 0 1 .015.012.197.197 0 0 1 .015.007c.005.002.01.006.012.008a.197.197 0 0 1 .016.012.197.197 0 0 1 .017.007c.003.002.006.002.01.006a.197.197 0 0 1 .016.012.197.197 0 0 1 .02.007c.002 0 .004 0 .006.004a.197.197 0 0 1 .01.007.197.197 0 0 1 .016.006c.068.03.125.04.154.04h.017l.414-.482a.197.197 0 0 1 .193-.064c.1.023.125-.002.115.007l.24-.278a.197.197 0 0 1-.005-.003c-.006-.002-.01-.007-.012-.007a.197.197 0 0 1-.003-.002.197.197 0 0 1-.006-.002c-.006-.002-.01-.007-.012-.007v-.002a.197.197 0 0 1-.003-.002.197.197 0 0 1-.005-.002c-.003 0-.003-.002-.005-.002l-.01-.007a.197.197 0 0 1 .248-.307l.01.007a.197.197 0 0 1 .004.003c.004.002.006.002.007.005a.197.197 0 0 1 .002.002.197.197 0 0 1 .004.002l.007.005a.197.197 0 0 1 .002 0 .197.197 0 0 1 .002.003l.008.006a.197.197 0 0 1 0 .002.197.197 0 0 1 .005.002c.003.002.006.002.007.005a.197.197 0 0 1 .002 0 .197.197 0 0 1 .003.002c.004.002.006.002.008.005a.197.197 0 0 1 .002 0 .197.197 0 0 1 .003.003c.003.002.005.002.007.005a.197.197 0 0 1 .006.002c.003 0 .005 0 .007.004a.197.197 0 0 1 .002.002.197.197 0 0 1 .004.002h.002c.002.002.003.003.005.003a.197.197 0 0 1 .006.002c.002 0 .004 0 .006.004a.197.197 0 0 1 .002 0 .197.197 0 0 1 .004.002l.007.002a.197.197 0 0 1 .002 0 .197.197 0 0 1 .003.002l.008.002a.197.197 0 0 1 .002 0 .197.197 0 0 1 .003.002l.008.002a.197.197 0 0 1 .002 0 .197.197 0 0 1 .004.002h.007a.197.197 0 0 1 .002.002.197.197 0 0 1 .003 0c0 .002 0 0 0 0s0 .002 0 0a.197.197 0 0 1 .002.002c.23.078.494.017.665-.182l.096-.112a.197.197 0 0 1 .016-.016l3.817-4.437a1.613 1.613 0 0 1 1.78-.46.197.197 0 0 1 .048.025c.278.203.507.354.664.44.06.033.097.047.13.06l.248-.288.057-.067a.197.197 0 0 1 .01-.028c-.01-.018-.013-.027-.03-.05a4.4 4.4 0 0 0-.37-.435c-.335-.358-.832-.83-1.404-1.32-.115-.1-.23-.198-.346-.293a.197.197 0 0 1-.068-.188z" color="#000" font-weight="400" font-family="sans-serif" white-space="normal" overflow="visible"/><path style="line-height:normal;font-variant-ligatures:normal;font-variant-position:normal;font-variant-caps:normal;font-variant-numeric:normal;font-variant-alternates:normal;font-feature-settings:normal;text-indent:0;text-align:start;text-decoration-line:none;text-decoration-style:solid;text-decoration-color:#000;text-transform:none;text-orientation:mixed;shape-padding:0;isolation:auto;mix-blend-mode:normal" d="M13.4 284.77c0-.002-.004-.003-.006-.006a.197.197 0 0 1 .007.005zM11.8 284.317a.197.197 0 0 1-.02.073.14.14 0 0 0 .02-.073zM12.734 285.272v.002a.197.197 0 0 1 0-.002zM11.367 285.136a.197.197 0 0 1-.017.06.157.157 0 0 0 .017-.06zM12.003 285.82zM11.993 285.832v.002zM11.458 285.998c-.005-.002-.01-.007-.014-.01a.197.197 0 0 1-.017-.014.197.197 0 0 1-.018-.013l-.026-.018a.197.197 0 0 1-.02-.02.197.197 0 0 1-.026-.02c-.01-.007-.02-.017-.03-.026a.197.197 0 0 1-.008-.008.197.197 0 0 1-.017-.014c-.01-.007-.018-.017-.027-.026l-2.87 3.336a.197.197 0 0 1-.092.06l-2.06 2.393-.505.84.754-.626 2.058-2.392a.197.197 0 0 1 .046-.102z" color="#000" font-weight="400" font-family="sans-serif" white-space="normal" overflow="visible"/><path d="M21.098 279.746l-.136.16-.263.304-.036.04-.008-.006c0 .01-.003.018-.007.024-.063.07-.432-.132-.996-.544a1.414 1.414 0 0 0-1.562.405l-3.828 4.45-.002-.002-.095.112a.812.812 0 0 1-1.148.086l-1.402-1.205a.812.812 0 0 1-.086-1.146l.096-.112 3.828-4.45.285-.333.734-.853.015-.018.297-.346.136-.16c-.1.13.747 1.03 1.896 2.02.615.53 1.224 1.002 1.664 1.292l.003.002.134.086.01.006.11.067c.006.002.01.007.015.008l.09.048c.007.002.012.007.02.007l.07.032.02.008a.486.486 0 0 0 .05.016c.006.002.013.002.02.006.012.002.022.002.032.002h.016c.01 0 .018-.005.024-.01z" fill="#fff"/><path d="M16.924 276.153a2.754.295 40.705 0 0 1.895 2.02 2.754.295 40.705 0 0 2.28 1.572 2.754.295 40.705 0 0-1.896-2.02 2.754.295 40.705 0 0-2.28-1.572zM19.857 273.924a1.356.178 40.705 0 0 .913 1.018 1.356.178 40.705 0 0 1.14.752l-.135.157a1.356.178 40.705 0 1 0 .003 1.356.178 40.705 0 1-.004.002l-.002.002a1.356.178 40.705 0 1-1.138-.755 1.356.178 40.705 0 1-.915-1.01l-.002-.003.005-.007.14-.162z" fill="#fff"/><path d="M20.268 273.8a1.126.148 40.705 0 0 .757.845 1.126.148 40.705 0 0 .95.623l-.057.39a1.356.178 40.705 0 1-.004.034 1.356.178 40.705 0 1-1.144-.75 1.356.178 40.705 0 1-.912-1.02 1.356.178 40.705 0 1 .033-.01z" fill="#fff"/><path d="M20.268 273.8a1.126.148 40.705 0 0 .757.845 1.126.148 40.705 0 0 .95.622 1.126.148 40.705 0 0-.757-.846 1.126.148 40.705 0 0-.95-.62z" fill="#fff"/><path d="M20.692 274.007a1.097.145 40.705 0 0-.28-.112 1.097.145 40.705 0 0 .74.825 1.097.145 40.705 0 0 .674.512 1.126.148 40.705 0 1-.8-.587 1.126.148 40.705 0 1-.758-.846 1.126.148 40.705 0 1 .424.207zM11.763 285.947l-3.027 3.518-.5-.43 3.02-3.51a.645.304 40.705 0 0 .21.23.645.304 40.705 0 0 .297.192z" fill="#fff"/><path d="M13.288 284.93l-.4.467a.843.377 40.705 0 1-.004.002.843.377 40.705 0 1-.004.004.843.377 40.705 0 1-.303.05l-.42.49a.645.304 40.705 0 1-.003 0 .645.304 40.705 0 1-.003.003.645.304 40.705 0 1-.683-.193.645.304 40.705 0 1-.295-.645v-.002l.428-.497a.843.377 40.705 0 1 .002-.304l.37-.43 1.047.9c.08.07.173.12.268.154z" fill="#fff"/><path style="line-height:normal;font-variant-ligatures:normal;font-variant-position:normal;font-variant-caps:normal;font-variant-numeric:normal;font-variant-alternates:normal;font-feature-settings:normal;text-indent:0;text-align:start;text-decoration-line:none;text-decoration-style:solid;text-decoration-color:#000;text-transform:none;text-orientation:mixed;shape-padding:0;isolation:auto;mix-blend-mode:normal" d="M8.76 289.485l-2.14 2.487-1.553 1.29-.036-.03 1.044-1.732 2.14-2.487z" color="#000" font-weight="400" font-family="sans-serif" white-space="normal" overflow="visible" fill="#fff"/><path d="M18.56 277.244v.002a2.146.23 40.705 0 0-.706-.374 2.146.23 40.705 0 0 .475.642 2.146.23 40.705 0 0 .11.112 2.146.23 40.705 0 0 .005.005 2.146.23 40.705 0 0 .13.13 2.146.23 40.705 0 0 .756.686 2.146.23 40.705 0 0 1.345 1.04 2.386.255 40.705 0 1-1.83-1.344 2.386.255 40.705 0 1-1.64-1.75 2.386.255 40.705 0 1 1.357.852zM16.633 276.966c-.025.03.02.12.123.252l-.037.043-.238.277-.012.014-.586.68-.228.266-3.058 3.555v.002l-.075.09c-.235.27-.218.67.038.89l1.05.9c.25.216.63.18.867-.072l-.033.038-.08.09a.668.668 0 0 1-.944.072l-1.152-.992a.668.668 0 0 1-.07-.944l.078-.092 3.15-3.663.234-.274.603-.7.012-.015.245-.284.113-.13zM17.704 280.118l-.024.03a1.35 1.35 0 0 0-.04.04 1.25 1.25 0 0 1 .064-.07z" fill="#fff"/><path d="M13.12 284.95z" fill="red"/><path d="M12.095 284.134l-.317.37a.77.332 40.705 0 0 .002.273l-.376.437a.59.268 40.705 0 0 .122.427.557.262 40.705 0 1-.232-.536l.37-.43a.727.325 40.705 0 1 0-.263l.32-.37z" fill="#fff"/><path style="line-height:normal;font-variant-ligatures:normal;font-variant-position:normal;font-variant-caps:normal;font-variant-numeric:normal;font-variant-alternates:normal;font-feature-settings:normal;text-indent:0;text-align:start;text-decoration-line:none;text-decoration-style:solid;text-decoration-color:#000;text-transform:none;text-orientation:mixed;shape-padding:0;isolation:auto;mix-blend-mode:normal" d="M8.558 289.543l-1.773 2.06-1.087.96.98-.94 1.828-2.124zM8.237 289.267l-1.828 2.125-.777 1.103.78-1.212 1.772-2.06z" color="#000" font-weight="400" font-family="sans-serif" white-space="normal" overflow="visible" fill="#fff"/><path d="M20.247 273.883a.89.89 0 0 0 .064.094l-.303.128a.06.06 0 0 0-.027.01c-.048-.07-.085-.113-.07-.132l.006-.006c.007-.005.01-.006.026-.006zM19.847 273.99a1.268.133 40.705 0 0 .072.142l-.104.12a1.268.133 40.705 0 1-.074-.136l-.003-.002.004-.006.103-.12zM20.5 274.99c.043.04.087.076.13.114l.132.112-1.623 1.886-.385.447-.18.21a2.146.23 40.705 0 1-.246-.245l.166-.195.01-.01.053-.063v-.002l.316-.367z" fill="#fff"/><path d="M18.1 276.09a9.353 9.353 0 0 0-12.805 3.313A9.353 9.353 0 0 0 8.61 292.21a9.353 9.353 0 0 0 12.804-3.315A9.353 9.353 0 0 0 18.1 276.09z" opacity=".458" fill="none" paint-order="markers stroke fill"/><path d="M18.172 292.163a9.35 9.35 0 0 1-12.832-3.196 9.35 9.35 0 0 1 3.196-12.832 9.35 9.35 0 0 1 12.832 3.196 9.35 9.35 0 0 1-3.196 12.833z" opacity=".458" fill="none" paint-order="markers stroke fill"/><path d="M17.522 276.59a8.63 8.63 0 0 0-11.725 3.39 8.63 8.63 0 0 0 3.39 11.727 8.63 8.63 0 0 0 11.725-3.39 8.63 8.63 0 0 0-3.39-11.726z" opacity=".506" fill="none" paint-order="markers stroke fill"/><path d="M18.1 276.09a9.353 9.353 0 0 0-12.805 3.313A9.353 9.353 0 0 0 8.61 292.21a9.353 9.353 0 0 0 12.804-3.315A9.353 9.353 0 0 0 18.1 276.09z" opacity=".458" fill="none" paint-order="markers stroke fill"/><path d="M18.172 292.163a9.35 9.35 0 0 1-12.832-3.196 9.35 9.35 0 0 1 3.196-12.832 9.35 9.35 0 0 1 12.832 3.196 9.35 9.35 0 0 1-3.196 12.833z" opacity=".458" fill="none" paint-order="markers stroke fill"/><path d="M17.522 276.59a8.63 8.63 0 0 0-11.725 3.39 8.63 8.63 0 0 0 3.39 11.727 8.63 8.63 0 0 0 11.725-3.39 8.63 8.63 0 0 0-3.39-11.726z" opacity=".506" fill="none" paint-order="markers stroke fill"/><path d="M4.686 274.8c-.24.208-.448.408-.593.57a1.68 1.68 0 0 0-.173.22.42.42 0 0 0-.053.113.244.244 0 0 0 0 .153l.052.354c0 .04.008.085.043.13a.197.197 0 0 0 .018.022h.002l.116.134a.197.197 0 0 0 .03.033.197.197 0 0 0 .12.054.27.27 0 0 0 .1 0 .485.485 0 0 0 .115-.038c.076-.032.158-.08.253-.14.15-.095.334-.233.53-.39l1.652 1.922c-.066.056-.132.11-.197.167-.58.5-1.084.977-1.434 1.35a4.65 4.65 0 0 0-.404.478.905.905 0 0 0-.108.187.263.263 0 0 0-.01.208.197.197 0 0 0 .04.076l.138.16.263.304.034.04a.197.197 0 0 0 .01.01.197.197 0 0 0 .006.008c.005.006.01.007.016.01a.197.197 0 0 0 .013.01c.05.04.11.058.152.06.05 0 .087-.008.125-.02.076-.023.153-.06.245-.11a6.8 6.8 0 0 0 .68-.446c.457-.16.986-.04 1.323.353l3.83 4.45a.197.197 0 0 0 .015.017l.08.095c.246.284.615.4.96.333l.317.37a.197.197 0 0 0 .015.016.197.197 0 0 0 .002.002l.005.006-.005-.005a.44.44 0 0 0 .366.123l.348.405a.197.197 0 0 0 .013.014c.003 0 .005.005.007.006l-.005-.005a.402.402 0 0 0 .298.116c.056 0 .112-.01.168-.025l2.87 3.337a.197.197 0 0 0 .046.1l2.14 2.488a.197.197 0 0 0 .022.023l1.555 1.29a.197.197 0 0 0 .247.002l.036-.03a.197.197 0 0 0 .047-.256l-1.044-1.733a.197.197 0 0 0-.02-.026l-2.138-2.486a.197.197 0 0 0-.093-.06l-2.86-3.324a.728.728 0 0 0 .065-.176.427.427 0 0 0-.063-.33l-.002-.006c-.003 0-.004-.006-.007-.01l-.357-.415a.466.466 0 0 0-.03-.31.195.195 0 0 0-.034-.065v-.002l-.008-.01-.242-.28.205-.177c.423-.362.47-1.002.108-1.424l-.08-.094a.197.197 0 0 0-.015-.02l-3.83-4.45-.284-.332-.733-.852-.016-.018-.296-.346-.136-.157a.197.197 0 0 0-.003 0v-.002a.197.197 0 0 0-.045-.037.267.267 0 0 0-.19-.04.614.614 0 0 0-.16.048 2.756 2.756 0 0 0-.385.214c-.266.17-.616.428-1.005.735l-1.667-1.935c.183-.17.346-.33.463-.465.074-.085.133-.16.176-.228a.503.503 0 0 0 .055-.11.31.31 0 0 0 .016-.092.197.197 0 0 0-.046-.15l-.005-.006-.14-.16a.197.197 0 0 0 0-.002.197.197 0 0 0 0-.002H6.32a.197.197 0 0 0-.04-.034.25.25 0 0 0-.148-.04l.066.006-.36-.11a.194.194 0 0 0-.04-.014.197.197 0 0 0-.006 0c-.012-.003-.023-.003-.034-.003-.017-.002-.033 0-.046 0a.197.197 0 0 0-.01 0l-.02.002c-.013.002-.026.007-.038.008a.197.197 0 0 0-.005.002c-.005.002-.01.002-.015.005l-.04.015a.197.197 0 0 0-.003 0c-.003.002-.007.003-.01.007-.015.006-.03.015-.045.022a.197.197 0 0 0-.002 0l-.01.007c-.016.008-.032.02-.05.028a.013.013 0 0 0-.007.006c-.02.01-.04.023-.06.035l-.003.002a.883.883 0 0 0-.066.043.197.197 0 0 0-.002 0l-.073.05c-.003.003-.005.003-.008.007a7.29 7.29 0 0 0-.556.437.197.197 0 0 0-.004.003z" style="line-height:normal;font-variant-ligatures:normal;font-variant-position:normal;font-variant-caps:normal;font-variant-numeric:normal;font-variant-alternates:normal;font-feature-settings:normal;text-indent:0;text-align:start;text-decoration-line:none;text-decoration-style:solid;text-decoration-color:#000;text-transform:none;text-orientation:mixed;shape-padding:0;isolation:auto;mix-blend-mode:normal" color="#000" font-weight="400" font-family="sans-serif" white-space="normal" overflow="visible" fill="#fff"/><path d="M4.158 275.627s.003 0 .005.002a.197.197 0 0 0-.005-.005zM5.583 274.404a.197.197 0 0 0 .004.008c0-.003-.003-.007-.004-.008zM4.932 275.11a.197.197 0 0 0 .065.11l-.12-.03.012-.04.043-.04zM4.822 275.21a.197.197 0 0 0 .302.123.197.197 0 0 0-.003.002.197.197 0 0 0-.013.014.197.197 0 0 0-.01.015.197.197 0 0 0-.05.03l-.047.04a.197.197 0 0 0-.045.055l-.01-.01-.044.036.01.012a.197.197 0 0 0-.065.033 1.065 1.065 0 0 1-.042.035.197.197 0 0 0-.027.026.197.197 0 0 0-.03.02l-.038.03a.197.197 0 0 0-.027.024.197.197 0 0 0-.03.018l-.034.026a.197.197 0 0 0-.05.054l-.007-.012c-.012.007-.022.015-.033.02l.02.03a.197.197 0 0 0-.008.038.197.197 0 0 0-.052-.005l-.016-.024a.29.29 0 0 1-.028.018l.006.01a.197.197 0 0 0-.06.024l-.023.016a.197.197 0 0 0-.023.018.197.197 0 0 0-.025.013l-.02.01a.197.197 0 0 0-.018.013l-.025-.168c.022-.034.067-.092.13-.162.103-.116.26-.267.435-.424zM5.416 274.728l.038-.03a.046.046 0 0 0 .016-.014l.005-.002.17.163.01-.012-.167-.16.056-.038.058-.038h.003l.002-.002.046-.028.006-.003c.01-.006.02-.01.028-.016l.127.105c0-.002.003-.002.004-.006l-.126-.103s.002 0 .003-.002l.008-.003c.01-.006.018-.008.025-.013a.197.197 0 0 0 .002 0l.16.047s0 .002-.003.005l.046.037a.197.197 0 0 0-.058.013l-.018-.015c-.007.007-.014.018-.023.026l.007.007a.197.197 0 0 0-.04.034.178.178 0 0 0-.027.03.197.197 0 0 0-.03.05l-.008-.008a.465.465 0 0 0-.033.033l.007.007a.197.197 0 0 0-.05.035l-.034.037a.197.197 0 0 0-.02.025.197.197 0 0 0-.025.018l-.04.037a.197.197 0 0 0-.02.026.197.197 0 0 0-.02.015c.004-.002.007-.007.01-.01l-.02-.022a.197.197 0 0 0-.008-.115l.083.083a.475.475 0 0 1 .02-.016zM5.99 274.436l.027.01-.028-.007v-.003zM5.985 274.456h.013a.197.197 0 0 0-.014.01v-.01zM4.155 276.14v.01-.006zM5.956 274.592l.012.005a.197.197 0 0 0 .003.007zM5.47 275.013a.197.197 0 0 0 .027-.02l-.04.037a.197.197 0 0 0-.02.026.197.197 0 0 0-.012.007c.006-.006.012-.01.017-.017a.197.197 0 0 0 .028-.034zM5.39 275.09a.197.197 0 0 0 .018-.013l-.03.027a.197.197 0 0 0 .01-.015zM5.31 275.164a.197.197 0 0 0 .034-.024c.002-.002.004-.002.006-.006a.197.197 0 0 0-.026.04l-.01-.01a.446.446 0 0 1-.016.014.197.197 0 0 0 .01-.015zM5.223 275.242a.197.197 0 0 0 .032-.02l.016-.015.035.04a.197.197 0 0 0 .066.16.197.197 0 0 0-.003.006.197.197 0 0 0-.004.002l-.146-.165a.197.197 0 0 0 .007-.006zM7.37 277.925a.197.197 0 0 0 .198-.03c.385-.31.714-.55.982-.73l-.073.08a.197.197 0 0 0-.008.01.197.197 0 0 0-.01.007l-.124.127a.197.197 0 0 0-.01.01.197.197 0 0 0-.01.007l-.138.14a.197.197 0 0 0-.007.006.197.197 0 0 0-.006.006c-.05.05-.103.1-.158.153a.197.197 0 0 0-.003.002.197.197 0 0 0-.005.005l-.175.166a.197.197 0 0 0-.002.002c-.037.033-.073.07-.11.103l-.032.03-.034.03-.002.002-.01.008a.197.197 0 0 0 0 .002H7.63a.01.01 0 0 0-.005.006l-.016.014a.197.197 0 0 0-.002 0 2.682 2.682 0 0 1-.053.047.197.197 0 0 0-.002.002.197.197 0 0 0-.003.002s-.002 0-.002.002l-.095.085-.017.016a.197.197 0 0 0-.002 0 .197.197 0 0 0-.004.003h-.002v.002h-.002c0 .002-.002.002-.003.003l-.184.162a.197.197 0 0 0-.012.01.197.197 0 0 0-.01.008l-.135.117-.188.16a.197.197 0 0 0-.015.014.197.197 0 0 0-.014.012c-.057.048-.114.096-.172.142a.197.197 0 0 0-.02.02.197.197 0 0 0-.027.017c-.052.044-.104.087-.156.128a.197.197 0 0 0-.027.027.197.197 0 0 0-.033.02c-.046.04-.094.076-.14.112a.197.197 0 0 0-.03.033.197.197 0 0 0-.04.023c-.037.03-.075.058-.112.086a.197.197 0 0 0-.04.043.197.197 0 0 0-.05.025l-.08.06a.197.197 0 0 0-.048.053.197.197 0 0 0-.065.03c-.02.016-.042.03-.062.045a.197.197 0 0 0-.053.06.197.197 0 0 0-.073.03c-.014.01-.03.018-.043.03a.197.197 0 0 0 .225.323c.014-.01.03-.02.044-.032a.197.197 0 0 0 .055-.06.197.197 0 0 0 .074-.032l.063-.046a.197.197 0 0 0 .05-.055.197.197 0 0 0 .067-.03l.082-.06a.197.197 0 0 0 .04-.044.197.197 0 0 0 .05-.028l.116-.088a.197.197 0 0 0 .032-.033.197.197 0 0 0 .04-.024c.046-.038.095-.075.143-.114a.197.197 0 0 0 .028-.028.197.197 0 0 0 .033-.02c.052-.044.106-.086.16-.13a.197.197 0 0 0 .02-.022.197.197 0 0 0 .027-.017l.174-.144a.197.197 0 0 0 .014-.015.197.197 0 0 0 .015-.012l.19-.163c.046-.04.09-.08.136-.118a.197.197 0 0 0 .01-.01.197.197 0 0 0 .013-.01l.185-.162a.197.197 0 0 0 .002 0l.004-.003a.197.197 0 0 0 .002 0 .197.197 0 0 0 .003-.003.197.197 0 0 0 .004-.002l.008-.008c.003-.002.006-.006.01-.007.03-.03.064-.058.097-.087a.197.197 0 0 0 .004-.003 7.14 7.14 0 0 0 .074-.068v-.002a.197.197 0 0 0 .002 0 .197.197 0 0 0 .002 0v-.002l.012-.01h.002l.032-.03a.197.197 0 0 0 .005-.006l.02-.02.12-.11a.197.197 0 0 0 .002-.002l.18-.17a.197.197 0 0 0 .002-.004.197.197 0 0 0 .005-.005c.055-.054.11-.107.16-.158a.197.197 0 0 0 .007-.007.197.197 0 0 0 .008-.007l.143-.144a.197.197 0 0 0 .01-.01.197.197 0 0 0 .01-.008l.127-.132a.197.197 0 0 0 .008-.008.197.197 0 0 0 .01-.008 38.7 38.7 0 0 0 .115-.123.197.197 0 0 0 .007-.007.197.197 0 0 0 .01-.007c.036-.04.07-.08.104-.12a.197.197 0 0 0 .005-.006 3.14 3.14 0 0 0 .095-.115.197.197 0 0 0 0-.002c.008-.008.012-.016.018-.024l.045-.06.232.268.015.018.733.852.285.332 3.813 4.432a.197.197 0 0 0 .016.02l.096.11a.61.61 0 0 1-.066.87l-.354.305a.197.197 0 0 0-.02.28l.358.415a.197.197 0 0 0 .005.007c-.01-.01.012.02-.025.113a.197.197 0 0 0 .034.2l.414.482-.003.024a.506.506 0 0 1-.08.167.197.197 0 0 0-.003.005.197.197 0 0 0-.008.007l-.02.027a.197.197 0 0 0-.002.002.197.197 0 0 0-.006.006l-.024.03a.197.197 0 0 0-.003 0 .197.197 0 0 0-.01.008.282.282 0 0 0-.024.027.197.197 0 0 0-.006.008.197.197 0 0 0-.012.01.546.546 0 0 0-.02.022.197.197 0 0 0-.007.007.197.197 0 0 0-.012.01.563.563 0 0 1-.023.02.197.197 0 0 0-.013.013.197.197 0 0 0-.02.013.328.328 0 0 1-.017.014.197.197 0 0 0-.013.01.197.197 0 0 0-.013.008.05.05 0 0 0-.017.012.197.197 0 0 0-.014.012.197.197 0 0 0-.017.006l-.012.008a.197.197 0 0 0-.015.012.197.197 0 0 0-.017.007c-.003.002-.006.002-.01.006a.197.197 0 0 0-.016.01.197.197 0 0 0-.018.008.012.012 0 0 0-.007.005.197.197 0 0 0-.01.007.197.197 0 0 0-.015.005.433.433 0 0 1-.155.04h-.016l-.413-.482a.197.197 0 0 0-.193-.064c-.1.022-.125-.003-.116.006l-.24-.278a.197.197 0 0 0 .006-.002c.005-.002.01-.007.01-.007a.197.197 0 0 0 .005-.003.197.197 0 0 0 .004-.002c.005-.002.01-.007.01-.007a.197.197 0 0 0 .004-.003.197.197 0 0 0 .006-.002l.004-.002c.003 0 .007-.005.01-.006a.197.197 0 0 0-.248-.307c-.004.002-.006.005-.008.007a.197.197 0 0 0-.002 0 .197.197 0 0 0-.004.003c-.003.002-.005.002-.006.005a.197.197 0 0 0-.003.002.197.197 0 0 0-.003.002l-.008.005a.197.197 0 0 0 0 .002.197.197 0 0 0-.004.002l-.008.006a.197.197 0 0 0-.002 0 .197.197 0 0 0-.003.003c-.004.002-.007.002-.01.005a.197.197 0 0 0-.004.003c-.004.003-.006.003-.007.006a.197.197 0 0 0-.003 0 .197.197 0 0 0-.004.003c-.003 0-.005 0-.007.004a.197.197 0 0 0-.006.002c-.003 0-.005 0-.006.004a.197.197 0 0 0-.003 0 .197.197 0 0 0-.003.003h-.002c-.002.002-.003.003-.005.003a.197.197 0 0 0-.005.002c-.003 0-.006.002-.007.005a.197.197 0 0 0-.003 0 .197.197 0 0 0-.004.002l-.006.002a.197.197 0 0 0-.003 0 .197.197 0 0 0-.002.002h-.008a.197.197 0 0 0-.002.002.197.197 0 0 0-.003 0c-.002.002-.005.003-.008.003a.197.197 0 0 0-.002 0 .197.197 0 0 0-.004.002h-.006a.197.197 0 0 0-.002.002.197.197 0 0 0-.004 0 .197.197 0 0 0-.002 0 .613.613 0 0 1-.665-.18l-.095-.113a.197.197 0 0 0-.015-.016l-3.817-4.436a1.613 1.613 0 0 0-1.78-.46.197.197 0 0 0-.047.025 6.66 6.66 0 0 1-.665.438c-.06.034-.096.048-.13.06l-.247-.287-.057-.066a.197.197 0 0 0-.01-.028c.012-.018.014-.027.03-.05a4.4 4.4 0 0 1 .37-.435c.336-.357.832-.828 1.404-1.32.115-.1.23-.197.346-.292a.197.197 0 0 0 .068-.187z" style="line-height:normal;font-variant-ligatures:normal;font-variant-position:normal;font-variant-caps:normal;font-variant-numeric:normal;font-variant-alternates:normal;font-feature-settings:normal;text-indent:0;text-align:start;text-decoration-line:none;text-decoration-style:solid;text-decoration-color:#000;text-transform:none;text-orientation:mixed;shape-padding:0;isolation:auto;mix-blend-mode:normal" color="#000" font-weight="400" font-family="sans-serif" white-space="normal" overflow="visible"/><path d="M12.632 285.298s.005-.002.007-.005a.197.197 0 0 0-.008.005zM14.234 284.846a.197.197 0 0 0 .018.074.14.14 0 0 1-.018-.074zM13.3 285.8v.003a.197.197 0 0 0 0-.002zM14.666 285.665a.197.197 0 0 0 .018.06.157.157 0 0 1-.018-.06zM14.03 286.348zM14.04 286.362zM14.575 286.528c.005-.002.01-.007.014-.01a.197.197 0 0 0 .016-.015.197.197 0 0 0 .02-.012l.023-.02a.197.197 0 0 0 .02-.018.197.197 0 0 0 .025-.02c.01-.007.02-.017.03-.027a.197.197 0 0 0 .008-.008.197.197 0 0 0 .017-.014c.01-.007.018-.017.027-.026l2.87 3.336a.197.197 0 0 0 .093.06l2.058 2.393.506.84-.754-.626-2.06-2.393a.197.197 0 0 0-.045-.1z" style="line-height:normal;font-variant-ligatures:normal;font-variant-position:normal;font-variant-caps:normal;font-variant-numeric:normal;font-variant-alternates:normal;font-feature-settings:normal;text-indent:0;text-align:start;text-decoration-line:none;text-decoration-style:solid;text-decoration-color:#000;text-transform:none;text-orientation:mixed;shape-padding:0;isolation:auto;mix-blend-mode:normal" color="#000" font-weight="400" font-family="sans-serif" white-space="normal" overflow="visible"/><path d="M4.935 280.275l.136.16.264.304.035.04.007-.007c0 .01.003.018.007.025.062.07.43-.132.996-.545a1.414 1.414 0 0 1 1.56.405l3.83 4.45.097.11a.812.812 0 0 0 1.147.087l1.4-1.205a.812.812 0 0 0 .087-1.147l-.095-.112-3.828-4.45-.285-.332-.733-.85v-.002l-.016-.017-.298-.347-.136-.16c.1.13-.747 1.03-1.896 2.02-.616.53-1.225 1.002-1.664 1.292l-.004.002-.134.086-.008.006-.112.066c-.005.002-.01.007-.014.008-.033.018-.063.035-.09.048-.007.002-.012.007-.02.007-.025.01-.048.022-.07.03l-.02.01a.464.464 0 0 1-.05.016c-.006.002-.012.002-.02.006a.2.2 0 0 1-.032.002H4.96a.046.046 0 0 1-.024-.01z" fill="#fff"/><path d="M9.11 276.682a.295 2.754 49.295 0 1-1.896 2.02.295 2.754 49.295 0 1-2.28 1.572.295 2.754 49.295 0 1 1.895-2.02.295 2.754 49.295 0 1 2.28-1.572zM6.176 274.453a.178 1.356 49.295 0 1-.912 1.018.178 1.356 49.295 0 1-1.14.753l.134.157a.178 1.356 49.295 0 0 0 .002.178 1.356 49.295 0 0 .004.002l.003.002a.178 1.356 49.295 0 0 1.138-.755.178 1.356 49.295 0 0 .915-1.01l.002-.002-.005-.006-.14-.16z" fill="#fff"/><path d="M5.766 274.33a.148 1.126 49.295 0 1-.758.844.148 1.126 49.295 0 1-.95.623l.057.39a.178 1.356 49.295 0 0 .004.034.178 1.356 49.295 0 0 1.144-.75.178 1.356 49.295 0 0 .91-1.018.178 1.356 49.295 0 0-.03-.01z" fill="#fff"/><path d="M5.765 274.328a.148 1.126 49.295 0 1-.757.846.148 1.126 49.295 0 1-.95.623.148 1.126 49.295 0 1 .757-.847.148 1.126 49.295 0 1 .95-.622z" fill="#fff"/><path d="M5.34 274.536a.145 1.097 49.295 0 1 .28-.112.145 1.097 49.295 0 1-.738.825.145 1.097 49.295 0 1-.674.51.148 1.126 49.295 0 0 .8-.586.148 1.126 49.295 0 0 .757-.846.148 1.126 49.295 0 0-.424.208zM14.27 286.476l3.027 3.518.5-.43-3.02-3.51a.304.645 49.295 0 1-.21.23.304.645 49.295 0 1-.297.192z" fill="#fff"/><path d="M12.745 285.46l.4.466a.377.843 49.295 0 0 .004.002.377.843 49.295 0 0 .003.005.377.843 49.295 0 0 .303.05l.42.49a.304.645 49.295 0 0 .003.002.304.645 49.295 0 0 .002.002.304.645 49.295 0 0 .684-.194.304.645 49.295 0 0 .295-.645l-.427-.498a.377.843 49.295 0 0-.002-.304l-.37-.432-1.046.9a.814.814 0 0 1-.27.155z" fill="#fff"/><path d="M17.273 290.015l2.14 2.486 1.553 1.29.036-.03-1.043-1.73-2.14-2.487z" style="line-height:normal;font-variant-ligatures:normal;font-variant-position:normal;font-variant-caps:normal;font-variant-numeric:normal;font-variant-alternates:normal;font-feature-settings:normal;text-indent:0;text-align:start;text-decoration-line:none;text-decoration-style:solid;text-decoration-color:#000;text-transform:none;text-orientation:mixed;shape-padding:0;isolation:auto;mix-blend-mode:normal" color="#000" font-weight="400" font-family="sans-serif" white-space="normal" overflow="visible" fill="#fff"/><path d="M7.472 277.774v.002a.23 2.146 49.295 0 1 .707-.375.23 2.146 49.295 0 1-.476.644.23 2.146 49.295 0 1-.11.11.23 2.146 49.295 0 1-.005.006.23 2.146 49.295 0 1-.132.128.23 2.146 49.295 0 1-.756.687.23 2.146 49.295 0 1-1.344 1.04.255 2.386 49.295 0 0 1.83-1.344.255 2.386 49.295 0 0 1.64-1.748.255 2.386 49.295 0 0-1.357.85zM9.4 277.495c.025.032-.02.12-.123.252l.037.043.237.276.014.014.585.68.227.265 3.058 3.555.075.09c.235.273.218.67-.038.89l-1.05.903c-.248.214-.63.18-.866-.074l.033.037.08.09c.24.282.662.314.943.072l1.152-.993a.668.668 0 0 0 .07-.944l-.078-.092-3.15-3.662-.234-.272-.603-.7v-.002l-.012-.014-.245-.285-.113-.13zM8.33 280.647l.023.03a1.25 1.25 0 0 0-.025-.03z" fill="#fff"/><path d="M12.913 285.478z" fill="red"/><path d="M13.938 284.664l.317.368a.332.77 49.295 0 1-.002.274l.377.438a.268.59 49.295 0 1-.123.426.262.557 49.295 0 0 .232-.537l-.37-.43a.325.727 49.295 0 0-.002-.262l-.32-.372z" fill="#fff"/><path d="M17.475 290.072l1.773 2.06 1.087.96-.98-.94-1.828-2.124zM17.796 289.796l1.828 2.125.776 1.104-.78-1.212-1.772-2.06z" style="line-height:normal;font-variant-ligatures:normal;font-variant-position:normal;font-variant-caps:normal;font-variant-numeric:normal;font-variant-alternates:normal;font-feature-settings:normal;text-indent:0;text-align:start;text-decoration-line:none;text-decoration-style:solid;text-decoration-color:#000;text-transform:none;text-orientation:mixed;shape-padding:0;isolation:auto;mix-blend-mode:normal" color="#000" font-weight="400" font-family="sans-serif" white-space="normal" overflow="visible" fill="#fff"/><path d="M5.786 274.412a.89.89 0 0 1-.064.094l.304.128a.06.06 0 0 1 .027.01c.048-.07.085-.112.07-.132l-.006-.006c-.007-.005-.01-.006-.026-.006zM6.186 274.52a.133 1.268 49.295 0 1-.07.14l.1.12.002.002a.133 1.268 49.295 0 0 .074-.137l.002-.002-.005-.006-.104-.12zM5.533 275.52l-.13.113-.132.112 1.624 1.887.384.446.18.21a.23 2.146 49.295 0 0 .246-.244l-.167-.195-.01-.01v-.002l-.053-.062-.002-.002-.315-.367z" fill="#fff"/></g></svg>